<?xml version="1.0" standalone="no"?>
<!DOCTYPE svg PUBLIC "-//W3C//DTD SVG 1.1//EN" "http://www.w3.org/Graphics/SVG/1.1/DTD/svg11.dtd" >
<svg xmlns="http://www.w3.org/2000/svg" xmlns:xlink="http://www.w3.org/1999/xlink" version="1.1">
<metadata>
Created by FontForge 20170731 at Tue Sep  1 01:57:19 2020
 By Aleksey,,,
Copyright (c) 2012 by Maximiliano R. Sproviero. All rights reserved.
</metadata>
<defs>
<font id="AireBoldPro" horiz-adv-x="1030" >
  <font-face 
    font-family="Aire Bold Pro"
    font-weight="400"
    font-stretch="normal"
    units-per-em="2048"
    panose-1="2 0 0 0 0 0 0 0 0 0"
    ascent="1536"
    descent="-512"
    x-height="932"
    cap-height="1421"
    bbox="-1647.73 -1305 4124 2134"
    underline-thickness="102"
    underline-position="-204"
    unicode-range="U+0020-FB02"
  />
<missing-glyph horiz-adv-x="571" 
 />
    <glyph glyph-name="fi" unicode="fi" horiz-adv-x="851" 
d="M68 6q0 6 6 6h47q20 0 20 21v866q0 21 -20 21h-66q-6 0 -6 6t6 6h66q20 0 20 20v58q0 143 76 258.5t197 166.5t245 17q53 -15 54 -61q1 -37 -30 -57q-22 -15 -48 -5q-75 28 -133 40t-98.5 10t-69.5 -20.5t-45.5 -42.5t-25.5 -65t-12 -80t-3 -94v-125q0 -20 20 -20h107
q6 0 6 -6t-6 -6h-107q-20 0 -20 -21v-866q0 -21 20 -21h47q7 0 7 -6t-7 -6h-241q-6 0 -6 6zM479 926q0 6 6 6h240q6 0 6 -6t-6 -6h-31v-828q0 -28 16.5 -51t47.5 -23q27 0 43 18t16 46q0 6 6 6t6 -6q0 -90 -114 -90q-61 0 -94 40.5t-33 110.5v723q0 45 -39 54h-64q-6 0 -6 6
z" />
    <glyph glyph-name="fl" unicode="fl" horiz-adv-x="888" 
d="M629 1386q-57 18 -104 27t-83 10t-64.5 -5.5t-48.5 -19.5t-34.5 -32.5t-23 -44t-14 -54t-7 -63.5t-2.5 -71.5t0 -77.5v-43v-66q0 -14 14 -14h144q5 0 7 -3t0 -6t-7 -3h-144q-14 0 -14 -15v-878q0 -15 14 -15h84q8 0 8 -6t-8 -6h-303q-6 0 -6 6t6 6h84q14 0 14 15v878
q0 15 -14 15h-102q-7 0 -7 6t7 6h102q14 0 14 14v66q0 233 138.5 366.5t355.5 108.5l29 -6h65q6 0 6 -6v-1373q0 -34 18.5 -59t55.5 -25q30 0 50 16.5t20 47.5q0 6 6 6t6 -6q0 -44 -30 -67t-85 -23q-67 0 -107 40t-40 111v1243z" />
    <glyph glyph-name="afii10066_afii10082" unicode="&#x431;&#x440;" horiz-adv-x="2048" 
d="M514 956q92 0 171.5 -28.5t141.5 -84t98 -145t36 -202.5v-23q0 -135 -50 -242.5t-153.5 -173t-245.5 -65.5q-141 0 -243.5 65.5t-151.5 173t-49 242.5v47q0 190 32.5 338.5t89.5 245.5t138 157t175.5 80t203.5 7q85 -11 267 -59.5t249 -49.5q56 59 118 59q33 0 35 -25
q2 -27 -33 -46q-23 -12 -53 -13h-43q-23 -30 -29 -108t-6 -256v-86q51 93 137.5 142.5t184.5 49.5q92 0 171.5 -28.5t141.5 -84t97.5 -145t35.5 -202.5v-23q0 -208 -114.5 -344.5t-317.5 -136.5q-242 0 -336 196v-667q0 -21 21 -21h59q6 0 6 -6t-6 -6h-268q-6 0 -6 6t6 6h61
q21 0 21 21v1329q0 105 25 201t69 159h-162q-45 0 -111 4t-118.5 8t-119 4.5t-120 -3.5t-113 -18.5t-106 -39t-91.5 -67t-77 -100t-55.5 -139.5t-32.5 -185v-2q46 140 159 212t261 72zM1534 944q-107 0 -192.5 -55.5t-129.5 -155.5v-510q87 -219 336 -219q160 0 240 128
t80 341v23q0 119 -27.5 208t-75.5 140t-106 75.5t-125 24.5zM514 944q-67 0 -125 -24.5t-106 -75.5t-75.5 -140t-27.5 -208v-23q0 -104 19 -187.5t58 -147.5t104 -99t151 -35q115 0 192 62t110.5 164.5t33.5 242.5v23q0 119 -27.5 208t-75.5 140t-106 75.5t-125 24.5z" />
    <glyph glyph-name="afii10070_afii10077" unicode="&#x435;&#x43b;" horiz-adv-x="1828" 
d="M1583 897q0 12 -6.5 19.5t-15.5 7.5h-322q-44 0 -47 -50l-29 -411q-8 -121 -27 -209.5t-40.5 -136.5t-51 -76t-53 -35.5t-51.5 -7.5q-120 0 -166 98q-53 -49 -123 -78.5t-141 -29.5q-108 0 -193 37.5t-139 103.5t-82 153.5t-28 190.5v16q0 113 34.5 203t95 147t139.5 87
t171 30q151 0 253.5 -89.5t112.5 -237.5q2 -22 -7 -31.5t-33 -9.5h-650q-4 -62 -4 -99v-16q0 -107 18 -191t56.5 -148.5t103 -99t152.5 -34.5q83 0 149.5 31.5t108.5 83.5q-12 30 -12 71q0 84 57 84q32 0 41 -35.5t-16 -70.5q0 -154 104 -154q29 0 53 9.5t50.5 39t46.5 79.5
t36.5 136.5t24.5 204.5l12 174q8 78 3.5 129t-9 79.5t-16.5 42.5t-19.5 17t-19.5 3h-49q-6 0 -5.5 6t5.5 6h694q5 0 7 -3t0 -6t-7 -3h-29q-30 0 -30 -31v-868q0 -13 12 -13h80q6 0 6 -6t-6 -6h-293q-5 0 -7 3t0 6t7 3h80q14 0 14 13v872zM508 944q-124 0 -211 -85t-111 -259
h545q16 0 24.5 7t8.5 26q0 90 -25 157.5t-84 110.5t-147 43z" />
    <glyph glyph-name="afii10083_afii10077" unicode="&#x441;&#x43b;" horiz-adv-x="1839" 
d="M1593 897q0 12 -6.5 19.5t-15.5 7.5h-322q-44 0 -47 -50l-28 -411q-8 -121 -27 -209.5t-41 -136.5t-51.5 -76t-53 -35.5t-51.5 -7.5q-120 0 -166 98q-53 -49 -123 -78.5t-141 -29.5q-114 0 -201.5 36t-141.5 101t-81.5 150.5t-27.5 187.5v22q0 112 40 204t105 149
t144.5 87.5t162.5 30.5q164 -1 268 -83t89 -195q-7 -56 -49 -70q-35 -12 -56 15q-20 26 -4 71q17 43 7.5 86.5t-36 79t-81 59t-126.5 25.5h-12q-71 0 -131.5 -27.5t-107 -82.5t-73 -144t-26.5 -205v-22q0 -106 17 -187.5t55.5 -145t105 -97t160.5 -33.5q83 0 149.5 31.5
t108.5 83.5q-12 30 -12 71q0 84 57 84q32 0 41 -35.5t-16 -70.5q0 -154 104 -154q29 0 53 9.5t50.5 39t46.5 79.5t36.5 136.5t24.5 204.5l13 174q8 78 3.5 129t-9 79.5t-17 42.5t-20 17t-19.5 3h-49q-6 0 -5.5 6t5.5 6h694v-12h-28q-31 0 -31 -31v-868q0 -13 12 -13h80
q6 0 6 -6t-6 -6h-293q-5 0 -7 3t0 6t7 3h80q14 0 14 13v872z" />
    <glyph glyph-name="afii10076_afii10077" unicode="&#x43a;&#x43b;" horiz-adv-x="1792" 
d="M260 504v12h29l393 402q3 4 1.5 5t-7.5 1h-60q-8 0 -5 7q2 5 7 5h160q8 0 5 -7q-1 -5 -7 -5h-22q-54 0 -74 -23l-377 -385h8q166 -5 322 -227q17 -23 48 -70.5t47 -69t41 -49t48.5 -38.5t50.5 -11q40 0 76.5 19.5t71.5 61.5t61 119.5t39 182.5l27 219q8 78 3.5 129
t-9 79.5t-17 42.5t-20 17t-19.5 3h-49q-6 0 -5.5 6t5.5 6h680q5 0 7 -3t0 -6t-7 -3h-29q-30 0 -30 -31v-868q0 -13 12 -13h80q6 0 6 -6t-6 -6h-293q-5 0 -7 3t0 6t7 3h80q14 0 14 13v872q0 12 -6.5 19.5t-15.5 7.5h-297q-44 0 -47 -50l-54 -456q-13 -109 -43.5 -195
t-70.5 -136.5t-84 -76.5t-88 -26h-2q-76 0 -138 56.5t-168 215.5q-19 28 -46 70t-40 61.5t-33 46t-34.5 38.5t-33.5 21.5t-40 10.5h-45zM125 20v893q0 11 -6 11h-70q-5 0 -6 6t6 6h258q6 0 6 -6t-6 -6h-67q-9 0 -9 -11v-893q1 -8 9 -8h63q6 0 6 -6t-6 -6h-250q-6 0 -6 6t6 6
h62q10 0 10 8z" />
    <glyph glyph-name="afii10071_afii10077" unicode="&#x451;&#x43b;" horiz-adv-x="1828" 
d="M1583 897q0 12 -6.5 19.5t-15.5 7.5h-322q-44 0 -47 -50l-29 -411q-8 -121 -27 -209.5t-40.5 -136.5t-51 -76t-53 -35.5t-51.5 -7.5q-120 0 -166 98q-53 -49 -123 -78.5t-141 -29.5h-2q-107 0 -192 37.5t-138.5 103.5t-81.5 153.5t-28 190.5v16q0 113 34.5 202.5
t94.5 146.5t139 87t170 31h2q151 0 253.5 -89.5t112.5 -237.5q2 -22 -7 -31.5t-33 -9.5h-650q-4 -62 -4 -99v-16q0 -220 79 -346.5t249 -126.5h2q83 0 149.5 31.5t108.5 83.5q-12 30 -12 71q0 84 57 84q32 0 41 -35.5t-16 -70.5q0 -154 104 -154q29 0 53 9.5t50.5 39
t46.5 79.5t36.5 136.5t24.5 204.5l12 174q8 78 3.5 129t-9 79.5t-16.5 42.5t-19.5 17t-19.5 3h-49q-6 0 -5.5 6t5.5 6h694q5 0 7 -3t0 -6t-7 -3h-29q-30 0 -30 -31v-868q0 -13 12 -13h80q6 0 6 -6t-6 -6h-293q-5 0 -7 3t0 6t7 3h80q14 0 14 13v872zM506 944
q-123 -2 -210 -86.5t-110 -257.5h545q16 0 24.5 7t8.5 26q0 90 -25 157.5t-84 110.5t-147 43h-2zM637 1133q-29 0 -49.5 20t-20.5 49t20.5 49.5t49.5 20.5t49.5 -20.5t20.5 -49.5t-20.5 -49t-49.5 -20zM305 1130q-29 0 -49 20.5t-20 49.5t20 49.5t49 20.5t49.5 -20.5
t20.5 -49.5t-20.5 -49.5t-49.5 -20.5z" />
    <glyph glyph-name="l_i" unicode="li" horiz-adv-x="786" 
d="M135 1415q0 22 -10 37.5t-29 15.5h-86q-6 0 -6 7q0 6 6 6h262q7 0 7 -6q0 -7 -7 -7h-30v-1366q0 -35 18 -59.5t55 -24.5q30 0 50 16.5t20 47.5q0 6 6 6t6 -6q0 -44 -29.5 -67t-84.5 -23q-67 0 -107.5 40t-40.5 111v1272zM426 926q0 6 6 6h240q6 0 6 -6t-6 -6h-31v-828
q0 -28 16.5 -51t47.5 -23q27 0 43 18t16 46q0 6 6 6t6 -6q0 -90 -114 -90q-61 0 -94 40.5t-33 110.5v723q0 48 -41 54h-62q-6 0 -6 6zM516 1323q0 31 19.5 50.5t50.5 19.5t50 -19.5t19 -50.5t-19 -50.5t-50 -19.5t-50.5 19.5t-19.5 50.5z" />
    <glyph glyph-name="d_i" unicode="di" horiz-adv-x="1392" 
d="M68 440q0 121 44.5 220t119.5 162.5t170.5 98t199.5 33.5l164 -2v467q0 46 -41 49h-107q-5 0 -7 3t0 6.5t7 3.5h285q5 0 7 -3.5t0.5 -6.5t-7.5 -3h-31v-1376q0 -28 16.5 -51t47.5 -23q27 0 43 18t16 46q0 6 6.5 6t6.5 -6q0 -90 -115 -90q-61 0 -94 40.5t-33 110.5v299
q-24 -88 -60 -165t-84 -142.5t-112 -104t-135 -38.5q-59 0 -110 19t-97 62t-73 125.5t-27 196.5v45zM176 440v-41q0 -395 191 -395h8q75 0 141.5 44t114 117.5t81.5 158t54 176.5v442h-156q-198 0 -316 -137t-118 -365zM1032 926q0 6 6 6h240q6 0 6 -6t-6 -6h-31v-828
q0 -28 16.5 -51t47.5 -23q27 0 43 18t16 46q0 6 6 6t6 -6q0 -90 -114 -90q-61 0 -94 40.5t-33 110.5v723q0 45 -39 54h-64q-6 0 -6 6zM1122 1323q0 31 19.5 50.5t50.5 19.5t50.5 -19.5t19.5 -50.5t-19.5 -50.5t-50.5 -19.5t-50.5 19.5t-19.5 50.5z" />
    <glyph glyph-name=".notdef" horiz-adv-x="571" 
 />
    <glyph glyph-name=".null" horiz-adv-x="0" 
 />
    <glyph glyph-name="nonmarkingreturn" horiz-adv-x="682" 
 />
    <glyph glyph-name="space" unicode=" " horiz-adv-x="471" 
 />
    <glyph glyph-name="exclam" unicode="!" horiz-adv-x="393" 
d="M178 201v196q0 143 -9.5 304.5t-24.5 356.5t-21 304v4q0 26 17 40.5t44 14.5t44.5 -14.5t17.5 -40.5v-4q-6 -111 -21.5 -304.5t-25 -355.5t-9.5 -305v-196q0 -5 -3 -7t-6 0t-3 7zM109 59q0 32 21.5 54t53.5 22t54 -22t22 -54t-22 -53.5t-54 -21.5t-53.5 21.5t-21.5 53.5z
" />
    <glyph glyph-name="quotedbl" unicode="&#x22;" horiz-adv-x="327" 
d="M152 1362q0 -15 -21.5 -52.5t-21.5 -60.5v-24q0 -1 -2.5 -1t-2.5 1v24q0 23 -21.5 60.5t-21.5 52.5q0 16 10 30.5t35 14.5t35.5 -14.5t10.5 -30.5zM266 1362q0 -15 -21.5 -52.5t-21.5 -60.5v-24q0 -1 -2 -1t-2 1v24q0 23 -21.5 60.5t-21.5 52.5q0 16 10 30.5t35 14.5
t35 -14.5t10 -30.5z" />
    <glyph glyph-name="numbersign" unicode="#" horiz-adv-x="1089" 
d="M469 647l-20 -4v-266q0 -36 -32 -40q-30 -4 -47 19q-11 15 -3 35l71 176v76l-262 -33q-26 0 -37 21t-0.5 42t37.5 21l262 -32v188l-262 -33q-28 0 -39.5 21t0 42t39.5 21l262 -33v97l-73 180q-15 35 17 50q29 13 52 -4q15 -13 15 -34v-291l20 -2h152l32 4v289q0 33 32 41
q29 6 45 -14q12 -16 3 -39l-69 -180v-97l249 33q29 0 41 -21t0.5 -42t-41.5 -21l-249 31v-186l249 32q28 0 38.5 -21t-1 -42t-37.5 -21l-249 31v-74l69 -176q11 -29 -18 -47q-28 -16 -49 1q-13 10 -13 32v266l-32 4h-152zM469 854l-20 -4v-191l20 -2h152l32 5v188l-32 4
h-152z" />
    <glyph glyph-name="dollar" unicode="$" horiz-adv-x="950" 
d="M432 -27v2l4 285q-153 12 -241.5 98.5t-83.5 196.5q2 52 42 67q33 12 54 -12q19 -22 10 -59q-7 -36 -6.5 -72.5t17 -71.5t42 -62.5t68.5 -47t98 -25.5l2 150v301q-47 16 -79.5 30t-69.5 36.5t-60 47.5t-38.5 62t-16.5 82q-3 99 74.5 164t187.5 78l-4 303v2q0 4 4 8t8 4
q5 0 9 -4t4 -8v-2l-4 -303q8 2 28 2q6 0 18.5 -1t18.5 -1l-4 303v2q0 4 4 8t8 4q5 0 9 -4t4 -8v-2l-4 -305q119 -12 195 -77.5t73 -160.5q-2 -50 -43 -63q-34 -11 -56 13q-19 21 -10 56q20 82 -19 143.5t-140 75.5l-3 -170v-211q53 -18 89.5 -33t79.5 -40.5t69 -53t43.5 -68
t17.5 -89.5q0 -99 -80.5 -184t-215.5 -99l4 -285v-2q0 -4 -4 -8t-9 -4q-4 0 -8 3.5t-4 8.5q0 90 4 285h-65l4 -283v-2q0 -4 -4 -8t-9 -4q-4 0 -8 3.5t-4 8.5zM766 471q0 37 -13 68t-33 52.5t-52.5 41t-62.5 32t-73 27.5v-270l3 -150q97 14 164 70.5t67 128.5zM233 1024
q0 -59 52 -95t153 -71v180l-2 172q-83 -10 -143 -56.5t-60 -129.5zM518 270q0 95 2 152v274l-69 23v-297l2 -152h65zM479 1212q-18 0 -26 -2l-2 -172v-184l69 -23v207l-2 172q-6 0 -19.5 1t-19.5 1z" />
    <glyph glyph-name="percent" unicode="%" horiz-adv-x="1523" 
d="M412 631q-120 0 -195.5 86.5t-75.5 251.5q0 155 79.5 238t195.5 83h2q115 -3 191.5 -85.5t76.5 -235.5q0 -165 -75.5 -251.5t-196.5 -86.5h-2zM414 641q73 2 118.5 82.5t45.5 245.5q0 146 -46 227t-116 84h-6q-68 -3 -114 -85.5t-46 -225.5q0 -165 45 -245.5t117 -82.5h2
zM655 496l-348 -549q-6 -10 -14.5 -10t-11 7.5t3.5 18.5l360 539l174 272l346 549q6 9 15 9t12.5 -7.5t-2.5 -17.5l-361 -539zM1079 33q-120 0 -195 86.5t-75 251.5q0 79 22.5 142t61 101t87 58t103.5 20h2q115 -3 192 -85.5t77 -235.5q0 -165 -76 -251.5t-197 -86.5h-2z
M1081 43q73 2 118.5 82.5t45.5 245.5q0 146 -46 227t-116 84h-6q-68 -3 -113.5 -85.5t-45.5 -225.5q0 -165 45 -245.5t116 -82.5h2z" />
    <glyph glyph-name="ampersand" unicode="&#x26;" horiz-adv-x="1839" 
d="M1710 647q0 155 -89 257t-232 102q-121 0 -213.5 -72t-92.5 -178q0 -64 -6.5 -134t-38 -186t-84.5 -205q108 -144 225.5 -210t231.5 -66q46 0 84.5 20.5t62 54.5t38 68t22.5 70q7 36 35 41q26 6 38 -19q11 -23 -3 -57q-39 -94 -153.5 -153.5t-242.5 -59.5
q-86 0 -191.5 60t-203.5 172q-160 -189 -442 -189q-71 0 -146 27t-139.5 75.5t-105.5 125.5t-41 167v4q0 62 23.5 119t57.5 99t90 86.5t103.5 74.5t115.5 71q6 3 9 5l-47 70q-65 88 -93.5 155t-21.5 138q10 100 96 171.5t224 71.5q117 0 195.5 -70.5t78.5 -162.5
q0 -32 -9 -61t-22.5 -52.5t-37.5 -47.5t-45.5 -41.5t-56.5 -39t-61 -36t-67 -36.5q-25 -13 -37 -20l391 -561l31 -45q117 181 129 469q1 37 -4 65.5t-14 48t-25 33.5t-31 21.5t-38.5 11.5t-42.5 5t-46 1l-4 15h49q78 0 160.5 24t162 48t150.5 24q60 0 119 -13.5t115 -43
t98.5 -71.5t68 -104.5t25.5 -136.5q0 -157 -117.5 -268t-283.5 -111q-96 0 -165.5 47t-108.5 115q-28 48 2 75q22 20 44 9q12 -6 15 -20q20 -94 78 -153.5t151 -59.5q121 0 202 108t81 258zM432 805q-66 -39 -114.5 -79t-93 -94t-68 -124.5t-23.5 -153.5q9 -138 118 -239
t261 -101q221 0 367 156q-6 9 -19 25.5t-23.5 30.5t-19.5 28zM510 868q58 37 99.5 69.5t80 73.5t58 88t20.5 99v2q-2 88 -54 149.5t-143 61.5q-103 0 -164 -66t-61 -149q0 -47 18 -95t39.5 -80.5t67.5 -94.5z" />
    <glyph glyph-name="quotesingle" unicode="'" horiz-adv-x="219" 
d="M176 1362q0 -15 -21.5 -52.5t-21.5 -60.5v-24q0 -1 -2 -1t-2 1v24q0 23 -21.5 60.5t-21.5 52.5q0 16 10 30.5t35 14.5t35 -14.5t10 -30.5z" />
    <glyph glyph-name="parenleft" unicode="(" horiz-adv-x="755" 
d="M295 575q1 -166 15 -293.5t35 -212.5t58.5 -156t72.5 -115t91 -99q3 -3 1 -5t-5 1q-187 135 -289 367t-102 524t102 524t289 367q3 3 5 1t-1 -5q-56 -55 -91 -99t-72.5 -115.5t-58.5 -156.5t-35 -212.5t-15 -293.5v-21z" />
    <glyph glyph-name="parenright" unicode=")" horiz-adv-x="751" 
d="M471 575v21q-1 166 -15 293.5t-35 212.5t-58.5 156.5t-72.5 115.5t-91 99q-3 3 -1 5t5 -1q187 -135 289 -367t102 -524t-102 -524t-289 -367q-3 -3 -5 -1t1 5q56 55 91 99t72.5 115t58.5 156t35 212.5t15 293.5z" />
    <glyph glyph-name="asterisk" unicode="*" horiz-adv-x="628" 
d="M330 1163l-11 6v-16q0 -55 13.5 -93t27 -62t13.5 -44q0 -24 -15.5 -40.5t-40.5 -16.5t-39 16.5t-14 40.5q0 20 12 44t23.5 62t11.5 93v14l-12 -6q-39 -19 -64 -40.5t-34.5 -37.5t-21.5 -33t-27 -26q-20 -12 -42.5 -8t-33.5 26q-12 22 -5.5 43t27.5 33q17 10 43.5 11
t66.5 8.5t89 33.5l12 7l-6 4l-10 6q-47 27 -85.5 36t-65 11t-44.5 12q-21 13 -27.5 32.5t5.5 43.5q11 21 33.5 25t42.5 -7q18 -10 32 -33t40 -53.5t73 -58.5l14 -10v20q0 55 -11.5 93t-23.5 62t-12 44q0 24 14 40.5t39 16.5t40.5 -16.5t15.5 -40.5q0 -20 -13.5 -44t-27 -62
t-13.5 -93v-20l11 6q49 29 75.5 59.5t40 53.5t31.5 34q21 11 43.5 7t34.5 -25q11 -24 4.5 -44t-27.5 -32q-18 -10 -44 -12t-64.5 -11t-85.5 -36l-16 -8l18 -11q48 -27 87.5 -34.5t66.5 -8t45 -10.5q21 -12 27.5 -33t-5.5 -43q-26 -44 -76 -18q-18 10 -32.5 32t-41.5 51
t-75 56z" />
    <glyph glyph-name="plus" unicode="+" horiz-adv-x="1474" 
d="M520 649l-293 -14q-15 0 -20.5 10.5t0.5 21.5t20 11l293 -14h211v210l-14 293q0 15 10.5 20.5t21.5 -0.5t11 -20l-15 -293v-210h209l293 14q15 0 20.5 -11t-0.5 -21.5t-20 -10.5l-293 14h-209v-209l15 -293q0 -15 -11 -20.5t-21.5 0.5t-10.5 20l14 293v209h-211z" />
    <glyph glyph-name="comma" unicode="," horiz-adv-x="249" 
d="M66 -258q-10 -10 -14 -4q-3 4 5 12q29 42 45.5 82t18.5 75t-21 52q-23 7 -37 27t-14 45q0 32 22 53.5t54 21.5t54 -21.5t22 -53.5v-6q0 -115 -135 -283z" />
    <glyph glyph-name="hyphen" unicode="-" horiz-adv-x="833" 
d="M129 522v15h563v-15h-563z" />
    <glyph glyph-name="period" unicode="." horiz-adv-x="247" 
d="M72 59q0 32 21.5 54t53.5 22t54 -22t22 -54t-22 -53.5t-54 -21.5t-53.5 21.5t-21.5 53.5z" />
    <glyph glyph-name="slash" unicode="/" horiz-adv-x="876" 
d="M715 1479l-537 -1528q-4 -11 -10 -8q-3 4 -2 10l536 1528q4 10 12 6q3 -3 1 -8z" />
    <glyph glyph-name="zero" unicode="0" horiz-adv-x="1277" 
d="M637 -33q-122 0 -224.5 47t-180.5 138.5t-122 238t-44 334.5q0 180 47.5 321.5t129 228t184.5 131t220 44.5q115 -3 215 -49.5t179 -133.5t125 -226.5t46 -315.5q0 -188 -44 -334.5t-122 -238t-180.5 -138.5t-224.5 -47h-4zM641 -18q99 1 178.5 42t142 126.5t96.5 231.5
t34 343q0 171 -34.5 306.5t-95 222t-140 132.5t-173.5 50h-22q-93 -4 -172 -51t-139.5 -134t-95 -222t-34.5 -304q0 -197 34 -343t96.5 -231.5t142 -126.5t178.5 -42h4z" />
    <glyph glyph-name="one" unicode="1" horiz-adv-x="528" 
d="M96 1317q-41 0 -44 29q-2 18 9 23q3 2 5 1q99 -21 178.5 9t79.5 79h10v-1427q0 -15 14 -15h96q7 0 9.5 -4t0 -8t-9.5 -4h-352q-9 0 -9 8t9 8h117q14 0 14 15v1327q-75 -41 -127 -41z" />
    <glyph glyph-name="two" unicode="2" horiz-adv-x="1097" 
d="M113 0v102q6 101 36.5 188t77 150t105.5 117.5t123 98t127.5 84.5t120.5 83t101 87t69.5 103t25.5 126q0 56 -19 107.5t-56.5 95t-102 69t-146.5 25.5q-61 0 -112.5 -14t-87.5 -38t-64 -56t-43.5 -68t-23.5 -74t-7 -74t9 -68q12 -49 -22 -72q-30 -21 -58 1q-25 19 -29 65
q-5 57 9.5 114.5t49.5 111t86.5 95t127.5 66.5t165 25q99 0 182.5 -26.5t138.5 -71t85.5 -101t30.5 -116.5q0 -61 -30 -116.5t-81 -100t-117 -88t-138.5 -87t-145.5 -89t-138.5 -100.5t-116.5 -117t-80.5 -143t-29.5 -173q0 -15 15 -15h811q14 0 14 15v115q0 6 8 6t8 -6
v-236h-878z" />
    <glyph glyph-name="three" unicode="3" horiz-adv-x="1214" 
d="M596 842q-39 0 -54.5 23t1.5 46t57 23q91 0 195 -33q68 36 95.5 102.5t27.5 163.5q0 39 -8.5 75.5t-30.5 73t-55 63.5t-86 44t-120 17q-51 0 -95 -11.5t-75.5 -31.5t-56 -47t-38.5 -57t-21 -62.5t-7 -63.5t7 -59q12 -49 -24 -70q-31 -18 -60 4q-27 21 -27 66
q0 61 22 119.5t67 110.5t125 84t183 32q96 0 176 -28t128.5 -72t75 -93t26.5 -94q0 -78 -54 -153.5t-147 -120.5q146 -56 238 -171t92 -273q0 -61 -22.5 -127.5t-69 -131t-109.5 -116t-153.5 -83.5t-192.5 -32q-123 0 -223.5 40.5t-160.5 105.5t-88 145.5t-17 161.5
q7 58 48 72q33 12 53 -14q18 -22 7 -60q-14 -40 -10.5 -88.5t15.5 -97t44.5 -94t75.5 -80.5t109.5 -56t146.5 -21q92 0 166.5 29.5t122.5 76.5t80 110t45.5 127t13.5 130q0 133 -62.5 256t-176.5 177q-92 -37 -199 -37z" />
    <glyph glyph-name="four" unicode="4" horiz-adv-x="942" 
d="M827 0h-311q-6 0 -6 7t6 7h94q11 0 11 11v389q0 14 -15 14h-467q-72 3 -45 74q103 266 304.5 543.5t342.5 375.5q25 19 54 19q52 -6 49 -54q-3 -38 -53 -59q-125 -64 -211 -134t-170 -173q-199 -246 -304 -526q-24 -52 33 -52h467q5 0 10 4t5 11v202l-11 355q0 14 15 14
h100q14 0 14 -14l-12 -357v-200q0 -15 14 -15h144q6 0 6 -7t-6 -7h-144q-6 0 -10 -4.5t-4 -9.5v-389q0 -11 10 -11h90q5 0 7 -3.5t0.5 -7t-7.5 -3.5z" />
    <glyph glyph-name="five" unicode="5" horiz-adv-x="1161" 
d="M535 1006q-65 -2 -144 -29t-141 -78v-16q0 -65 -33 -82q-22 -11 -35 11q-6 11 -6 28q0 33 49 63l11 6v494q0 18 16 18h647q14 0 14 15v75q0 5 3.5 7t7.5 0t4 -7v-180q0 -16 -19 -16h-659v-397q133 97 285 102h14q158 0 289 -60.5t211.5 -178.5t80.5 -273t-75 -280.5
t-206 -196t-290 -70.5q-97 0 -181 25.5t-142.5 68.5t-99.5 97t-59 112t-14 113q4 61 43 80q32 15 52 -12q17 -25 10 -68q-10 -40 -3.5 -85.5t20.5 -90t47 -85.5t76 -72.5t108 -50t143 -18.5q102 0 188.5 42t145 114t91 168.5t32.5 204.5q0 224 -127.5 363t-339.5 139h-14z
" />
    <glyph glyph-name="six" unicode="6" horiz-adv-x="1320" 
d="M205 762v-14q61 120 185 195t257 81q159 6 287.5 -54.5t202 -180t69.5 -275.5q-6 -233 -171 -388.5t-404 -158.5q-119 2 -218.5 44.5t-176 126.5t-117.5 224.5t-37 323.5l2 39q4 180 54.5 321.5t134.5 228t188 131t221 44.5h10q103 0 186 -28t134 -74.5t77.5 -101.5
t24.5 -113q-1 -44 -28 -64.5t-52.5 -3t-23.5 67.5q7 146 -80.5 223.5t-243.5 79.5h-4q-98 1 -180.5 -38.5t-148 -119t-105 -211.5t-43.5 -305zM643 1008q-133 -6 -257 -87t-181 -202l-2 -33l-2 -154q-1 -145 52.5 -270t153 -201.5t224.5 -78.5q133 2 238.5 74t162.5 191
t60 263q6 226 -117 366.5t-332 131.5z" />
    <glyph glyph-name="seven" unicode="7" horiz-adv-x="1009" 
d="M477 25q9 -41 -14.5 -66.5t-54.5 -16t-39 53.5q-17 89 -10.5 166t32 155.5t63.5 147t84 141t93.5 137t92 136t79 137t55.5 139.5t21 145q0 15 -15 15h-780q-14 0 -14 -15v-118q0 -6 -7.5 -6t-7.5 6v239h840v-106q0 -93 -24 -181t-62.5 -155t-86 -139t-93.5 -133.5
t-86.5 -138t-64.5 -153t-27 -178t26 -212.5z" />
    <glyph glyph-name="eight" unicode="8" horiz-adv-x="1169" 
d="M586 -41q-122 0 -225 43.5t-166.5 112.5t-98.5 148t-35 155q0 93 37 175.5t99.5 141t142 97.5t166.5 51q-132 21 -204.5 102.5t-72.5 181.5q0 47 20.5 95t61 92t112.5 72t163 28h2q90 -1 162 -29.5t113.5 -72.5t63 -91.5t21.5 -93.5q0 -99 -75.5 -181t-210.5 -103
q118 -17 218 -77t164 -162.5t64 -225.5q0 -76 -35 -155t-98.5 -148t-165.5 -112.5t-223 -43.5zM561 879q-117 -5 -204.5 -69t-132 -166.5t-44.5 -227.5q0 -82 22 -157t67.5 -141t127 -105.5t189.5 -39.5t189 39.5t126 105.5t66.5 141t21.5 157q0 125 -45 227.5t-133 166.5
t-205 69h-45zM342 1167q0 -129 56 -202t169 -76h35q115 3 174.5 76t59.5 202q0 49 -11.5 93.5t-38 87t-77.5 68t-121 26.5h-4q-71 -1 -121 -26t-75 -67.5t-35.5 -86.5t-10.5 -95z" />
    <glyph glyph-name="nine" unicode="9" horiz-adv-x="1282" 
d="M643 414q-150 -6 -273 52t-195.5 172.5t-72.5 264.5q0 154 70.5 279.5t192.5 196.5t270 71q95 0 177.5 -24t154.5 -77t123 -133t80.5 -198.5t29.5 -265.5v-4q0 -180 -48 -330t-129 -247.5t-185.5 -150.5t-219.5 -53h-10q-103 0 -186 26t-133.5 69.5t-77.5 96.5t-27 111
q0 55 39 71q33 14 55 -12q15 -17 15 -44q0 -148 83.5 -225.5t237.5 -79.5h4q103 -1 192 47t156 138t105.5 230t38.5 314v22q0 11 -1 50t-1 55q-28 -166 -163 -291t-302 -131zM647 426q86 4 165 47t135 110t90.5 152t35.5 170v21q0 223 -119 367.5t-319 144.5
q-94 0 -173 -42.5t-132.5 -115t-83 -169.5t-29.5 -204q0 -142 52 -253t150.5 -172.5t227.5 -55.5z" />
    <glyph glyph-name="colon" unicode=":" horiz-adv-x="428" 
d="M141 676q0 32 22 54t54 22t54 -22t22 -54t-22 -54t-54 -22t-54 22t-22 54zM141 252q0 32 22 54t54 22t54 -22t22 -54t-22 -54t-54 -22t-54 22t-22 54z" />
    <glyph glyph-name="semicolon" unicode=";" horiz-adv-x="428" 
d="M158 -258q-9 -9 -13 -5t5 13q45 65 58.5 121t-15.5 88q-23 8 -37.5 27.5t-14.5 44.5q0 32 22 53.5t54 21.5t54 -21.5t22 -53.5v-6q0 -115 -135 -283zM141 676q0 32 22 54t54 22t54 -22t22 -54t-22 -54t-54 -22t-54 22t-22 54z" />
    <glyph glyph-name="less" unicode="&#x3c;" horiz-adv-x="1087" 
d="M258 662q0 -45 57 -87l541 -360q32 -25 28.5 -54.5t-31 -35t-62.5 17.5l-484 422q-61 49 -61 97q0 47 61 96l484 422q40 33 74 11q27 -18 18 -49q-6 -19 -27 -34l-541 -360q-57 -42 -57 -86z" />
    <glyph glyph-name="equal" unicode="=" horiz-adv-x="1456" 
d="M520 776l-293 -37q-22 0 -31.5 21t-0.5 42t32 21l293 -37h416l293 37q26 0 36.5 -21t-0.5 -42t-36 -21l-293 37h-416zM520 530l-293 -36q-25 0 -35.5 21t0 42t35.5 21l293 -37h416l293 37q26 0 36.5 -21t-0.5 -42t-36 -21l-293 36h-416z" />
    <glyph glyph-name="greater" unicode="&#x3e;" horiz-adv-x="1087" 
d="M842 662q0 -47 -62 -97l-483 -422q-32 -26 -62.5 -17.5t-32 35t28.5 54.5l541 360q57 42 57 87q0 44 -57 86l-541 360q-38 26 -26 60q10 29 42 30q25 2 50 -18l483 -422q62 -50 62 -96z" />
    <glyph glyph-name="question" unicode="?" horiz-adv-x="1132" 
d="M516 401v-192q0 -4 -3 -6t-6 -0.5t-3 6.5v186q0 87 17.5 157.5t46 118t63 89t68.5 81t62.5 82.5t46 104.5t17.5 137.5q0 57 -16.5 106.5t-50 91t-91.5 65.5t-135 24q-63 0 -114 -17t-83.5 -46.5t-56.5 -68t-32 -80.5t-10 -86t8 -83q11 -55 -24 -75q-29 -17 -58 10
q-22 20 -27 59q-9 71 13 141t70 128t130.5 94t183.5 36q197 0 300.5 -87t103.5 -220q0 -69 -23 -126t-60 -98.5t-82 -80t-90 -81t-82 -91t-60 -120t-23 -159.5zM434 43q0 32 22 54t54 22t54 -22t22 -54t-22 -54t-54 -22t-54 22t-22 54z" />
    <glyph glyph-name="at" unicode="@" horiz-adv-x="1792" 
d="M1065 1128h109v-524q0 -114 53 -178t131 -64q69 0 123.5 33.5t85.5 89t47 119.5t16 131q0 146 -48.5 266t-124.5 196.5t-174.5 128.5t-193.5 73.5t-186 21.5q-150 0 -285.5 -57.5t-233 -155.5t-155 -234t-57.5 -286q0 -148 58 -284t156 -234t233.5 -156.5t283.5 -58.5
q139 0 265 50t225 140l12 -14q-102 -91 -231 -141.5t-271 -50.5q-153 0 -291.5 59.5t-238.5 159.5t-159.5 238.5t-59.5 291.5t58 291.5t157 239t238.5 160t295.5 59.5q80 0 163 -17t167.5 -51.5t158.5 -92.5t132 -133.5t91.5 -180.5t33.5 -228q0 -71 -17.5 -138
t-51.5 -124.5t-91.5 -92t-130.5 -34.5q-129 0 -211 89.5t-82 205.5v104q-20 -100 -58 -186.5t-101 -148.5t-136 -62q-49 0 -92.5 14.5t-83 48t-63 97t-23.5 151.5v35q0 128 64.5 224t164 142.5t215.5 45.5l113 -2v24zM618 696v-34q0 -75 9 -131.5t23 -88t34.5 -50.5
t39 -24.5t40.5 -5.5h6q58 0 110 40t88 104.5t61 138.5t36 150v297h-107q-155 0 -247.5 -108t-92.5 -288z" />
    <glyph glyph-name="A" unicode="A" horiz-adv-x="1331" 
d="M528 1405q-8 0 -8 8t8 8h215l527 -1405h110q6 0 8.5 -4t0.5 -8t-9 -4h-342q-8 0 -8 8t8 8h115l-215 574h-596l-209 -574h109q7 0 9.5 -4t0 -8t-9.5 -4h-236q-9 0 -9 8t9 8h109l215 590l291 799h-93zM635 1397l-287 -791h584z" />
    <glyph glyph-name="B" unicode="B" horiz-adv-x="1210" 
d="M84 0q-7 0 -9.5 4t0 8t9.5 4h96q5 0 10 4t5 11v1360q0 14 -15 14h-96q-5 0 -7 4t-0.5 8t7.5 4h508q81 -1 158 -20t144 -56.5t107.5 -101.5t40.5 -145q0 -83 -56.5 -154t-140.5 -113t-179 -55l-9 -6q90 2 176.5 -22.5t157.5 -70t114.5 -119.5t43.5 -163q0 -77 -29 -142.5
t-78.5 -111t-115.5 -78t-139 -48t-150 -15.5h-553zM586 764h-260q-15 0 -15 -14v-719q0 -15 15 -15h311q82 0 150 21.5t122 65.5t84.5 118.5t30.5 173.5q0 106 -32 180t-93 114.5t-136.5 57.5t-176.5 17zM926 1098q0 84 -28.5 145.5t-78 95.5t-107.5 50t-126 16h-260
q-15 0 -15 -14v-596q0 -15 15 -15h239q361 0 361 318z" />
    <glyph glyph-name="C" unicode="C" horiz-adv-x="1245" 
d="M705 -33h-3q-131 0 -242 46t-196.5 137t-133.5 238t-48 337q0 143 34.5 263t94.5 204t141.5 143t175 87t195.5 28q123 0 226 -40t161.5 -108t56.5 -147q-2 -68 -47 -87q-36 -15 -63 12.5t-17 78.5q10 52 -6 101t-54.5 87.5t-104.5 62t-148 24.5h-4q-110 1 -201.5 -39.5
t-163 -123t-111.5 -222t-40 -324.5q0 -161 25 -287.5t68.5 -211t107 -140t136 -79.5t158.5 -25h3q86 0 158 27t116 70.5t64.5 97.5t11.5 108q-9 57 30 81q34 21 66 -2t31 -75q-2 -122 -145 -222t-332 -100z" />
    <glyph glyph-name="D" unicode="D" horiz-adv-x="1261" 
d="M82 1405q-6 0 -6 8t6 8h453q94 0 185 -24t177 -78.5t150.5 -133t103.5 -195.5t39 -259t-34 -262.5t-93 -205.5t-138.5 -145t-171 -88.5t-190.5 -29.5h-481q-6 0 -7.5 4t0.5 8t7 4h90q21 0 21 21v1347q0 21 -21 21h-90zM535 1405h-205q-21 0 -21 -21v-1347q0 -21 21 -21
h227q85 1 160 26.5t139.5 81.5t110.5 138t72 201.5t26 267.5q0 146 -30 263t-80 193t-119.5 126.5t-144 71.5t-156.5 20z" />
    <glyph glyph-name="E" unicode="E" horiz-adv-x="1122" 
d="M635 811h-313q-15 0 -15 -14v-766q0 -15 15 -15h546q60 0 113 64.5t53 142.5v33h17v-256h-971q-6 0 -6 8t6 8h96q14 0 14 15v1360q0 14 -14 14h-96q-8 0 -8 8t8 8h887v-239h-17v32q0 81 -50.5 136t-147.5 55h-430q-15 0 -15 -14v-549q0 -15 15 -15h313q65 0 111.5 36
t46.5 98v6h16v-295h-16v14q0 60 -46.5 92.5t-111.5 32.5z" />
    <glyph glyph-name="F" unicode="F" horiz-adv-x="1001" 
d="M311 797v-768q0 -15 15 -15h100q6 0 6 -7t-6 -7h-342q-5 0 -7 3.5t0 7t7 3.5h96q5 0 10 4t5 11v1362q0 14 -15 14h-96q-7 0 -9.5 4t0 8t9.5 4h860v-239h-16v28q0 80 -53.5 137.5t-145.5 57.5h-403q-15 0 -15 -14v-549q0 -15 15 -15h284q65 0 110.5 34.5t45.5 96.5v9h16
v-299h-16v6q0 61 -46 99t-110 38h-284q-15 0 -15 -14z" />
    <glyph glyph-name="G" unicode="G" horiz-adv-x="1372" 
d="M678 1438q-101 1 -184 -39t-148.5 -123t-102 -223.5t-36.5 -327.5q0 -369 128 -556t337 -187q63 0 118.5 14t106.5 46t87.5 80.5t58.5 122.5t22 167v198h-113q-9 0 -9 8.5t9 8.5h326q7 0 9.5 -4.5t0 -8.5t-9.5 -4h-92v-610q0 -7 -4 -9.5t-8.5 0t-4.5 9.5v160q0 30 -16 35
t-35 -21q-143 -205 -446 -205q-124 0 -230 48t-187 140t-127 238t-46 330q0 182 49 324t133 228t189 129.5t225 43.5h2q96 0 177.5 -23t136.5 -60t94 -84t57 -95.5t18 -93.5q0 -55 -42 -74q-36 -16 -63 8q-26 24 -16 70q13 65 -0.5 124.5t-54 109t-120 78.5t-189.5 28z" />
    <glyph glyph-name="H" unicode="H" horiz-adv-x="1312" 
d="M80 0q-8 0 -8 8t8 8h92q14 0 14 15v1360q0 14 -14 14h-92q-8 0 -8 8t8 8h330q6 0 6 -8t-6 -8h-93q-14 0 -14 -14v-578q0 -14 14 -14h682q15 0 15 14v578q0 14 -15 14h-94q-7 0 -7 8t7 8h330q6 0 6 -8t-6 -8h-90q-15 0 -15 -14v-1360q0 -15 15 -15h90q6 0 6 -8t-6 -8h-330
q-7 0 -7 8t7 8h94q15 0 15 15v737q0 14 -15 14h-682q-14 0 -14 -14v-737q0 -15 14 -15h93q6 0 6 -8t-6 -8h-330z" />
    <glyph glyph-name="I" unicode="I" horiz-adv-x="495" 
d="M416 0h-334q-9 0 -9 8t9 8h96q15 0 15 15v1360q0 14 -15 14h-88q-8 0 -8 8t8 8h324q6 0 6 -8t-6 -8h-92q-15 0 -15 -14v-1360q0 -15 15 -15h94q8 0 8 -8t-8 -8z" />
    <glyph glyph-name="J" unicode="J" horiz-adv-x="983" 
d="M702 1405h-84q-8 0 -8 8t8 8h310q6 0 7.5 -4t-0.5 -8t-7 -4h-80q-14 0 -14 -14v-1029q0 -74 -30.5 -143t-84.5 -122t-134.5 -85t-174.5 -32q-178 0 -297.5 106.5t-104.5 249.5q6 61 52 77q39 12 66 -16q25 -25 17 -69q-7 -48 -4 -95.5t24 -90.5t53 -76t82.5 -52.5
t111.5 -19.5q66 0 119 21t87.5 56.5t57.5 84t33 101t10 110.5v1024q0 14 -15 14z" />
    <glyph glyph-name="K" unicode="K" horiz-adv-x="1220" 
d="M1233 0h-338q-7 0 -7 8t7 8h98q6 0 8 3.5t-2 9.5l-546 766l-142 -156v-608q0 -15 15 -15h94q8 0 8 -8t-8 -8h-334q-7 0 -9.5 4t0 8t9.5 4h96q15 0 15 15v1360q0 14 -15 14h-100q-9 0 -9 8t9 8h346q6 0 7.5 -4t-0.5 -8t-7 -4h-102q-15 0 -15 -14v-721l676 725q5 6 4 8
t-8 2h-94q-9 0 -9 8t9 8h244q6 0 7.5 -4t-0.5 -8t-7 -4h-99q-17 0 -24 -10l-473 -512l620 -854q10 -13 23 -13h53q9 0 9 -8t-9 -8z" />
    <glyph glyph-name="L" unicode="L" horiz-adv-x="1075" 
d="M420 1405h-92q-21 0 -21 -21v-1347q0 -21 21 -21h420q114 3 181.5 79.5t67.5 209.5v98h17v-403h-934q-8 0 -8 8t8 8h90q20 0 20 21v1347q0 21 -20 21h-90q-8 0 -8 8t8 8h340q9 0 9 -8t-9 -8z" />
    <glyph glyph-name="M" unicode="M" horiz-adv-x="1605" 
d="M55 1405q-9 0 -9 8t9 8h240l518 -1282l516 1282h217q8 0 8 -8t-8 -8h-73q-21 0 -21 -21v-1347q0 -21 21 -21h71q8 0 8 -8t-8 -8h-303q-7 0 -7 8t7 8h74q20 0 20 21v1358l-565 -1403h-16l-570 1413h-2v-1368q0 -21 21 -21h92q9 0 9 -8t-9 -8h-236q-9 0 -9 8t9 8h86
q21 0 21 21v1368h-111z" />
    <glyph glyph-name="N" unicode="N" horiz-adv-x="1286" 
d="M174 1405h-113q-9 0 -9 8t9 8h242l797 -1226v1189q0 21 -21 21h-90q-7 0 -9.5 4t0 8t9.5 4h236q9 0 9 -8t-9 -8h-88q-21 0 -21 -21v-1396h-16l-910 1415v-1366q0 -21 21 -21h90q7 0 7 -8t-7 -8h-235q-8 0 -8 8t8 8h88q20 0 20 21v1368z" />
    <glyph glyph-name="O" unicode="O" horiz-adv-x="1409" 
d="M702 -33q-131 0 -242.5 47t-196.5 138.5t-133 238t-48 334.5q0 145 34 265.5t93 204.5t139.5 142t172 85.5t192.5 27.5h2q98 -2 187.5 -31t167 -88t134.5 -143t90 -202.5t33 -260.5q0 -188 -48 -334.5t-133 -238t-196.5 -138.5t-242.5 -47h-5zM707 -18q86 1 159 26
t135.5 81t106.5 141t69 210.5t25 284.5q0 147 -25 265.5t-68.5 199.5t-105 136.5t-133 81.5t-153.5 28h-25q-104 -3 -190 -44.5t-153 -124.5t-104.5 -221t-37.5 -321q0 -159 25 -284.5t69 -210.5t106.5 -141t135.5 -81t159 -26h5z" />
    <glyph glyph-name="P" unicode="P" horiz-adv-x="1073" 
d="M82 0q-5 0 -7 4t-0.5 8t7.5 4h90q21 0 21 21v1347q0 21 -21 21h-90q-9 0 -9 8t9 8h493q71 0 140 -13.5t134 -43.5t114.5 -73t79.5 -108t30 -143q0 -79 -28 -146t-76 -114.5t-111.5 -81t-134.5 -49.5t-145 -16h-269v-596q0 -21 21 -21h94q6 0 6 -8t-6 -8h-342zM952 1040
q0 99 -31.5 172.5t-86.5 114t-119.5 59.5t-139.5 19h-245q-21 0 -21 -21v-735h269q79 1 145 23.5t118.5 67.5t81.5 122t29 178z" />
    <glyph glyph-name="Q" unicode="Q" horiz-adv-x="1409" 
d="M1327 721q0 -344 -168 -550t-502 -302q61 -17 133 -62t123.5 -87.5t101 -73t75.5 -25.5q14 2 34 12q9 5 10 -1q-1 -4 -6 -9q-34 -27 -63 -33q-67 -16 -120.5 1.5t-91.5 56t-70.5 80.5t-74.5 80.5t-87 50.5q-88 -27 -119 -31q-58 -10 -83 20q-20 24 2 46q18 18 60 20
q32 1 83.5 -11.5t72.5 -23.5q217 63 364 170l-4 6q-144 -82 -290 -82h-5q-131 0 -242.5 46.5t-196.5 136.5t-133 235t-48 330q0 179 50.5 321.5t136.5 231.5t194.5 135.5t230.5 46.5h2q101 0 192.5 -28t172 -87t139.5 -144t93 -207t34 -269zM707 -12q108 1 195.5 41.5
t156 125t106 228.5t37.5 338q0 153 -26 276t-71.5 205.5t-110 137t-138.5 79t-160 23.5h-4q-103 0 -188.5 -41.5t-153 -126t-105.5 -226t-38 -327.5q0 -194 37.5 -338t106 -228.5t156 -125t195.5 -41.5h5z" />
    <glyph glyph-name="R" unicode="R" horiz-adv-x="1181" 
d="M82 0q-5 0 -7 4t-0.5 8t7.5 4h90q21 0 21 21v1370h-111q-9 0 -9 8t9 8h471q82 0 160 -19t146 -57t109.5 -102.5t41.5 -146.5q0 -78 -35 -142.5t-94 -106t-132.5 -66t-154.5 -29.5q187 -59 336 -332q15 -33 38.5 -86.5t38.5 -87t34.5 -76.5t33.5 -69.5t28.5 -52
t25.5 -37.5t20 -13q14 -2 37 10q6 3 6 -2.5t-8 -11.5q-18 -10 -37 -10q-70 0 -143 85t-185 314q-73 178 -144.5 267.5t-154.5 101.5h-211v-717q0 -21 21 -21h94q6 0 6 -8t-6 -8h-342zM553 1407h-244v-637h244q72 1 132 19.5t107.5 56.5t74 102t26.5 150q0 84 -28.5 146
t-78 96.5t-107.5 50.5t-126 16z" />
    <glyph glyph-name="S" unicode="S" horiz-adv-x="1091" 
d="M551 1440q-166 0 -256 -82t-90 -195q0 -65 28.5 -117.5t77 -88t111 -65t131.5 -56t138.5 -54t132 -64.5t111 -83t77 -114t28.5 -152q0 -75 -36 -148.5t-98.5 -132t-158.5 -95t-206 -36.5q-98 0 -182.5 24.5t-145.5 67t-103 98.5t-60 121.5t-11 132.5q6 62 53 83
q38 17 64 -9q26 -27 10 -80q-16 -45 -13 -93.5t16.5 -95.5t47 -89.5t78 -75t109.5 -51.5t141 -19q168 0 287.5 95.5t119.5 228.5q0 80 -28.5 142.5t-76.5 104t-110 74.5t-130.5 58.5t-137.5 51.5t-131 58t-110 72.5t-76.5 101.5t-28.5 138q0 105 60 188t157 126.5t211 43.5
q105 0 191 -29.5t139.5 -77.5t81.5 -108.5t24 -124.5q-4 -63 -47 -81q-35 -15 -59 11q-24 27 -11 74q12 34 10 71.5t-11.5 73t-36 68t-62.5 56.5t-93 38.5t-126 14.5z" />
    <glyph glyph-name="T" unicode="T" horiz-adv-x="1185" 
d="M264 1405q-96 0 -146 -53.5t-50 -134.5v-39h-17v243h1084v-243h-17v41q0 79 -49.5 132.5t-144.5 53.5h-258q-21 0 -21 -21v-1347q0 -21 21 -21h63q7 0 9.5 -4t0 -8t-9.5 -4h-280q-9 0 -9 8t9 8h59q20 0 20 21v1347q0 21 -20 21h-244z" />
    <glyph glyph-name="U" unicode="U" horiz-adv-x="1292" 
d="M1133 1384v-884q0 -527 -459 -527q-89 0 -164.5 17t-142 57t-113 100.5t-73.5 153t-27 209.5v874q0 21 -21 21h-51q-5 0 -7 4t-0.5 8t7.5 4h260q8 0 8 -8t-8 -8h-51q-21 0 -21 -21v-892q0 -124 22.5 -215.5t59 -145.5t91 -86.5t108.5 -43.5t123 -11q100 0 177 25.5
t137.5 83t93 158.5t32.5 243v884q0 21 -20 21h-72q-9 0 -9 8t9 8h209q7 0 9.5 -4t0 -8t-9.5 -4h-78q-20 0 -20 -21z" />
    <glyph glyph-name="V" unicode="V" horiz-adv-x="1280" 
d="M1141 1405l-467 -1417h-47l-525 1417h-88q-6 0 -6 8t6 8h293q7 0 7 -8t-7 -8h-84l475 -1280l424 1280h-102q-9 0 -9 8t9 8h231q9 0 9 -8t-9 -8h-110z" />
    <glyph glyph-name="W" unicode="W" horiz-adv-x="1935" 
d="M1417 -12h-45l-381 1054l-332 -1054h-45l-510 1417h-98q-9 0 -9 8t9 8h287q7 0 9.5 -4t0 -8t-9.5 -4h-68l459 -1270l297 936l-119 334h-80q-8 0 -8 8t8 8h277q7 0 7 -8t-7 -8h-76l459 -1270l403 1270h-104q-6 0 -8.5 4t-0.5 8t9 4h231q9 0 9 -8t-9 -8h-108z" />
    <glyph glyph-name="X" unicode="X" horiz-adv-x="1171" 
d="M141 16l408 670l-434 719h-105q-8 0 -8 8t8 8h336q8 0 8 -8t-8 -8h-94l366 -602l367 602h-117q-5 0 -7 4t-0.5 8t7.5 4h262q6 0 6 -8t-6 -8h-124l-375 -621l469 -768h71q7 0 7 -8t-7 -8h-305q-6 0 -6 8t6 8h88l-395 652l-393 -652h115q7 0 7 -8t-7 -8h-258q-7 0 -7 8t7 8
h118z" />
    <glyph glyph-name="Y" unicode="Y" horiz-adv-x="1120" 
d="M553 37v612l-434 756h-109q-6 0 -6 8t6 8h326q8 0 8 -8t-8 -8h-96l417 -715l410 715h-113q-5 0 -7 4t-0.5 8t7.5 4h263q6 0 6 -8t-6 -8h-130l-419 -731v-637q0 -21 20 -21h64q8 0 8 -8t-8 -8h-285q-7 0 -7 8t7 8h65q21 0 21 21z" />
    <glyph glyph-name="Z" unicode="Z" horiz-adv-x="1171" 
d="M57 0l912 1403h-615q-196 0 -196 -207v-90h-17v313h963l-914 -1403h641q111 0 169.5 74.5t58.5 202.5v39h16v-332h-1018z" />
    <glyph glyph-name="bracketleft" unicode="[" horiz-adv-x="395" 
d="M219 -340q0 -8 6 -8h82q5 0 5 -6t-5 -6h-186q-6 0 -6 6l8 946l-10 876q0 7 6 7h188q5 0 5 -6.5t-5 -6.5h-82q-6 0 -6 -8l-10 -862z" />
    <glyph glyph-name="backslash" unicode="\" horiz-adv-x="876" 
d="M698 -49l-536 1528q-3 7 3 8t9 -6l537 -1528q3 -10 -4 -10q-6 0 -9 8z" />
    <glyph glyph-name="bracketright" unicode="]" horiz-adv-x="395" 
d="M238 -340l10 932l-10 862q0 8 -7 8h-81q-4 0 -4 6.5t4 6.5h188q6 0 6 -7l-10 -876l8 -946q0 -6 -6 -6h-186q-4 0 -4 6t4 6h81q7 0 7 8z" />
    <glyph glyph-name="asciicircum" unicode="^" horiz-adv-x="1470" 
d="M735 1081q-44 3 -86 -57l-360 -635q-19 -34 -52 -34t-44.5 25.5t8.5 59.5l438 596q50 62 96 62t96 -62l443 -596q28 -39 0 -68q-24 -25 -57 -13q-22 8 -35 32l-361 633q-42 60 -86 57z" />
    <glyph glyph-name="underscore" unicode="_" horiz-adv-x="1024" 
d="M129 -55v14h735v-14h-735z" />
    <glyph glyph-name="grave" unicode="`" horiz-adv-x="520" 
d="M274 1315l56 -129h-6l-115 102q-27 24 -27 49q0 10 7.5 19t21.5 10q40 4 63 -51z" />
    <glyph glyph-name="a" unicode="a" horiz-adv-x="948" 
d="M702 463q-29 -208 -134.5 -340.5t-260.5 -132.5q-121 0 -183.5 55.5t-62.5 159.5q0 52 20.5 92.5t50.5 65t82.5 47.5t96.5 35.5t114 32t114 34.5q55 19 89.5 42.5t50.5 55.5t21 61t5 74q0 88 -50 143.5t-163 55.5q-69 0 -122.5 -25t-80.5 -64t-36 -86.5t11 -92.5
q17 -49 -17 -76q-30 -25 -63 -7q-35 21 -39 79q-8 118 89 201t258 83q160 0 238.5 -64.5t78.5 -168.5v-631q0 -29 16 -51.5t47 -22.5q27 0 43.5 18t16.5 46q0 6 6 6t6 -6q0 -90 -115 -90q-61 0 -94 40.5t-33 110.5v320zM326 14q83 0 152.5 46t114.5 122.5t72.5 167
t36.5 187.5v94q-12 -44 -44.5 -71t-108.5 -58q-26 -10 -76.5 -25.5t-85 -26.5t-77.5 -32.5t-69 -47t-44.5 -66.5t-18.5 -93v-18q0 -81 38.5 -130t109.5 -49z" />
    <glyph glyph-name="b" unicode="b" horiz-adv-x="1101" 
d="M14 1468q-5 0 -7 3t0 6.5t7 3.5h262q6 0 7.5 -3.5t-0.5 -6.5t-7 -3h-30v-739q49 110 144 168.5t198 58.5q92 0 171.5 -28.5t141.5 -84t97.5 -145t35.5 -202.5v-23q0 -135 -51 -242.5t-155 -173t-246 -65.5q-140 0 -243.5 60t-152.5 175q-8 21 -21 18t-13 -30v-215h-13
v1415q0 47 -41 53h-84zM588 944q-114 0 -207.5 -68.5t-134.5 -185.5v-231q0 -455 336 -455q115 0 193 62t112.5 165t34.5 242v23q0 119 -27.5 208t-75.5 140t-106 75.5t-125 24.5z" />
    <glyph glyph-name="c" unicode="c" horiz-adv-x="940" 
d="M535 946h-15q-147 0 -242.5 -117.5t-95.5 -343.5v-22q0 -106 17 -187.5t54.5 -145t103 -97t157.5 -33.5q97 0 165 47t90.5 111.5t2.5 124.5q-14 42 17 63q28 19 56 0q24 -17 27 -57q9 -113 -101 -206t-257 -93q-112 1 -198.5 37t-140 100t-80.5 149t-27 187v22
q0 112 40 204t105.5 149t145 87.5t161.5 30.5h15q158 0 252.5 -69t82.5 -180q-6 -59 -49 -69q-32 -8 -52 17q-16 21 -5 50q36 91 -27.5 166t-201.5 75z" />
    <glyph glyph-name="d" unicode="d" horiz-adv-x="1015" 
d="M766 442q-24 -88 -60 -165t-84 -142.5t-112 -104t-135 -38.5q-59 0 -110 19t-97 62t-73 125.5t-27 196.5v43q0 121 44.5 221t119.5 163.5t170.5 98t199.5 33.5l164 -2v467q0 46 -41 49h-107q-5 0 -7 3t0 6.5t7 3.5h285q5 0 7 -3.5t0.5 -6.5t-7.5 -3h-31v-1376
q0 -28 16.5 -51t47.5 -23q27 0 43 18t16 46q0 6 6.5 6t6.5 -6q0 -90 -115 -90q-61 0 -94 40.5t-33 110.5v299zM176 440v-41q0 -395 191 -395h8q75 0 141.5 44t114 117.5t81.5 158t54 176.5v442h-156q-198 0 -316 -137t-118 -365z" />
    <glyph glyph-name="e" unicode="e" horiz-adv-x="946" 
d="M496 2q47 0 90.5 12.5t75.5 34t58 49.5t38.5 59t17.5 63.5t-6 62.5q-14 46 19 65q29 17 56 -3q25 -19 25 -58q0 -74 -52 -143t-139 -111.5t-183 -42.5q-109 1 -192.5 37t-134 100.5t-76 150t-25.5 189.5q0 132 58 243t168.5 179.5t250.5 68.5q142 0 231.5 -66t89.5 -179
q0 -86 -70 -148t-169 -90q-193 -50 -252 -73q-171 -64 -182 -161q-2 -15 0 -32q43 -106 109.5 -156.5t193.5 -50.5zM760 725q0 99 -55.5 159t-178.5 60q-89 0 -155.5 -34t-106.5 -95.5t-61 -138.5t-25 -172q-3 -124 6 -242q7 33 31 61t52 46.5t75.5 36.5t82.5 28t93 26
t88 25q154 47 154 240z" />
    <glyph glyph-name="f" unicode="f" horiz-adv-x="509" 
d="M59 6q0 6 7 6h84q14 0 14 15v878q0 15 -14 15h-103q-6 0 -6 6t6 6h103q14 0 14 14v66q0 233 138 366.5t355 108.5q68 -7 75 -47q6 -29 -24 -48q-25 -16 -57 -6q-57 18 -104 27t-83 10t-64.5 -5.5t-48.5 -19.5t-34.5 -32.5t-23 -44t-14 -54t-7 -63.5t-2.5 -71.5t0 -77.5
v-43v-66q0 -14 15 -14h143q5 0 7 -3t0 -6t-7 -3h-143q-15 0 -15 -15v-878q0 -15 15 -15h84q8 0 8 -6t-8 -6h-303q-7 0 -7 6z" />
    <glyph glyph-name="g" unicode="g" horiz-adv-x="1019" 
d="M530 956q151 0 258 -61q-22 52 -8.5 101t45.5 85.5t80 55.5t96 12q53 -9 58 -48q3 -32 -24 -51q-19 -13 -42 -6q-53 15 -98 5t-75 -38t-29 -61q0 -33 14 -65q153 -98 153 -289v-18q0 -164 -113.5 -270.5t-316.5 -106.5q-165 0 -274 73q-40 -8 -70 -32.5t-44 -56
t-12 -66.5t18.5 -64t53 -48t87.5 -19h465q126 0 196 -94q63 -84 45 -194q-19 -123 -131 -197q-110 -72 -282 -72h-101q-266 0 -378 126q-76 85 -56 191q18 93 96 145q16 10 33 17q-60 29 -85 88t-14 118t55 108t110 59q-142 106 -142 295v18q0 117 61 200.5t157 121.5
t214 38zM530 946q-63 0 -118.5 -19.5t-101.5 -59t-72.5 -109.5t-26.5 -162v-18q0 -167 78.5 -267t238.5 -100t239 100t79 267v18q0 92 -26 162t-71.5 109.5t-100.5 59t-118 19.5zM289 -115q-45 0 -86 13q-29 -19 -50 -53.5t-29 -76.5t-4.5 -87t28 -87.5t64.5 -76t109 -54
t158 -20.5h101q94 0 167.5 21.5t116.5 58t64.5 79.5t21.5 89q0 79 -54.5 136.5t-143.5 57.5h-463z" />
    <glyph glyph-name="h" unicode="h" horiz-adv-x="1021" 
d="M8 1475q0 6 6 6h262q7 0 7 -6q0 -7 -7 -7h-30v-788q44 120 131 197t203 77q146 0 224.5 -67.5t78.5 -163.5v-631q0 -29 16 -51.5t47 -22.5q27 0 43.5 18t16.5 46q0 6 6 6t6 -6q0 -90 -115 -90q-61 0 -94 40.5t-33 110.5v568q0 65 -24 118t-79 85.5t-132 23.5
q-103 -12 -180.5 -93t-114.5 -202v-610q0 -21 20 -21h45q5 0 7 -3t0 -6t-7 -3h-241q-6 0 -6 6t6 6h49q20 0 20 21v1382q0 47 -41 53h-84q-6 0 -6 7z" />
    <glyph glyph-name="i" unicode="i" horiz-adv-x="376" 
d="M125 866q0 48 -41 54h-61q-7 0 -7 6t7 6h239q6 0 6 -6t-6 -6h-31v-828q0 -28 16.5 -51t47.5 -23q27 0 43 18t16 46q0 6 6.5 6t6.5 -6q0 -90 -115 -90q-61 0 -94 40.5t-33 110.5v723zM106 1323q0 31 19.5 50.5t50.5 19.5t50.5 -19.5t19.5 -50.5t-19.5 -50.5t-50.5 -19.5
t-50.5 19.5t-19.5 50.5z" />
    <glyph glyph-name="j" unicode="j" horiz-adv-x="393" 
d="M264 43q0 -272 -118.5 -419.5t-323.5 -147.5q-76 0 -93 44q-13 32 12 55q23 21 58 11q90 -27 154.5 -30.5t103 14t62 52.5t31 84.5t10 110.5t-0.5 131q-1 62 -1 95v823q0 22 -10.5 38t-28.5 16h-64q-6 0 -6 6t6 6h240q6 0 6 -6t-6 -6h-31v-877zM135 1323q0 31 19.5 50.5
t50.5 19.5t50 -19.5t19 -50.5t-19 -50.5t-50 -19.5t-50.5 19.5t-19.5 50.5z" />
    <glyph glyph-name="k" unicode="k" horiz-adv-x="919" 
d="M8 1475q0 6 6 6h262q7 0 7 -6q0 -7 -7 -7h-30v-1435q0 -21 20 -21h45q5 0 7 -3t0 -6t-7 -3h-241q-6 0 -6 6t6 6h49q20 0 20 21v1382q0 44 -39 53h-86q-6 0 -6 7zM666 12h82l-476 539l334 276q34 31 18.5 62t-53.5 31h-6q-5 0 -7 3t0 6t7 3h326q5 0 7 -3t0 -6t-7 -3h-21
q-60 0 -129.5 -26t-107.5 -58l-275 -232l527 -592h65q6 0 6 -6t-6 -6h-284q-5 0 -7 3t0 6t7 3z" />
    <glyph glyph-name="l" unicode="l" horiz-adv-x="409" 
d="M135 1415q0 22 -10 37.5t-29 15.5h-86q-6 0 -6 7q0 6 6 6h262q7 0 7 -6q0 -7 -7 -7h-30v-1366q0 -35 18 -59.5t55 -24.5q30 0 50 16.5t20 47.5q0 6 6 6t6 -6q0 -44 -29.5 -67t-84.5 -23q-67 0 -107.5 40t-40.5 111v1272z" />
    <glyph glyph-name="m" unicode="m" horiz-adv-x="1675" 
d="M686 6q0 6 6 6h76q20 0 20 21v678q0 64 -25 117.5t-81 86t-133 23.5q-94 -10 -172.5 -79.5t-122.5 -172.5v-653q0 -21 20 -21h74q6 0 6 -6t-6 -6h-303q-6 0 -6 6t6 6h82q20 0 20 21v833q0 48 -41 54h-65q-6 0 -6 6t6 6h244q6 0 6 -6t-6 -6h-31v-211q50 109 137.5 177
t196.5 68q146 0 226.5 -67.5t80.5 -163.5v-14q50 109 137.5 177t196.5 68q146 0 226.5 -67.5t80.5 -163.5v-631q0 -29 16 -51.5t47 -22.5q27 0 43.5 18t16.5 46q0 6 6 6t6 -6q0 -90 -115 -90q-61 0 -93.5 40.5t-32.5 110.5v568q0 64 -25.5 117.5t-81.5 86t-133 23.5
q-94 -10 -172.5 -79.5t-122.5 -172.5v-653q0 -21 20 -21h80q6 0 6 -6t-6 -6h-303q-6 0 -6 6z" />
    <glyph glyph-name="n" unicode="n" 
d="M37 6q0 6 6 6h80q20 0 20 21v837q0 47 -41 50h-61q-6 0 -6 6t6 6h240q6 0 6 -6t-6 -6h-31v-211q50 109 137.5 177t196.5 68q146 0 226.5 -67.5t80.5 -163.5v-631q0 -29 16 -51.5t47 -22.5q27 0 43.5 18t16.5 46q0 6 6 6t6 -6q0 -90 -115 -90q-61 0 -94 40.5t-33 110.5
v568q0 64 -25 117.5t-81 86t-133 23.5q-94 -10 -172.5 -79.5t-122.5 -172.5v-653q0 -21 20 -21h76q6 0 6 -6t-6 -6h-303q-6 0 -6 6z" />
    <glyph glyph-name="o" unicode="o" 
d="M516 956q92 0 171.5 -28.5t141.5 -84t98 -145t36 -202.5v-23q0 -135 -50 -242.5t-153.5 -173t-245.5 -65.5q-141 0 -243.5 65.5t-152.5 173t-50 242.5v23q0 55 20 113t57 104q0 69 54 125.5t138.5 87t178.5 30.5zM516 944q-130 0 -204 -73.5t-50 -165.5q11 -39 -6 -63.5
t-45 -23t-47 28.5q0 -1 7 -59t7 -92v-23q0 -103 19.5 -187.5t59.5 -148t105.5 -98.5t151.5 -35q115 0 192 62t110.5 164.5t33.5 242.5v23q0 119 -27.5 208t-75.5 140t-106 75.5t-125 24.5z" />
    <glyph glyph-name="p" unicode="p" horiz-adv-x="1083" 
d="M37 926q0 6 6 6h195q10 0 10 -10v-158q51 94 137 143t184 49q92 0 171.5 -28.5t141.5 -84t98 -145t36 -202.5v-23q0 -208 -114.5 -344.5t-317.5 -136.5q-242 0 -336 196v-667q0 -21 20 -21h60q6 0 6 -6t-6 -6h-269q-6 0 -6 6t6 6h62q20 0 20 21v1349q0 47 -41 50h-57
q-6 0 -6 6zM569 944q-107 0 -192 -55.5t-129 -155.5v-510q87 -219 336 -219q160 0 239.5 127.5t79.5 341.5v23q0 119 -27.5 208t-75.5 140t-106 75.5t-125 24.5z" />
    <glyph glyph-name="q" unicode="q" horiz-adv-x="1011" 
d="M952 -506q0 -6 -6 -6h-272q-6 0 -6 6t6 6h63q21 0 21 21v893q-26 -84 -62 -156.5t-83 -133.5t-108.5 -96.5t-129.5 -35.5q-59 0 -110 19t-97 62t-73 125.5t-27 196.5v43q0 120 52.5 227t131.5 174t173.5 99.5t176.5 15.5l156 -32q0 5 2.5 7.5t5.5 2.5h2h195q6 0 6 -6
t-6 -6h-60q-39 -3 -39 -50v-1349q0 -21 21 -21h61q6 0 6 -6zM176 440v-41q0 -395 191 -395h8q57 0 110 26.5t94 70.5t76.5 104t60 124t42.5 134v448l-148 31q-119 24 -219.5 -40t-157.5 -187.5t-57 -274.5z" />
    <glyph glyph-name="r" unicode="r" horiz-adv-x="729" 
d="M35 926q0 6 6 6h244q6 0 6 -6t-6 -6h-31v-293q64 145 182.5 241.5t239.5 87.5q55 -4 67 -42q10 -31 -17 -51q-22 -15 -56 -9q-134 28 -248.5 -47t-167.5 -213v-561q0 -21 20 -21h74q6 0 6 -6t-6 -6h-303q-6 0 -6 6t6 6h82q20 0 20 21v833q0 48 -41 54h-65q-6 0 -6 6z" />
    <glyph glyph-name="s" unicode="s" horiz-adv-x="839" 
d="M422 942q-58 0 -111 -17t-94 -61.5t-41 -109.5q0 -44 33 -77t85.5 -55t116.5 -42.5t128 -45.5t116.5 -57t85.5 -84.5t33 -120.5q0 -109 -95.5 -196.5t-252.5 -87.5q-174 0 -276 89t-97 208q2 52 41 67q34 12 56 -12q19 -21 10 -59q-7 -39 -6 -78.5t21.5 -76t51.5 -64.5
t83 -45t118 -17q114 0 197.5 59.5t83.5 141.5q0 59 -32 102.5t-83.5 69t-114 47t-125.5 44t-115 51.5t-86 79t-36 117q-2 74 44 131t115.5 84.5t147.5 27.5q139 0 232 -68t89 -173q-2 -49 -41 -63q-34 -12 -57 12q-19 21 -10 57q24 93 -29.5 158t-185.5 65z" />
    <glyph glyph-name="t" unicode="t" horiz-adv-x="403" 
d="M53 926q0 6 6 6h43q35 2 60 23t37.5 53.5t18 64.5t5.5 64h13v-162q0 -35 -52 -43h234q5 0 7 -3t0 -6t-7 -3h-137q-45 0 -45 -50v-768q0 -35 18 -59.5t55 -24.5q30 0 50 16.5t20 47.5q0 6 6 6t6 -6q0 -44 -30 -67t-85 -23q-67 0 -107 40t-40 111v777h-70q-6 0 -6 6z" />
    <glyph glyph-name="u" unicode="u" horiz-adv-x="1048" 
d="M905 911v-819q0 -28 16.5 -51t47.5 -23q27 0 43 18t16 46q0 6 6 6t6 -6q0 -90 -114 -90q-61 0 -94 40.5t-33 110.5v301q-32 -128 -83.5 -227t-130.5 -163t-173 -64q-287 0 -287 303v577q0 47 -41 50h-61q-7 0 -7 6t7 6h270q6 0 6 -6t-6 -6h-62v-633q0 -75 11.5 -128.5
t28 -82.5t44 -45.5t51 -20.5t56.5 -4q70 0 132 39t108.5 107.5t81 153.5t55.5 183v422q0 21 20 21h66q20 0 20 -21z" />
    <glyph glyph-name="v" unicode="v" horiz-adv-x="983" 
d="M778 815l-299 -817q-3 -12 -16 -12h-21q-17 0 -20 12l-361 922h-114q-5 0 -7 3t0 6t7 3h348q6 0 6 -6t-6 -6h-119l324 -822l264 717q10 33 11.5 53.5t-11 32t-29 15.5t-41.5 4h-37q-6 0 -6 6t6 6h299q6 0 6 -6t-6 -6h-28q-110 0 -150 -105z" />
    <glyph glyph-name="w" unicode="w" horiz-adv-x="1486" 
d="M1270 795l-248 -797q-3 -12 -12 -12h-33q-9 0 -12 12l-250 668l-223 -664q-3 -16 -27 -16q-27 0 -33 16l-352 918h-115q-6 0 -6 6t6 6h348q5 0 7 -3t0 -6t-7 -3h-118l313 -824l201 588l-88 236h-115q-6 0 -6 6t6 6h348q6 0 6 -6t-6 -6h-119l305 -818l215 689
q19 59 -7.5 94t-76.5 35h-16q-5 0 -5 6t5 6h305q6 0 6 -6t-6 -6h-26q-55 0 -99 -30.5t-65 -94.5z" />
    <glyph glyph-name="x" unicode="x" horiz-adv-x="968" 
d="M948 0h-356q-5 0 -7 3t0 6t7 3h127l-266 424l-191 -289q-33 -46 -16.5 -90.5t73.5 -44.5h43q6 0 6 -6t-6 -6h-342q-6 0 -6 6t6 6h41q53 0 102.5 41.5t86.5 98.5l194 297l-294 471h-130q-5 0 -7 3t0 6t7 3h369q5 0 7 -3t0 -6t-7 -3h-119l236 -377l170 260q30 43 15 80
t-70 37h-48q-5 0 -7 3t0 6t7 3h342q5 0 7 -3t0 -6t-7 -3h-26q-122 0 -203 -125l-172 -265l326 -518h108q6 0 6 -6t-6 -6z" />
    <glyph glyph-name="y" unicode="y" horiz-adv-x="991" 
d="M760 758l-262 -721l-15 -39l-22 -61q-95 -259 -246 -365t-326 -35q-69 28 -74 75q-3 33 26 48q24 12 53 -4q88 -50 165.5 -60.5t135 12.5t107 74.5t83 114.5t61.5 142l23 67q-19 -13 -57 17l-351 897h-114q-6 0 -6 6t6 6h348q6 0 6 -6t-6 -6h-119l324 -832l245 666
q21 56 13.5 93t-30 55t-54.5 18h-27q-6 0 -6 6t6 6h320q6 0 6 -6t-6 -6h-19q-71 0 -117.5 -49t-70.5 -113z" />
    <glyph glyph-name="z" unicode="z" horiz-adv-x="843" 
d="M55 0l602 920h-325q-86 0 -142.5 -52t-56.5 -127v-30h-12v221h661l-604 -920h377q78 0 132 61t54 148v29h13v-250h-699z" />
    <glyph glyph-name="braceleft" unicode="{" horiz-adv-x="591" 
d="M516 -365q-181 0 -267.5 106t-86.5 288q0 84 28.5 178t57 170.5t28.5 118.5q0 24 -14.5 40.5t-40.5 16.5q-53 0 -89 -5l-36 -5q-14 0 -19.5 7.5t0 15t19.5 7.5l36 -5q36 -5 89 -5q22 0 38.5 17.5t16.5 42.5q0 43 -28.5 119t-57 168.5t-28.5 176.5q0 179 86.5 286.5
t253.5 107.5h14q6 0 6 -3t-6 -3h-14q-120 0 -190 -75.5t-70 -232.5q0 -77 23.5 -169t47 -176t23.5 -142q0 -43 -26 -81t-64 -38q-6 0 -6 -2t6 -2q39 0 64.5 -35t25.5 -78q0 -67 -52.5 -236.5t-52.5 -258.5q0 -158 76 -232.5t209 -74.5q5 0 5 -3q-1 -3 -5 -4z" />
    <glyph glyph-name="bar" unicode="|" horiz-adv-x="305" 
d="M166 -47q0 -9 -7 -9t-7 9v1526q0 9 7 9t7 -9v-1526z" />
    <glyph glyph-name="braceright" unicode="}" horiz-adv-x="591" 
d="M76 -365q-4 0 -5 3q1 3 5 4q133 0 208.5 74.5t75.5 232.5q0 89 -52 258.5t-52 236.5q0 43 25.5 78t64.5 35q6 0 6 2t-6 2q-38 0 -64 38t-26 81q0 58 23.5 142t47 176t23.5 169q0 157 -70 232.5t-190 75.5h-14q-6 0 -6 3t6 3h14q167 0 253.5 -107.5t86.5 -286.5
q0 -84 -29 -176.5t-57.5 -168.5t-28.5 -119q0 -24 17 -42t39 -18q53 0 89 5l36 5q14 0 19.5 -7.5t0 -15t-19.5 -7.5l-36 5q-36 5 -89 5q-26 0 -41 -17t-15 -40q0 -34 18 -90.5t39.5 -109.5t39.5 -127t18 -140q0 -182 -86.5 -288t-267.5 -106z" />
    <glyph glyph-name="asciitilde" unicode="~" horiz-adv-x="1110" 
d="M920 676q-6 -108 -57.5 -173t-139.5 -65q-42 0 -83 19.5t-74.5 47t-66.5 55.5t-71 47.5t-76 19.5q-65 0 -105.5 -44t-45.5 -116q0 -6 -6 -6q-7 0 -7 6q6 116 64 181t151 65q40 0 77.5 -18t68.5 -44t61.5 -52t69.5 -44t80 -18q65 0 103 37t44 104q0 6 6 6q7 0 7 -8z" />
    <glyph glyph-name="exclamdown" unicode="&#xa1;" horiz-adv-x="376" 
d="M182 760v-197q0 -143 9.5 -304.5t25 -355t21.5 -304.5v-5q0 -26 -17.5 -40.5t-44.5 -14.5t-44 14.5t-17 40.5v5q6 109 21 304t24.5 356t9.5 304v197q0 5 3 7t6 0t3 -7zM252 901q0 -32 -22 -54t-54 -22t-54 22t-22 54t22 54t54 22t54 -22t22 -54z" />
    <glyph glyph-name="cent" unicode="&#xa2;" horiz-adv-x="1067" 
d="M598 1206h-18l-2 -168v-616l2 -162q96 0 163.5 47t90 111.5t2.5 124.5q-14 42 17 63q28 19 56 0q24 -17 27 -57q6 -74 -42.5 -143.5t-133.5 -112.5t-180 -43l4 -275v-2q0 -4 -4 -8t-9 -4t-8.5 3.5t-3.5 8.5q0 89 4 277q-109 2 -193.5 39t-138 101t-81 148.5t-27.5 184.5
v22q0 108 39 198.5t102.5 147.5t140.5 89.5t158 36.5l-4 309v2q0 4 3.5 8t8.5 4t9 -4t4 -8v-2l-4 -309h18q158 0 253 -69.5t83 -180.5q-6 -59 -48 -69q-33 -9 -54 17q-16 21 -5 50q36 91 -27.5 166t-201.5 75zM565 1038l-2 168q-141 -8 -233 -125.5t-92 -335.5v-22
q0 -455 325 -463q0 99 2 162v616z" />
    <glyph glyph-name="sterling" unicode="&#xa3;" horiz-adv-x="1083" 
d="M561 705l-20 -195q-16 -149 -172 -242h370q74 3 121 58.5t47 136.5v61h13v-266h-570q-80 -45 -190 -45q-28 0 -28 20t24 31q9 4 18 4h111q56 2 85 22t47.5 78t28.5 175l15 162h-19l-229 -7q-12 0 -12 11.5t12 11.5l229 -6h19l14 145q7 74 32 132.5t63.5 95t87.5 60
t103 27t111 -5.5q57 -10 66 -50q7 -31 -19 -49q-28 -17 -63 3q-60 34 -101 51t-70 11t-45 -16.5t-28 -56t-17 -79.5t-14 -114q-1 -6 -1 -9l-17 -145h23l233 6q12 0 12 -11.5t-12 -11.5l-233 7h-25z" />
    <glyph glyph-name="currency" unicode="&#xa4;" horiz-adv-x="727" 
d="M193 764q0 76 53 129l-19 22l-84 68q-8 7 -5 16.5t11.5 11.5t16.5 -5l67 -84l21 -21q53 43 119 43q67 0 116 -43l23 21l68 84q10 13 22 1q12 -13 0 -24l-84 -68l-20 -22q53 -53 53 -129q0 -79 -53 -129l20 -23l84 -67q13 -10 2 -23q-13 -12 -24 0l-68 84l-23 21
q-47 -41 -116 -41q-70 0 -117 41l-23 -21l-67 -84q-7 -8 -16.5 -5t-11.5 11.5t5 16.5l84 67l21 21q-55 52 -55 131zM203 764q0 -70 49.5 -119t120.5 -49t119.5 49t48.5 119q0 71 -49 120.5t-119 49.5q-71 0 -120.5 -50t-49.5 -120z" />
    <glyph glyph-name="yen" unicode="&#xa5;" horiz-adv-x="1085" 
d="M489 295v317h-18l-229 -6q-12 0 -12 11.5t12 11.5l229 -6h18v57l-4 6h-14l-229 -6q-12 0 -12 11t12 11l229 -6h8l-278 486h-72q-3 0 -4 2t0 4t4 2h242q3 0 4 -2t0 -4t-4 -2h-64l277 -475l272 475h-78q-6 0 -6 4t6 4h172q3 0 4 -2t0 -4t-4 -2h-84l-278 -486h33l233 6
q12 0 12 -11t-12 -11l-233 6h-31v-63h31l233 6q12 0 12 -11.5t-12 -11.5l-233 6h-31v-317q0 -21 20 -21h45q6 0 6 -4t-6 -4h-235q-3 0 -4 2t0 4t4 2h49q20 0 20 21z" />
    <glyph glyph-name="brokenbar" unicode="&#xa6;" horiz-adv-x="591" 
d="M299 350q0 -49 34 -186t34 -148q0 -32 -20 -51.5t-52 -19.5q-31 0 -50.5 20t-19.5 51q0 12 30 148.5t30 185.5v281h14v-281zM285 1083q0 49 -30 185.5t-30 148.5q0 31 19.5 51.5t50.5 20.5q32 0 52 -20t20 -52q0 -11 -34 -148t-34 -186v-272h-14v272z" />
    <glyph glyph-name="section" unicode="&#xa7;" horiz-adv-x="1239" 
d="M1106 408q0 -61 -34.5 -143.5t-88.5 -147.5q104 -104 104 -262q0 -73 -31 -141.5t-88 -123t-144.5 -87.5t-192.5 -33q-79 0 -149.5 19.5t-124 53.5t-95 80t-61.5 99.5t-25.5 112t14.5 116.5q18 56 62 67q35 8 52 -18q15 -22 -1 -55q-28 -59 -31 -124t20.5 -125t67.5 -108
t115.5 -77t159.5 -29q158 0 261 97t103 228q0 74 -26.5 134t-72 101.5t-104 76t-123 61.5t-129 53t-123 56.5t-104 66.5t-72 87t-26.5 114q0 75 44.5 151.5t121.5 137.5q-166 107 -166 299q0 60 27 118t77 107t132 79t182 30q105 0 192.5 -29.5t142 -77.5t82 -109t19.5 -124
q-7 -59 -48 -72q-32 -9 -52 17q-18 23 -6 59q11 34 11 70.5t-11 73t-37.5 68.5t-65.5 57t-97.5 39.5t-129.5 14.5q-80 0 -144.5 -24t-103 -64t-58.5 -88.5t-20 -101.5q0 -68 27 -122t73 -91t106 -67.5t125.5 -56t131.5 -52.5t126 -62t106 -78t73 -107t27 -144zM1016 358
q0 75 -29.5 135t-75.5 97t-112.5 71.5t-128.5 56.5t-137.5 54t-126.5 62q-95 -112 -95 -234q0 -73 45.5 -127.5t122.5 -91.5t159.5 -68.5t175.5 -77t151 -98.5q51 105 51 221z" />
    <glyph glyph-name="dieresis" unicode="&#xa8;" horiz-adv-x="761" 
d="M229 1130q-29 0 -49 20.5t-20 49.5t20 49.5t49 20.5t49.5 -20.5t20.5 -49.5t-20.5 -49.5t-49.5 -20.5zM561 1133q-29 0 -49 20t-20 49t20 49.5t49 20.5t49.5 -20.5t20.5 -49.5t-20.5 -49t-49.5 -20z" />
    <glyph glyph-name="copyright" unicode="&#xa9;" horiz-adv-x="1679" 
d="M205 731q0 129 50.5 246.5t135.5 202.5t202.5 135.5t246.5 50.5t246.5 -50.5t202.5 -135.5t135.5 -202.5t50.5 -246.5t-50.5 -246.5t-135.5 -202.5t-202.5 -135.5t-246.5 -50.5t-246.5 50.5t-202.5 135.5t-135.5 202.5t-50.5 246.5zM215 731q0 -169 84 -313t228 -228
t313 -84t313 84t227.5 228t83.5 313t-83.5 313t-227.5 228t-313 84t-313 -84t-228 -228t-84 -313zM856 397q-165 0 -258.5 94.5t-93.5 241.5v17q0 79 31.5 143.5t83 104.5t112.5 61.5t123 21.5h4q42 0 69 -8.5t62 -28.5q11 -6 25.5 -10.5t30 -5.5t26 7t10.5 26v4h13v-254
h-13v14q0 97 -57.5 169.5t-161.5 76.5h-8q-102 0 -173 -84.5t-71 -236.5v-17q0 -149 61.5 -237t186.5 -88q101 7 162 80.5t61 166.5v13h13v-252h-13v14q0 8 -3 13t-8.5 7t-11.5 3t-14.5 -1t-15.5 -4t-17 -6l-15 -6t-13.5 -5.5t-9.5 -4.5q-18 -9 -55.5 -19t-61.5 -10z" />
    <glyph glyph-name="ordfeminine" unicode="&#xaa;" horiz-adv-x="755" 
d="M508 1112q-18 -139 -89 -228t-177 -89q-166 0 -166 145q0 35 14 62t34 44t55 32t64.5 23.5t76.5 22t77 23.5q71 23 92 59.5t21 98.5q0 59 -33.5 96t-109.5 37q-93 0 -136.5 -58t-17.5 -123q13 -36 -14 -54q-25 -17 -48 4q-17 15 -20 48q-5 79 61.5 135t174.5 56
t160.5 -43.5t52.5 -112.5v-428q0 -18 11 -33.5t32 -15.5q39 0 39 43q0 4 5 4t5 -4q0 -61 -78 -61q-41 0 -63.5 27t-22.5 75v215zM254 811q74 0 131 54t86.5 131.5t36.5 166.5v64q-9 -30 -30.5 -49t-71.5 -37q-17 -6 -62 -20t-70 -24.5t-56.5 -30.5t-46.5 -50.5t-15 -71.5
v-14q0 -54 26 -86.5t72 -32.5z" />
    <glyph glyph-name="guillemotleft" unicode="&#xab;" horiz-adv-x="1085" 
d="M414 643l504 408q4 4 8 3t4.5 -4.5t-2.5 -7.5l-430 -432l-2 -2v-2l2 -2l430 -461q8 -8 -1 -11q-4 -2 -9 3l-504 436q-25 22 -25 37t25 35zM61 643l504 408q4 4 8 3t4.5 -4.5t-2.5 -7.5l-430 -432l-2 -2v-2l2 -2l430 -461q8 -8 -1 -11q-4 -2 -9 3l-504 436q-25 22 -25 37
t25 35z" />
    <glyph glyph-name="logicalnot" unicode="&#xac;" horiz-adv-x="794" 
d="M121 510v12h469q51 0 51 -47v-145h-12v145q0 35 -39 35h-469z" />
    <glyph glyph-name="uni00AD" unicode="&#xad;" horiz-adv-x="868" 
d="M129 522v15h563v-15h-563z" />
    <glyph glyph-name="registered" unicode="&#xae;" horiz-adv-x="1705" 
d="M205 731q0 129 50.5 246.5t135.5 202.5t202.5 135.5t246.5 50.5t246.5 -50.5t202.5 -135.5t135.5 -202.5t50.5 -246.5t-50.5 -246.5t-135.5 -202.5t-202.5 -135.5t-246.5 -50.5t-246.5 50.5t-202.5 135.5t-135.5 202.5t-50.5 246.5zM215 731q0 -169 84 -313t228 -228
t313 -84t313 84t227.5 228t83.5 313t-83.5 313t-227.5 228t-313 84t-313 -84t-228 -228t-84 -313zM586 401q-6 0 -6 5.5t6 5.5h30q21 0 21 20v615q0 20 -21 20h-30q-6 0 -6 5t6 5h264q61 0 114.5 -15t91.5 -50.5t38 -87.5q0 -73 -62.5 -116.5t-159.5 -49.5q56 -16 105 -55.5
t78 -100.5q17 -37 34 -91.5t27.5 -85t20.5 -30.5q4 0 12 4q7 4 8 -3q0 -4 -4 -7q-6 -4 -16 -4q-84 0 -187 199q-46 104 -79 139t-80 35h-54v-326q0 -20 21 -20h33q6 0 6 -5.5t-6 -5.5h-205zM985 924q0 77 -37.5 110t-97.5 33h-92q-21 0 -21 -20v-279h113q62 0 98.5 37.5
t36.5 118.5z" />
    <glyph glyph-name="macron" unicode="&#xaf;" horiz-adv-x="819" 
d="M121 1122v17h569v-17h-569z" />
    <glyph glyph-name="degree" unicode="&#xb0;" horiz-adv-x="622" 
d="M141 1178q0 75 53 127.5t128 52.5t126.5 -52.5t51.5 -127.5t-51.5 -127t-126.5 -52t-128 52t-53 127zM152 1178q0 -70 49.5 -119t120.5 -49q70 0 118.5 48.5t48.5 119.5t-48.5 120.5t-118.5 49.5t-120 -50t-50 -120z" />
    <glyph glyph-name="plusminus" unicode="&#xb1;" horiz-adv-x="1181" 
d="M520 651l-293 -16q-15 0 -20.5 10.5t0.5 21.5t20 11l293 -16h66v65l-17 293q0 15 10.5 20.5t21.5 -0.5t11 -20l-16 -293v-65h66l292 16q15 0 20.5 -11t-0.5 -21.5t-20 -10.5l-292 16h-66v-67l16 -293q0 -15 -11 -20.5t-21.5 0.5t-10.5 20l17 293v67h-66zM520 113
l-293 -17q-15 0 -20.5 11t0.5 21.5t20 10.5l293 -16h142l292 16q15 0 20.5 -10.5t-0.5 -21.5t-20 -11l-292 17h-142z" />
    <glyph glyph-name="twosuperior" unicode="&#xb2;" horiz-adv-x="610" 
d="M109 807v98q0 39 34.5 80.5t83.5 79t97.5 76t83 86t34.5 94.5q0 55 -31 87t-92 32q-42 0 -72.5 -18.5t-42.5 -44.5t-16 -55.5t7 -51.5q18 -46 -13 -67q-25 -18 -50 2q-16 13 -21 40q-7 42 13 88.5t72 81.5t123 35q100 0 155.5 -40.5t55.5 -104.5q0 -43 -42 -87.5
t-102.5 -82.5t-120.5 -74.5t-102 -78t-42 -79.5q0 -6 6 -6h375q6 0 6 6v37q0 6 5 6t5 -6v-133h-409z" />
    <glyph glyph-name="threesuperior" unicode="&#xb3;" horiz-adv-x="583" 
d="M281 1169q-24 0 -34 14.5t-0.5 29t32.5 14.5q42 0 75 -23q58 27 58 121q0 45 -27 80t-88 35q-80 0 -109 -48t-16 -98q9 -36 -18 -50q-24 -13 -42 8q-11 12 -12 34q-2 59 51 111.5t146 52.5q88 0 137 -40t49 -85q0 -39 -29.5 -72t-88.5 -51q84 -17 128 -67t44 -127
t-67.5 -146t-186.5 -69q-103 0 -168 63.5t-54 138.5q6 39 38 44q27 4 39 -19q6 -13 1 -29q-10 -26 -5.5 -59t17.5 -61.5t48 -48t84 -19.5q39 0 69 13t48.5 33.5t30 48.5t16 54.5t4.5 55.5q0 161 -97 190q-37 -29 -73 -29z" />
    <glyph glyph-name="acute" unicode="&#xb4;" horiz-adv-x="323" 
d="M182 1188l80 133q34 55 74 51q14 -1 21.5 -13t4.5 -22q-5 -25 -36 -49l-138 -100h-6z" />
    <glyph glyph-name="mu" unicode="&#xb5;" 
d="M795 932h106v-840q0 -28 16.5 -51t47.5 -23q27 0 43 18t16 46q0 6 6 6t6 -6q0 -90 -114 -90q-61 0 -94 40.5t-33 110.5v301q-32 -128 -83.5 -227t-130.5 -163t-173 -64q-216 0 -269 170v-97q0 -49 29 -185t29 -148q0 -31 -19.5 -51.5t-50.5 -20.5q-32 0 -52 20t-20 52
q0 11 33 147.5t33 185.5v869h106v-645q0 -75 11.5 -128.5t28 -82.5t44 -45.5t51 -20.5t56.5 -4q70 0 132 39t108.5 107.5t81 153.5t55.5 183v443z" />
    <glyph glyph-name="mu" unicode="&#x3bc;" 
d="M795 932h106v-840q0 -28 16.5 -51t47.5 -23q27 0 43 18t16 46q0 6 6 6t6 -6q0 -90 -114 -90q-61 0 -94 40.5t-33 110.5v301q-32 -128 -83.5 -227t-130.5 -163t-173 -64q-216 0 -269 170v-97q0 -49 29 -185t29 -148q0 -31 -19.5 -51.5t-50.5 -20.5q-32 0 -52 20t-20 52
q0 11 33 147.5t33 185.5v869h106v-645q0 -75 11.5 -128.5t28 -82.5t44 -45.5t51 -20.5t56.5 -4q70 0 132 39t108.5 107.5t81 153.5t55.5 183v443z" />
    <glyph glyph-name="paragraph" unicode="&#xb6;" horiz-adv-x="1034" 
d="M504 -465v14h92q14 0 14 15v1095q-167 0 -286 119.5t-119 286.5t119 286t286 119h244v-14h-92q-14 0 -14 -14v-1878q0 -15 14 -15h78v-14h-336zM625 1456v-1892q0 -15 14 -15h80q14 0 14 15v1878q0 14 -14 14h-94z" />
    <glyph glyph-name="periodcentered" unicode="&#xb7;" horiz-adv-x="380" 
d="M115 483q0 32 21.5 54t53.5 22t54 -22t22 -54t-22 -53.5t-54 -21.5t-53.5 21.5t-21.5 53.5z" />
    <glyph glyph-name="cedilla" unicode="&#xb8;" horiz-adv-x="491" 
d="M238 -6h6q0 -27 25.5 -54.5t55.5 -48t55.5 -51.5t25.5 -65q0 -62 -58.5 -102t-128.5 -38q-64 0 -102 66q-1 3 1 5t3 -1q38 -57 92 -57q45 0 79 31t34 90q0 39 -44 110t-44 113v2z" />
    <glyph glyph-name="onesuperior" unicode="&#xb9;" horiz-adv-x="514" 
d="M156 1358q-19 1 -18 8.5t14 5.5q44 -4 75.5 3t50 24.5t28 33t18.5 40.5h6v-646q0 -14 14 -14h45q6 0 6 -5t-6 -5h-223q-6 0 -6 5t6 5h43q14 0 14 14v537q-40 -9 -67 -6z" />
    <glyph glyph-name="ordmasculine" unicode="&#xba;" horiz-adv-x="788" 
d="M395 795q-126 0 -205 86t-79 252q0 160 82 243.5t206 83.5q120 0 200.5 -85t80.5 -242q0 -166 -79 -252t-206 -86zM395 805q79 2 127.5 81.5t48.5 246.5q0 149 -49 232t-123 85h-10q-74 -3 -122 -86t-48 -231q0 -167 48.5 -246.5t127.5 -81.5z" />
    <glyph glyph-name="guillemotright" unicode="&#xbb;" horiz-adv-x="1085" 
d="M168 1051l504 -408q38 -35 0 -72l-504 -436q-8 -8 -12 -1q-3 4 2 9l430 461l2 2v2l-2 2l-430 432q-4 4 -3 8t5 4t8 -3zM520 1051l504 -408q38 -35 0 -72l-504 -436q-8 -8 -12 -1q-3 4 2 9l430 461l2 2v2l-2 2l-430 432q-4 4 -3 8t5 4t8 -3z" />
    <glyph glyph-name="onequarter" unicode="&#xbc;" horiz-adv-x="1333" 
d="M1083 55h-176q-6 0 -6 5.5t6 5.5h33q4 0 4 4v174q0 8 -6 8h-197q-32 0 -20 31q31 82 96.5 184.5t110.5 153.5q25 28 61.5 58t54.5 36q33 12 51 -2t11 -37.5t-35 -34.5q-128 -62 -194 -131q-92 -92 -146 -231q-5 -8 -2 -12t12 -3h197q6 0 6 6v84l-4 162q0 6 6 6h101
q6 0 6 -6l-6 -162v-84q0 -6 8 -6h37q4 0 4 -6t-4 -6h-37q-8 0 -8 -8v-174q0 -4 6 -4h30v-11zM248 1192q-19 1 -18 8.5t14 5.5q44 -4 75.5 3t50 24.5t28 33t18.5 40.5h6v-645q0 -15 14 -15h45q6 0 6 -5t-6 -5h-223q-6 0 -6 5t6 5h43q14 0 14 15v536q-40 -9 -67 -6zM594 498
l-328 -551q-14 -24 -34.5 -25t-26.5 16.5t8 41.5l371 522l174 272l325 549q18 31 45 21q22 -9 19 -32q-2 -9 -8 -18l-371 -524z" />
    <glyph glyph-name="onehalf" unicode="&#xbd;" horiz-adv-x="1431" 
d="M248 1192q-19 1 -18 8.5t14 5.5q44 -4 75.5 3t50 24.5t28 33t18.5 40.5h6v-645q0 -15 14 -15h45q6 0 6 -5t-6 -5h-223q-6 0 -6 5t6 5h43q14 0 14 15v536q-40 -9 -67 -6zM594 498l-328 -551q-14 -24 -34.5 -25t-26.5 16.5t8 41.5l371 522l174 272l325 549q18 31 45 21
q22 -9 19 -32q-2 -9 -8 -18l-371 -524zM819 53v99q0 55 34.5 100t83.5 77t98 63.5t83.5 76t34.5 98.5q0 55 -31 87t-92 32q-42 0 -73 -18.5t-43 -44.5t-16 -55.5t7 -51.5q18 -46 -13 -67q-25 -17 -50 3q-16 13 -21 40q-12 68 46 136t163 68q100 0 155.5 -40.5t55.5 -104.5
q0 -43 -44 -83.5t-105.5 -73.5t-122 -67.5t-98.5 -79t-31 -93.5q0 -7 6 -7h366q7 0 7 7v36q0 6 5 6t5 -6v-137h-410z" />
    <glyph glyph-name="threequarters" unicode="&#xbe;" horiz-adv-x="1329" 
d="M1083 55h-176q-6 0 -6 5.5t6 5.5h33q4 0 4 4v174q0 8 -6 8h-197q-32 0 -20 31q31 82 96.5 184.5t110.5 153.5q25 28 61.5 58t54.5 36q33 12 51 -2t11 -37.5t-35 -34.5q-128 -62 -194 -131q-92 -92 -146 -231q-5 -8 -2 -12t12 -3h197q6 0 6 6v84l-4 162q0 6 6 6h101
q6 0 6 -6l-6 -162v-84q0 -6 8 -6h37q4 0 4 -6t-4 -6h-37q-8 0 -8 -8v-174q0 -4 6 -4h30v-11zM354 1008q-24 0 -34 14t-0.5 28.5t32.5 14.5q43 0 76 -23q57 27 57 121q0 45 -26.5 80t-87.5 35q-80 0 -109 -47.5t-16 -97.5q9 -36 -18 -51q-24 -12 -42 8q-11 12 -12 34
q-2 59 51 111.5t146 52.5q88 0 137 -40t49 -85q0 -39 -30 -72t-89 -51q84 -17 128 -67t44 -127t-67.5 -146t-186.5 -69q-103 0 -167.5 64t-53.5 139q6 38 36 43q27 5 40 -17q7 -13 2 -31q-10 -26 -5.5 -59t17.5 -61.5t47.5 -48t83.5 -19.5q39 0 69 13t48.5 33.5t30 48.5
t16 54.5t4.5 55.5q0 162 -96 190q-36 -28 -74 -28zM600 498l-328 -551q-14 -24 -34.5 -25t-26.5 16.5t8 41.5l371 522l174 272l326 549q19 32 45 21q22 -10 18 -34q-2 -8 -8 -16l-371 -524z" />
    <glyph glyph-name="questiondown" unicode="&#xbf;" horiz-adv-x="1132" 
d="M616 543v192q0 4 3 6t6.5 0.5t3.5 -6.5v-186q0 -87 -18 -157.5t-46 -118t-62.5 -89t-69 -81t-62.5 -82.5t-46 -104.5t-18 -137.5q0 -57 16.5 -106.5t50 -91t91.5 -65.5t135 -24q63 0 114 17t83.5 46.5t56.5 68t32.5 80.5t10.5 86t-8 83q-11 56 24 75q30 17 58 -11
q21 -20 26 -58q9 -71 -13 -141t-70 -128t-130.5 -94t-183.5 -36q-197 0 -300 87t-103 220q0 69 23 126t60 98.5t81.5 80t89.5 81t82 91t60 120t23 159.5zM698 901q0 -32 -21.5 -54t-53.5 -22t-54 22t-22 54t22 54t54 22t53.5 -22t21.5 -54z" />
    <glyph glyph-name="Agrave" unicode="&#xc0;" horiz-adv-x="1331" 
d="M528 1405q-8 0 -8 8t8 8h215l527 -1405h110q6 0 8.5 -4t0.5 -8t-9 -4h-342q-8 0 -8 8t8 8h115l-215 574h-596l-209 -574h109q7 0 9.5 -4t0 -8t-9.5 -4h-236q-9 0 -9 8t9 8h109l215 590l291 799h-93zM635 1397l-287 -791h584zM666 1800l55 -129h-6l-115 103q-27 24 -27 49
q0 10 7.5 18.5t21.5 9.5q17 2 35 -11t29 -40z" />
    <glyph glyph-name="Aacute" unicode="&#xc1;" horiz-adv-x="1331" 
d="M528 1405q-8 0 -8 8t8 8h215l527 -1405h110q6 0 8.5 -4t0.5 -8t-9 -4h-342q-8 0 -8 8t8 8h115l-215 574h-596l-209 -574h109q7 0 9.5 -4t0 -8t-9.5 -4h-236q-9 0 -9 8t9 8h109l215 590l291 799h-93zM635 1397l-287 -791h584zM555 1673l80 133q34 56 74 52q14 -1 21.5 -13
t4.5 -22q-5 -24 -37 -49l-137 -101h-6z" />
    <glyph glyph-name="Acircumflex" unicode="&#xc2;" horiz-adv-x="1331" 
d="M528 1405q-8 0 -8 8t8 8h215l527 -1405h110q6 0 8.5 -4t0.5 -8t-9 -4h-342q-8 0 -8 8t8 8h115l-215 574h-596l-209 -574h109q7 0 9.5 -4t0 -8t-9.5 -4h-236q-9 0 -9 8t9 8h109l215 590l291 799h-93zM635 1397l-287 -791h584zM907 1593l-248 146l-245 -146q-5 -3 -7 -2
t-1.5 3.5t2.5 4.5q38 39 123 123t126 129q3 3 7 0q32 -34 67 -69.5t86.5 -86.5t95.5 -96q5 -5 -1 -7q-2 -1 -5 1z" />
    <glyph glyph-name="Atilde" unicode="&#xc3;" horiz-adv-x="1331" 
d="M528 1405q-8 0 -8 8t8 8h215l527 -1405h110q6 0 8.5 -4t0.5 -8t-9 -4h-342q-8 0 -8 8t8 8h115l-215 574h-596l-209 -574h109q7 0 9.5 -4t0 -8t-9.5 -4h-236q-9 0 -9 8t9 8h109l215 590l291 799h-93zM635 1397l-287 -791h584zM897 1810q0 -78 -35.5 -126t-101.5 -48
q-40 0 -84 24t-87 48.5t-79 24.5q-49 0 -78 -34t-29 -87q0 -4 -4 -4t-4 4q0 84 41 132t109 48q46 0 118 -44t119 -44q52 0 79.5 28t27.5 78q0 7 4 7t4 -7z" />
    <glyph glyph-name="Adieresis" unicode="&#xc4;" horiz-adv-x="1331" 
d="M528 1405q-8 0 -8 8t8 8h215l527 -1405h110q6 0 8.5 -4t0.5 -8t-9 -4h-342q-8 0 -8 8t8 8h115l-215 574h-596l-209 -574h109q7 0 9.5 -4t0 -8t-9.5 -4h-236q-9 0 -9 8t9 8h109l215 590l291 799h-93zM635 1397l-287 -791h584zM481 1616q-29 0 -49 20.5t-20 49.5t20 49
t49 20t49.5 -20t20.5 -49t-20.5 -49.5t-49.5 -20.5zM813 1618q-29 0 -49.5 20.5t-20.5 49.5t20.5 49t49.5 20t49.5 -20t20.5 -49t-20.5 -49.5t-49.5 -20.5z" />
    <glyph glyph-name="Aring" unicode="&#xc5;" horiz-adv-x="1331" 
d="M528 1405q-8 0 -8 8t8 8h215l527 -1405h110q6 0 8.5 -4t0.5 -8t-9 -4h-342q-8 0 -8 8t8 8h115l-215 574h-596l-209 -574h109q7 0 9.5 -4t0 -8t-9.5 -4h-236q-9 0 -9 8t9 8h109l215 590l291 799h-93zM635 1397l-287 -791h584zM512 1708q0 57 39 96t96 39t96 -39t39 -96
t-39 -96t-96 -39t-96 39t-39 96zM526 1708q0 -51 35 -86t86 -35t86 35t35 86t-35 86t-86 35t-86 -35t-35 -86z" />
    <glyph glyph-name="AE" unicode="&#xc6;" horiz-adv-x="1935" 
d="M291 12q6 0 6 -6t-6 -6h-236q-5 0 -7 3t0 6t7 3h47q23 2 53 17t46 39l827 1333q-2 4 -10 8h-135q-5 0 -7 3t0 6t7 3h870v-239h-12v26q0 84 -57.5 142.5t-159.5 58.5h-363q-14 0 -14 -14v-615q0 -14 14 -14h269q64 3 106.5 35t42.5 90v14h12v-295h-12v21q0 57 -43.5 88
t-105.5 31h-269q-14 0 -14 -15v-708q0 -15 14 -15h449q79 6 145 78t66 170v43h12v-303h-946q-6 0 -6 6t6 6h129q14 0 14 15v669h-426l-389 -624q-8 -11 1.5 -34t27.5 -26h47zM610 709h420v671z" />
    <glyph glyph-name="Ccedilla" unicode="&#xc7;" horiz-adv-x="1226" 
d="M694 -33h-6q3 -26 29 -52.5t55.5 -46.5t53.5 -50.5t24 -63.5q0 -62 -58 -101.5t-128 -37.5q-65 0 -103 66q-1 3 1 5t3 -1q38 -58 92 -58q45 0 79 31t34 90q0 39 -43.5 109t-44.5 110q-130 2 -239 49t-193 137.5t-131 237t-47 334.5q0 143 34.5 263t94.5 204t141.5 143
t175 87t195.5 28q123 0 226 -40t161.5 -108t56.5 -147q-2 -68 -47 -87q-36 -15 -63 12.5t-17 78.5q10 52 -6 101t-54.5 87.5t-104.5 62t-148 24.5h-4q-110 1 -201.5 -39.5t-163 -123t-111.5 -222t-40 -324.5q0 -161 25 -287.5t68.5 -211t107 -140t136 -79.5t158.5 -25h2
q86 0 158 27t116 70.5t64.5 97.5t11.5 108q-9 57 30 81q34 21 66 -2t31 -75q-2 -122 -145 -222t-332 -100z" />
    <glyph glyph-name="Egrave" unicode="&#xc8;" horiz-adv-x="1101" 
d="M625 811h-314q-14 0 -14 -14v-766q0 -15 14 -15h547q60 0 113 64.5t53 142.5v33h16v-256h-970q-6 0 -6 8t6 8h96q14 0 14 15v1360q0 14 -14 14h-96q-8 0 -8 8t8 8h886v-239h-16v32q0 81 -51 136t-148 55h-430q-14 0 -14 -14v-549q0 -15 14 -15h314q65 0 111 36t46 98v6
h17v-295h-17v14q0 60 -46 92.5t-111 32.5zM557 1800l55 -129h-6l-114 103q-27 24 -27 49q0 10 7.5 18.5t21.5 9.5q40 4 63 -51z" />
    <glyph glyph-name="Eacute" unicode="&#xc9;" horiz-adv-x="1101" 
d="M625 811h-314q-14 0 -14 -14v-766q0 -15 14 -15h547q60 0 113 64.5t53 142.5v33h16v-256h-970q-6 0 -6 8t6 8h96q14 0 14 15v1360q0 14 -14 14h-96q-8 0 -8 8t8 8h886v-239h-16v32q0 81 -51 136t-148 55h-430q-14 0 -14 -14v-549q0 -15 14 -15h314q65 0 111 36t46 98v6
h17v-295h-17v14q0 60 -46 92.5t-111 32.5zM508 1673l80 133q34 56 74 52q14 -1 21.5 -13t4.5 -22q-5 -24 -37 -49l-137 -101h-6z" />
    <glyph glyph-name="Ecircumflex" unicode="&#xca;" horiz-adv-x="1101" 
d="M625 811h-314q-14 0 -14 -14v-766q0 -15 14 -15h547q60 0 113 64.5t53 142.5v33h16v-256h-970q-6 0 -6 8t6 8h96q14 0 14 15v1360q0 14 -14 14h-96q-8 0 -8 8t8 8h886v-239h-16v32q0 81 -51 136t-148 55h-430q-14 0 -14 -14v-549q0 -15 14 -15h314q65 0 111 36t46 98v6
h17v-295h-17v14q0 60 -46 92.5t-111 32.5zM815 1593l-248 146l-245 -146q-5 -3 -7 -2t-2 3.5t2 4.5q43 44 126.5 126t123.5 126q3 3 6 0q40 -44 123.5 -126t126.5 -126q5 -5 -1 -7q-2 -1 -5 1z" />
    <glyph glyph-name="Edieresis" unicode="&#xcb;" horiz-adv-x="1101" 
d="M625 811h-314q-14 0 -14 -14v-766q0 -15 14 -15h547q60 0 113 64.5t53 142.5v33h16v-256h-970q-6 0 -6 8t6 8h96q14 0 14 15v1360q0 14 -14 14h-96q-8 0 -8 8t8 8h886v-239h-16v32q0 81 -51 136t-148 55h-430q-14 0 -14 -14v-549q0 -15 14 -15h314q65 0 111 36t46 98v6
h17v-295h-17v14q0 60 -46 92.5t-111 32.5zM385 1616q-29 0 -49.5 20.5t-20.5 49.5t20.5 49t49.5 20t49.5 -20t20.5 -49t-20.5 -49.5t-49.5 -20.5zM717 1618q-29 0 -49.5 20.5t-20.5 49.5t20.5 49t49.5 20t49 -20t20 -49t-20 -49.5t-49 -20.5z" />
    <glyph glyph-name="Igrave" unicode="&#xcc;" horiz-adv-x="495" 
d="M416 0h-334q-9 0 -9 8t9 8h96q15 0 15 15v1360q0 14 -15 14h-88q-8 0 -8 8t8 8h324q6 0 6 -8t-6 -8h-92q-15 0 -15 -14v-1360q0 -15 15 -15h94q8 0 8 -8t-8 -8zM236 1800l55 -129h-6l-115 103q-27 24 -27 49q0 10 7.5 18.5t21.5 9.5q17 2 35 -11t29 -40z" />
    <glyph glyph-name="Iacute" unicode="&#xcd;" horiz-adv-x="495" 
d="M416 0h-334q-9 0 -9 8t9 8h96q15 0 15 15v1360q0 14 -15 14h-88q-8 0 -8 8t8 8h324q6 0 6 -8t-6 -8h-92q-15 0 -15 -14v-1360q0 -15 15 -15h94q8 0 8 -8t-8 -8zM199 1673l80 133q34 56 73 52q14 -1 22 -13t5 -22q-5 -24 -37 -49l-137 -101h-6z" />
    <glyph glyph-name="Icircumflex" unicode="&#xce;" horiz-adv-x="423" 
d="M399 0h-333q-9 0 -9 8t9 8h96q14 0 14 15v1360q0 14 -14 14h-88q-8 0 -8 8t8 8h323q6 0 6 -8t-6 -8h-92q-14 0 -14 -14v-1360q0 -15 14 -15h94q7 0 7 -8t-7 -8zM485 1593l-247 146l-246 -146q-5 -3 -7 -2t-1.5 3.5t2.5 4.5q43 44 126.5 126t123.5 126q3 3 6 0
q40 -44 123.5 -126t126.5 -126q2 -2 1.5 -4.5t-3 -3t-5.5 1.5z" />
    <glyph glyph-name="Idieresis" unicode="&#xcf;" horiz-adv-x="423" 
d="M399 0h-333q-9 0 -9 8t9 8h96q14 0 14 15v1360q0 14 -14 14h-88q-8 0 -8 8t8 8h323q6 0 6 -8t-6 -8h-92q-14 0 -14 -14v-1360q0 -15 14 -15h94q7 0 7 -8t-7 -8zM74 1616q-29 0 -49.5 20.5t-20.5 49.5t20.5 49t49.5 20t49 -20t20 -49t-20 -49.5t-49 -20.5zM406 1618
q-29 0 -49.5 20.5t-20.5 49.5t20.5 49t49.5 20t49 -20t20 -49t-20 -49.5t-49 -20.5z" />
    <glyph glyph-name="Eth" unicode="&#xd0;" horiz-adv-x="1206" 
d="M72 1405q-9 0 -9 8t9 8h434q94 0 185 -24t177 -78.5t150.5 -133t103.5 -195.5t39 -259q0 -177 -52.5 -319.5t-141.5 -230.5t-201.5 -134.5t-237.5 -46.5h-456q-9 0 -9 8t9 8h90q20 0 20 21v700h-84q-9 0 -9 8.5t9 8.5h84v630q0 21 -20 21h-90zM502 737h-203v-700
q0 -21 20 -21h209q85 1 160 26.5t139.5 81.5t110.5 138t72 201.5t26 267.5q0 146 -30 263t-80 193t-119.5 126.5t-144 71.5t-156.5 20h-187q-20 0 -20 -21v-630h203q8 0 8 -8.5t-8 -8.5z" />
    <glyph glyph-name="Ntilde" unicode="&#xd1;" horiz-adv-x="1226" 
d="M164 1405h-113q-9 0 -9 8t9 8h242l797 -1226v1189q0 21 -21 21h-90q-7 0 -9.5 4t0 8t9.5 4h235q9 0 9 -8t-9 -8h-88q-20 0 -20 -21v-1396h-16l-910 1415v-1366q0 -21 21 -21h90q7 0 7 -8t-7 -8h-236q-7 0 -7 8t7 8h88q21 0 21 21v1368zM903 1810q0 -78 -35.5 -126
t-101.5 -48q-40 0 -84 24t-87 48.5t-79 24.5q-49 0 -77.5 -34t-28.5 -87q0 -4 -4 -4q-5 0 -5 4q0 84 41 132t109 48q46 0 118 -44t119 -44q52 0 79.5 28t27.5 78q0 7 4 7t4 -7z" />
    <glyph glyph-name="Ograve" unicode="&#xd2;" horiz-adv-x="1388" 
d="M692 -33q-131 0 -242.5 47t-196.5 138.5t-133 238t-48 334.5q0 145 34 265.5t93 204.5t139 142t171.5 85.5t192.5 27.5h3q98 -2 187.5 -31t167 -88t134.5 -143t90 -202.5t33 -260.5q0 -188 -48.5 -334.5t-133.5 -238t-196.5 -138.5t-242.5 -47h-4zM696 -18q86 1 159 26
t136 81t107 141t69 210.5t25 284.5q0 147 -25 265.5t-68.5 199.5t-105 136.5t-133 81.5t-153.5 28h-25q-104 -3 -190 -44.5t-153 -124.5t-104.5 -221t-37.5 -321q0 -159 25 -284.5t69 -210.5t106.5 -141t135.5 -81t159 -26h4zM700 1800l56 -129h-6l-115 103q-27 24 -27 49
q0 10 7.5 18.5t21.5 9.5q40 4 63 -51z" />
    <glyph glyph-name="Oacute" unicode="&#xd3;" horiz-adv-x="1388" 
d="M692 -33q-131 0 -242.5 47t-196.5 138.5t-133 238t-48 334.5q0 145 34 265.5t93 204.5t139 142t171.5 85.5t192.5 27.5h3q98 -2 187.5 -31t167 -88t134.5 -143t90 -202.5t33 -260.5q0 -188 -48.5 -334.5t-133.5 -238t-196.5 -138.5t-242.5 -47h-4zM696 -18q86 1 159 26
t136 81t107 141t69 210.5t25 284.5q0 147 -25 265.5t-68.5 199.5t-105 136.5t-133 81.5t-153.5 28h-25q-104 -3 -190 -44.5t-153 -124.5t-104.5 -221t-37.5 -321q0 -159 25 -284.5t69 -210.5t106.5 -141t135.5 -81t159 -26h4zM627 1673l80 133q34 56 73 52q14 -1 22 -13
t5 -22q-5 -24 -37 -49l-137 -101h-6z" />
    <glyph glyph-name="Ocircumflex" unicode="&#xd4;" horiz-adv-x="1388" 
d="M692 -33q-131 0 -242.5 47t-196.5 138.5t-133 238t-48 334.5q0 145 34 265.5t93 204.5t139 142t171.5 85.5t192.5 27.5h3q98 -2 187.5 -31t167 -88t134.5 -143t90 -202.5t33 -260.5q0 -188 -48.5 -334.5t-133.5 -238t-196.5 -138.5t-242.5 -47h-4zM696 -18q86 1 159 26
t136 81t107 141t69 210.5t25 284.5q0 147 -25 265.5t-68.5 199.5t-105 136.5t-133 81.5t-153.5 28h-25q-104 -3 -190 -44.5t-153 -124.5t-104.5 -221t-37.5 -321q0 -159 25 -284.5t69 -210.5t106.5 -141t135.5 -81t159 -26h4zM940 1593l-248 146l-246 -146q-5 -3 -7 -2
t-1.5 3.5t2.5 4.5q43 44 126.5 126t123.5 126q3 3 6 0q40 -44 123.5 -126t126.5 -126q5 -5 -1 -7q-2 -1 -5 1z" />
    <glyph glyph-name="Otilde" unicode="&#xd5;" horiz-adv-x="1388" 
d="M692 -33q-131 0 -242.5 47t-196.5 138.5t-133 238t-48 334.5q0 145 34 265.5t93 204.5t139 142t171.5 85.5t192.5 27.5h3q98 -2 187.5 -31t167 -88t134.5 -143t90 -202.5t33 -260.5q0 -188 -48.5 -334.5t-133.5 -238t-196.5 -138.5t-242.5 -47h-4zM696 -18q86 1 159 26
t136 81t107 141t69 210.5t25 284.5q0 147 -25 265.5t-68.5 199.5t-105 136.5t-133 81.5t-153.5 28h-25q-104 -3 -190 -44.5t-153 -124.5t-104.5 -221t-37.5 -321q0 -159 25 -284.5t69 -210.5t106.5 -141t135.5 -81t159 -26h4zM963 1810q0 -78 -36 -126t-102 -48
q-40 0 -84 24t-87 48.5t-79 24.5q-49 0 -77.5 -34t-28.5 -87q0 -4 -4 -4t-4 4q0 84 40.5 132t108.5 48q46 0 118.5 -44t119.5 -44q52 0 79 28t27 78q0 7 4 7q5 0 5 -7z" />
    <glyph glyph-name="Odieresis" unicode="&#xd6;" horiz-adv-x="1388" 
d="M692 -33q-131 0 -242.5 47t-196.5 138.5t-133 238t-48 334.5q0 145 34 265.5t93 204.5t139 142t171.5 85.5t192.5 27.5h3q98 -2 187.5 -31t167 -88t134.5 -143t90 -202.5t33 -260.5q0 -188 -48.5 -334.5t-133.5 -238t-196.5 -138.5t-242.5 -47h-4zM696 -18q86 1 159 26
t136 81t107 141t69 210.5t25 284.5q0 147 -25 265.5t-68.5 199.5t-105 136.5t-133 81.5t-153.5 28h-25q-104 -3 -190 -44.5t-153 -124.5t-104.5 -221t-37.5 -321q0 -159 25 -284.5t69 -210.5t106.5 -141t135.5 -81t159 -26h4zM528 1616q-29 0 -49 20.5t-20 49.5t20 49t49 20
t49.5 -20t20.5 -49t-20.5 -49.5t-49.5 -20.5zM860 1618q-29 0 -49 20.5t-20 49.5t20 49t49 20t49.5 -20t20.5 -49t-20.5 -49.5t-49.5 -20.5z" />
    <glyph glyph-name="multiply" unicode="&#xd7;" horiz-adv-x="1177" 
d="M432 809l-219 195q-11 11 -6.5 22.5t15.5 13.5t22 -6l194 -219l152 -151l149 149l195 219q8 8 17.5 7.5t14.5 -7t6 -15t-7 -16.5l-220 -194l-149 -150l149 -149l220 -195q15 -17 -0.5 -31t-30.5 1l-195 219l-149 149l-152 -151l-194 -219q-11 -9 -23 -5.5t-14 14t6 21.5
l219 195l152 151z" />
    <glyph glyph-name="Oslash" unicode="&#xd8;" horiz-adv-x="1388" 
d="M692 -33q-132 0 -239 45l-17 -65q-5 -22 -17.5 -20.5t-8.5 19.5l2 7l30 63q-172 75 -271 254t-99 455q0 145 34 265.5t93 204.5t139 142t171.5 85.5t192.5 27.5h3q116 -3 225 -47l22 84q3 9 10.5 12t12.5 -3t0 -17l-37 -80q172 -73 275.5 -243.5t103.5 -430.5
q0 -188 -48.5 -334.5t-133.5 -238t-196.5 -138.5t-242.5 -47h-4zM696 -18q86 1 159 26t136 81t107 141t69 210.5t25 284.5q0 493 -264 647l-467 -1331q95 -56 231 -59h4zM197 725q0 -520 256 -680l469 1333q-98 55 -215 58h-25q-104 -3 -190 -44.5t-153 -124.5t-104.5 -221
t-37.5 -321z" />
    <glyph glyph-name="Ugrave" unicode="&#xd9;" horiz-adv-x="1339" 
d="M1155 1384v-884q0 -527 -459 -527q-89 0 -164.5 17t-142 57t-113 100.5t-73.5 153t-27 209.5v874q0 21 -20 21h-52q-5 0 -7 4t-0.5 8t7.5 4h261q7 0 7 -8t-7 -8h-52q-20 0 -20 -21v-892q0 -124 22.5 -215.5t58.5 -145.5t90.5 -86.5t108.5 -43.5t123 -11q100 0 177 25.5
t138 83t93.5 158.5t32.5 243v884q0 21 -21 21h-72q-9 0 -9 8t9 8h209q7 0 9.5 -4t0 -8t-9.5 -4h-77q-21 0 -21 -21zM676 1800l55 -129h-6l-115 103q-26 23 -26 49q0 25 28 28q17 2 35 -11t29 -40z" />
    <glyph glyph-name="Uacute" unicode="&#xda;" horiz-adv-x="1339" 
d="M1155 1384v-884q0 -527 -459 -527q-89 0 -164.5 17t-142 57t-113 100.5t-73.5 153t-27 209.5v874q0 21 -20 21h-52q-5 0 -7 4t-0.5 8t7.5 4h261q7 0 7 -8t-7 -8h-52q-20 0 -20 -21v-892q0 -124 22.5 -215.5t58.5 -145.5t90.5 -86.5t108.5 -43.5t123 -11q100 0 177 25.5
t138 83t93.5 158.5t32.5 243v884q0 21 -21 21h-72q-9 0 -9 8t9 8h209q7 0 9.5 -4t0 -8t-9.5 -4h-77q-21 0 -21 -21zM643 1673l80 133q34 56 74 52q14 -1 21.5 -13t4.5 -22q-5 -24 -37 -49l-137 -101h-6z" />
    <glyph glyph-name="Ucircumflex" unicode="&#xdb;" horiz-adv-x="1339" 
d="M1155 1384v-884q0 -527 -459 -527q-89 0 -164.5 17t-142 57t-113 100.5t-73.5 153t-27 209.5v874q0 21 -20 21h-52q-5 0 -7 4t-0.5 8t7.5 4h261q7 0 7 -8t-7 -8h-52q-20 0 -20 -21v-892q0 -124 22.5 -215.5t58.5 -145.5t90.5 -86.5t108.5 -43.5t123 -11q100 0 177 25.5
t138 83t93.5 158.5t32.5 243v884q0 21 -21 21h-72q-9 0 -9 8t9 8h209q7 0 9.5 -4t0 -8t-9.5 -4h-77q-21 0 -21 -21zM956 1593l-247 146l-246 -146q-5 -3 -7 -2t-1.5 3.5t2.5 4.5q43 44 126.5 126t123.5 126q3 3 6 0q40 -44 123.5 -126t126.5 -126q2 -2 1.5 -4.5t-3 -3
t-5.5 1.5z" />
    <glyph glyph-name="Udieresis" unicode="&#xdc;" horiz-adv-x="1339" 
d="M1155 1384v-884q0 -527 -459 -527q-89 0 -164.5 17t-142 57t-113 100.5t-73.5 153t-27 209.5v874q0 21 -20 21h-52q-5 0 -7 4t-0.5 8t7.5 4h261q7 0 7 -8t-7 -8h-52q-20 0 -20 -21v-892q0 -124 22.5 -215.5t58.5 -145.5t90.5 -86.5t108.5 -43.5t123 -11q100 0 177 25.5
t138 83t93.5 158.5t32.5 243v884q0 21 -21 21h-72q-9 0 -9 8t9 8h209q7 0 9.5 -4t0 -8t-9.5 -4h-77q-21 0 -21 -21zM537 1616q-29 0 -49.5 20.5t-20.5 49.5t20.5 49t49.5 20t49 -20t20 -49t-20 -49.5t-49 -20.5zM868 1618q-29 0 -49 20.5t-20 49.5t20 49t49 20t49.5 -20
t20.5 -49t-20.5 -49.5t-49.5 -20.5z" />
    <glyph glyph-name="Yacute" unicode="&#xdd;" horiz-adv-x="1120" 
d="M553 37v612l-434 756h-109q-6 0 -6 8t6 8h326q8 0 8 -8t-8 -8h-96l417 -715l410 715h-113q-5 0 -7 4t-0.5 8t7.5 4h263q6 0 6 -8t-6 -8h-130l-419 -731v-637q0 -21 20 -21h64q8 0 8 -8t-8 -8h-285q-7 0 -7 8t7 8h65q21 0 21 21zM567 1673l80 133q34 56 74 52
q14 -1 22 -13t5 -22q-5 -24 -37 -49l-138 -101h-6z" />
    <glyph glyph-name="Thorn" unicode="&#xde;" horiz-adv-x="1075" 
d="M72 0q-6 0 -6 6t6 6h90q20 0 20 21v1356q0 20 -20 20h-90q-6 0 -6 6t6 6h342q5 0 7 -3t0 -6t-7 -3h-95q-20 0 -20 -20v-144h266q71 0 140 -13.5t134 -43.5t114.5 -73t79.5 -108t30 -143q0 -97 -43 -176t-114 -127.5t-158 -74t-181 -25.5h-268v-428q0 -21 20 -21h95
q6 0 6 -6t-6 -6h-342zM942 864q0 99 -31.5 172.5t-86.5 114t-119.5 59.5t-139.5 19h-266v-752h268q80 1 145.5 22.5t118 66.5t82 121t29.5 177z" />
    <glyph glyph-name="germandbls" unicode="&#xdf;" horiz-adv-x="1161" 
d="M356 242q0 82 45 98q30 11 50 -13q15 -18 8 -42q-21 -54 -13.5 -107.5t33 -95.5t77 -68t118.5 -26q134 0 220.5 115.5t86.5 322.5v23q0 370 -268 415q-98 -65 -199 -65q-24 0 -33 24q-10 29 22 46q19 10 52 10h84q9 0 27 -1t26 -1q105 61 105 264q0 162 -68.5 249
t-198.5 87q-128 0 -203 -103t-75 -262v-1085q0 -15 14 -15h84q6 0 6 -6t-6 -6h-303q-6 0 -6 6t6 6h84q14 0 14 15v1085q0 171 111 273t274 102q166 0 269.5 -94.5t103.5 -245.5q0 -66 -50 -142.5t-128 -132.5q176 -23 272.5 -136.5t96.5 -286.5v-23q0 -202 -117.5 -326.5
t-298.5 -124.5q-127 0 -224.5 75t-97.5 192z" />
    <glyph glyph-name="agrave" unicode="&#xe0;" horiz-adv-x="948" 
d="M702 463q-29 -208 -134.5 -340.5t-260.5 -132.5q-121 0 -183.5 55.5t-62.5 159.5q0 52 20.5 92.5t50.5 65t82.5 47.5t96.5 35.5t114 32t114 34.5q55 19 89.5 42.5t50.5 55.5t21 61t5 74q0 88 -50 143.5t-163 55.5q-69 0 -122.5 -25t-80.5 -64t-36 -86.5t11 -92.5
q17 -49 -17 -76q-30 -25 -63 -7q-35 21 -39 79q-8 118 89 201t258 83q160 0 238.5 -64.5t78.5 -168.5v-631q0 -29 16 -51.5t47 -22.5q27 0 43.5 18t16.5 46q0 6 6 6t6 -6q0 -90 -115 -90q-61 0 -94 40.5t-33 110.5v320zM326 14q83 0 152.5 46t114.5 122.5t72.5 167
t36.5 187.5v94q-12 -44 -44.5 -71t-108.5 -58q-26 -10 -76.5 -25.5t-85 -26.5t-77.5 -32.5t-69 -47t-44.5 -66.5t-18.5 -93v-18q0 -81 38.5 -130t109.5 -49zM487 1315l56 -129h-6l-115 102q-27 24 -27 49q0 10 7.5 19t21.5 10q40 4 63 -51z" />
    <glyph glyph-name="aacute" unicode="&#xe1;" horiz-adv-x="948" 
d="M702 463q-29 -208 -134.5 -340.5t-260.5 -132.5q-121 0 -183.5 55.5t-62.5 159.5q0 52 20.5 92.5t50.5 65t82.5 47.5t96.5 35.5t114 32t114 34.5q55 19 89.5 42.5t50.5 55.5t21 61t5 74q0 88 -50 143.5t-163 55.5q-69 0 -122.5 -25t-80.5 -64t-36 -86.5t11 -92.5
q17 -49 -17 -76q-30 -25 -63 -7q-35 21 -39 79q-8 118 89 201t258 83q160 0 238.5 -64.5t78.5 -168.5v-631q0 -29 16 -51.5t47 -22.5q27 0 43.5 18t16.5 46q0 6 6 6t6 -6q0 -90 -115 -90q-61 0 -94 40.5t-33 110.5v320zM326 14q83 0 152.5 46t114.5 122.5t72.5 167
t36.5 187.5v94q-12 -44 -44.5 -71t-108.5 -58q-26 -10 -76.5 -25.5t-85 -26.5t-77.5 -32.5t-69 -47t-44.5 -66.5t-18.5 -93v-18q0 -81 38.5 -130t109.5 -49zM438 1188l80 133q34 55 74 51q14 -1 21.5 -13t4.5 -22q-5 -25 -36 -49l-138 -100h-6z" />
    <glyph glyph-name="acircumflex" unicode="&#xe2;" horiz-adv-x="948" 
d="M702 463q-29 -208 -134.5 -340.5t-260.5 -132.5q-121 0 -183.5 55.5t-62.5 159.5q0 52 20.5 92.5t50.5 65t82.5 47.5t96.5 35.5t114 32t114 34.5q55 19 89.5 42.5t50.5 55.5t21 61t5 74q0 88 -50 143.5t-163 55.5q-69 0 -122.5 -25t-80.5 -64t-36 -86.5t11 -92.5
q17 -49 -17 -76q-30 -25 -63 -7q-35 21 -39 79q-8 118 89 201t258 83q160 0 238.5 -64.5t78.5 -168.5v-631q0 -29 16 -51.5t47 -22.5q27 0 43.5 18t16.5 46q0 6 6 6t6 -6q0 -90 -115 -90q-61 0 -94 40.5t-33 110.5v320zM326 14q83 0 152.5 46t114.5 122.5t72.5 167
t36.5 187.5v94q-12 -44 -44.5 -71t-108.5 -58q-26 -10 -76.5 -25.5t-85 -26.5t-77.5 -32.5t-69 -47t-44.5 -66.5t-18.5 -93v-18q0 -81 38.5 -130t109.5 -49zM735 1108l-248 145l-245 -145q-5 -3 -7 -2t-1.5 3.5t2.5 4.5q38 39 123 123t126 129q3 4 7 0q32 -34 67 -69.5
t86.5 -86.5t95.5 -96q5 -5 -1 -7q-2 -1 -5 1z" />
    <glyph glyph-name="atilde" unicode="&#xe3;" horiz-adv-x="948" 
d="M702 463q-29 -208 -134.5 -340.5t-260.5 -132.5q-121 0 -183.5 55.5t-62.5 159.5q0 52 20.5 92.5t50.5 65t82.5 47.5t96.5 35.5t114 32t114 34.5q55 19 89.5 42.5t50.5 55.5t21 61t5 74q0 88 -50 143.5t-163 55.5q-69 0 -122.5 -25t-80.5 -64t-36 -86.5t11 -92.5
q17 -49 -17 -76q-30 -25 -63 -7q-35 21 -39 79q-8 118 89 201t258 83q160 0 238.5 -64.5t78.5 -168.5v-631q0 -29 16 -51.5t47 -22.5q27 0 43.5 18t16.5 46q0 6 6 6t6 -6q0 -90 -115 -90q-61 0 -94 40.5t-33 110.5v320zM326 14q83 0 152.5 46t114.5 122.5t72.5 167
t36.5 187.5v94q-12 -44 -44.5 -71t-108.5 -58q-26 -10 -76.5 -25.5t-85 -26.5t-77.5 -32.5t-69 -47t-44.5 -66.5t-18.5 -93v-18q0 -81 38.5 -130t109.5 -49zM745 1325q0 -78 -35.5 -126t-101.5 -48q-49 0 -128 48t-122 48q-49 0 -77.5 -34t-28.5 -87q0 -4 -4 -4t-4 4
q0 84 40.5 132.5t108.5 48.5q46 0 118.5 -44t119.5 -44q52 0 79 28t27 78q0 6 4 6t4 -6z" />
    <glyph glyph-name="adieresis" unicode="&#xe4;" horiz-adv-x="948" 
d="M702 463q-29 -208 -134.5 -340.5t-260.5 -132.5q-121 0 -183.5 55.5t-62.5 159.5q0 52 20.5 92.5t50.5 65t82.5 47.5t96.5 35.5t114 32t114 34.5q55 19 89.5 42.5t50.5 55.5t21 61t5 74q0 88 -50 143.5t-163 55.5q-69 0 -122.5 -25t-80.5 -64t-36 -86.5t11 -92.5
q17 -49 -17 -76q-30 -25 -63 -7q-35 21 -39 79q-8 118 89 201t258 83q160 0 238.5 -64.5t78.5 -168.5v-631q0 -29 16 -51.5t47 -22.5q27 0 43.5 18t16.5 46q0 6 6 6t6 -6q0 -90 -115 -90q-61 0 -94 40.5t-33 110.5v320zM326 14q83 0 152.5 46t114.5 122.5t72.5 167
t36.5 187.5v94q-12 -44 -44.5 -71t-108.5 -58q-26 -10 -76.5 -25.5t-85 -26.5t-77.5 -32.5t-69 -47t-44.5 -66.5t-18.5 -93v-18q0 -81 38.5 -130t109.5 -49zM324 1130q-29 0 -49.5 20.5t-20.5 49.5t20.5 49.5t49.5 20.5t49 -20.5t20 -49.5t-20 -49.5t-49 -20.5zM655 1133
q-29 0 -49 20t-20 49t20 49.5t49 20.5t49.5 -20.5t20.5 -49.5t-20.5 -49t-49.5 -20z" />
    <glyph glyph-name="aring" unicode="&#xe5;" horiz-adv-x="948" 
d="M702 463q-29 -208 -134.5 -340.5t-260.5 -132.5q-121 0 -183.5 55.5t-62.5 159.5q0 52 20.5 92.5t50.5 65t82.5 47.5t96.5 35.5t114 32t114 34.5q55 19 89.5 42.5t50.5 55.5t21 61t5 74q0 88 -50 143.5t-163 55.5q-69 0 -122.5 -25t-80.5 -64t-36 -86.5t11 -92.5
q17 -49 -17 -76q-30 -25 -63 -7q-35 21 -39 79q-8 118 89 201t258 83q160 0 238.5 -64.5t78.5 -168.5v-631q0 -29 16 -51.5t47 -22.5q27 0 43.5 18t16.5 46q0 6 6 6t6 -6q0 -90 -115 -90q-61 0 -94 40.5t-33 110.5v320zM326 14q83 0 152.5 46t114.5 122.5t72.5 167
t36.5 187.5v94q-12 -44 -44.5 -71t-108.5 -58q-26 -10 -76.5 -25.5t-85 -26.5t-77.5 -32.5t-69 -47t-44.5 -66.5t-18.5 -93v-18q0 -81 38.5 -130t109.5 -49zM346 1223q0 57 39 96t96 39t96 -39t39 -96t-39 -96.5t-96 -39.5t-96 39.5t-39 96.5zM360 1223q0 -51 35 -86t86 -35
t86 35t35 86t-35 85.5t-86 34.5t-86 -34.5t-35 -85.5z" />
    <glyph glyph-name="ae" unicode="&#xe6;" horiz-adv-x="1550" 
d="M1122 -10q-109 1 -192 36.5t-134 99.5t-76.5 149t-25.5 188h-2q-29 -208 -134.5 -340.5t-260.5 -132.5q-121 0 -183.5 55.5t-62.5 159.5q0 52 20.5 92.5t50.5 65t82.5 47.5t96 35.5t113.5 32t114 34.5q55 19 89.5 42.5t50.5 55.5t21 61t5 74q0 88 -50 143.5t-163 55.5
q-69 0 -122.5 -25t-80 -64t-35.5 -86.5t11 -92.5q17 -49 -17 -76q-30 -25 -63 -7q-35 21 -39 79q-8 118 88.5 201t257.5 83q139 0 216.5 -49.5t95.5 -132.5q65 86 162 135t216 49q142 0 232 -66t90 -179q0 -86 -70 -148t-170 -90q-193 -50 -252 -73q-171 -64 -182 -161
q-2 -15 0 -32q43 -106 109.5 -156.5t193.5 -50.5q93 0 164.5 45.5t100.5 110.5t10 125q-14 46 19 65q29 17 56 -3q25 -20 25 -58q0 -74 -52 -143t-139.5 -111.5t-183.5 -42.5zM1386 725q0 99 -55 159t-178 60q-89 0 -155.5 -34t-106.5 -95.5t-61 -138.5t-25 -172
q-3 -124 6 -242q7 33 31 61t52 46.5t75.5 36.5t82.5 28t93 26t88 25q153 46 153 240zM315 14q83 0 152.5 46t114.5 122.5t73 167t37 187.5v94q-12 -44 -44.5 -71t-108.5 -58q-26 -10 -76.5 -25.5t-85 -26.5t-77.5 -32.5t-69 -47t-44.5 -66.5t-18.5 -93v-18
q0 -82 38.5 -130.5t108.5 -48.5z" />
    <glyph glyph-name="ccedilla" unicode="&#xe7;" horiz-adv-x="925" 
d="M528 946h-14q-147 0 -242.5 -117.5t-95.5 -343.5v-22q0 -106 17 -187.5t54.5 -145t103 -97t157.5 -33.5q97 0 165 47t90.5 111.5t2.5 124.5q-14 42 17 63q28 19 56 0q24 -17 27 -57q9 -113 -101 -206t-257 -93q-4 0 -12 1t-11 1q1 -26 27 -53.5t55.5 -47.5t54.5 -51
t25 -65q0 -62 -58 -102t-128 -38q-65 0 -103 66q-2 3 0 5t4 -1q38 -57 93 -57q44 0 78 31t34 90q0 39 -44 110t-44 113q-207 9 -312.5 137.5t-105.5 333.5v22q0 90 26.5 168t71 132.5t103 94t123 58t129.5 18.5h14q158 0 253 -69t83 -180q-6 -59 -49 -69q-32 -8 -52 17
q-16 21 -5 50q36 91 -28 166t-202 75z" />
    <glyph glyph-name="egrave" unicode="&#xe8;" horiz-adv-x="946" 
d="M496 2q47 0 90.5 12.5t75.5 34t58 49.5t38.5 59t17.5 63.5t-6 62.5q-14 46 19 65q29 17 56 -3q25 -19 25 -58q0 -74 -52 -143t-139 -111.5t-183 -42.5q-109 1 -192.5 37t-134 100.5t-76 150t-25.5 189.5q0 132 58 243t168.5 179.5t250.5 68.5q142 0 231.5 -66t89.5 -179
q0 -86 -70 -148t-169 -90q-193 -50 -252 -73q-171 -64 -182 -161q-2 -15 0 -32q43 -106 109.5 -156.5t193.5 -50.5zM760 725q0 99 -55.5 159t-178.5 60q-89 0 -155.5 -34t-106.5 -95.5t-61 -138.5t-25 -172q-3 -124 6 -242q7 33 31 61t52 46.5t75.5 36.5t82.5 28t93 26
t88 25q154 47 154 240zM477 1315l55 -129h-6l-114 102q-27 24 -27 49q0 10 7.5 19t21.5 10q40 4 63 -51z" />
    <glyph glyph-name="eacute" unicode="&#xe9;" horiz-adv-x="946" 
d="M496 2q47 0 90.5 12.5t75.5 34t58 49.5t38.5 59t17.5 63.5t-6 62.5q-14 46 19 65q29 17 56 -3q25 -19 25 -58q0 -74 -52 -143t-139 -111.5t-183 -42.5q-109 1 -192.5 37t-134 100.5t-76 150t-25.5 189.5q0 132 58 243t168.5 179.5t250.5 68.5q142 0 231.5 -66t89.5 -179
q0 -86 -70 -148t-169 -90q-193 -50 -252 -73q-171 -64 -182 -161q-2 -15 0 -32q43 -106 109.5 -156.5t193.5 -50.5zM760 725q0 99 -55.5 159t-178.5 60q-89 0 -155.5 -34t-106.5 -95.5t-61 -138.5t-25 -172q-3 -124 6 -242q7 33 31 61t52 46.5t75.5 36.5t82.5 28t93 26
t88 25q154 47 154 240zM473 1188l80 133q34 55 74 51q14 -1 21.5 -13t4.5 -22q-5 -24 -37 -49l-137 -100h-6z" />
    <glyph glyph-name="ecircumflex" unicode="&#xea;" horiz-adv-x="946" 
d="M496 2q47 0 90.5 12.5t75.5 34t58 49.5t38.5 59t17.5 63.5t-6 62.5q-14 46 19 65q29 17 56 -3q25 -19 25 -58q0 -74 -52 -143t-139 -111.5t-183 -42.5q-109 1 -192.5 37t-134 100.5t-76 150t-25.5 189.5q0 132 58 243t168.5 179.5t250.5 68.5q142 0 231.5 -66t89.5 -179
q0 -86 -70 -148t-169 -90q-193 -50 -252 -73q-171 -64 -182 -161q-2 -15 0 -32q43 -106 109.5 -156.5t193.5 -50.5zM760 725q0 99 -55.5 159t-178.5 60q-89 0 -155.5 -34t-106.5 -95.5t-61 -138.5t-25 -172q-3 -124 6 -242q7 33 31 61t52 46.5t75.5 36.5t82.5 28t93 26
t88 25q154 47 154 240zM748 1108l-248 145l-246 -145q-5 -3 -7 -2t-1.5 3.5t2.5 4.5q43 44 126.5 126t123.5 126q3 3 6 0q40 -44 123.5 -126t126.5 -126q5 -5 -1 -7q-2 -1 -5 1z" />
    <glyph glyph-name="edieresis" unicode="&#xeb;" horiz-adv-x="946" 
d="M496 2q47 0 90.5 12.5t75.5 34t58 49.5t38.5 59t17.5 63.5t-6 62.5q-14 46 19 65q29 17 56 -3q25 -19 25 -58q0 -74 -52 -143t-139 -111.5t-183 -42.5q-109 1 -192.5 37t-134 100.5t-76 150t-25.5 189.5q0 132 58 243t168.5 179.5t250.5 68.5q142 0 231.5 -66t89.5 -179
q0 -86 -70 -148t-169 -90q-193 -50 -252 -73q-171 -64 -182 -161q-2 -15 0 -32q43 -106 109.5 -156.5t193.5 -50.5zM760 725q0 99 -55.5 159t-178.5 60q-89 0 -155.5 -34t-106.5 -95.5t-61 -138.5t-25 -172q-3 -124 6 -242q7 33 31 61t52 46.5t75.5 36.5t82.5 28t93 26
t88 25q154 47 154 240zM307 1130q-29 0 -49 20.5t-20 49.5t20 49.5t49 20.5t49.5 -20.5t20.5 -49.5t-20.5 -49.5t-49.5 -20.5zM639 1133q-29 0 -49.5 20t-20.5 49t20.5 49.5t49.5 20.5t49.5 -20.5t20.5 -49.5t-20.5 -49t-49.5 -20z" />
    <glyph glyph-name="igrave" unicode="&#xec;" horiz-adv-x="356" 
d="M121 866q0 48 -41 54h-62q-6 0 -6 6t6 6h240q6 0 6 -6t-6 -6h-31v-828q0 -28 16.5 -51t47.5 -23q27 0 43 18t16 46q0 6 6 6t6 -6q0 -90 -114 -90q-61 0 -94 40.5t-33 110.5v723zM197 1315l55 -129h-6l-115 102q-27 24 -27 49q0 10 7.5 19t21.5 10q17 2 35 -11t29 -40z
" />
    <glyph glyph-name="iacute" unicode="&#xed;" horiz-adv-x="356" 
d="M121 866q0 48 -41 54h-62q-6 0 -6 6t6 6h240q6 0 6 -6t-6 -6h-31v-828q0 -28 16.5 -51t47.5 -23q27 0 43 18t16 46q0 6 6 6t6 -6q0 -90 -114 -90q-61 0 -94 40.5t-33 110.5v723zM86 1188l80 133q34 55 74 51q14 -1 21.5 -13t4.5 -22q-5 -24 -37 -49l-137 -100h-6z" />
    <glyph glyph-name="icircumflex" unicode="&#xee;" horiz-adv-x="356" 
d="M121 866q0 48 -41 54h-62q-6 0 -6 6t6 6h240q6 0 6 -6t-6 -6h-31v-828q0 -28 16.5 -51t47.5 -23q27 0 43 18t16 46q0 6 6 6t6 -6q0 -90 -114 -90q-61 0 -94 40.5t-33 110.5v723zM426 1108l-248 145l-246 -145q-5 -3 -7 -2t-1.5 3.5t2.5 4.5q43 44 126.5 126t123.5 126
q3 3 6 0q40 -44 123.5 -126t126.5 -126q5 -5 -1 -7q-2 -1 -5 1z" />
    <glyph glyph-name="idieresis" unicode="&#xef;" horiz-adv-x="356" 
d="M12 1253q-29 0 -49 20.5t-20 49.5t20 49.5t49 20.5t49.5 -20.5t20.5 -49.5t-20.5 -49.5t-49.5 -20.5zM344 1255q-29 0 -49.5 20.5t-20.5 49.5t20.5 49.5t49.5 20.5t49.5 -20.5t20.5 -49.5t-20.5 -49.5t-49.5 -20.5zM121 866q0 48 -41 54h-62q-6 0 -6 6t6 6h240q6 0 6 -6
t-6 -6h-31v-828q0 -28 16.5 -51t47.5 -23q27 0 43 18t16 46q0 6 6 6t6 -6q0 -90 -114 -90q-61 0 -94 40.5t-33 110.5v723z" />
    <glyph glyph-name="eth" unicode="&#xf0;" horiz-adv-x="1015" 
d="M647 1280l-96 -94q175 -78 289 -254.5t114 -396.5v-80q0 -208 -122 -336.5t-322 -128.5q-201 0 -325 129t-124 336v24q0 211 123.5 344t333.5 133q106 0 193 -42t145 -117q-32 122 -117 223t-198 154l-101 -99q-7 -7 -11 0q-3 4 1 8l98 97q-97 43 -190 43h-10
q-7 0 -9 2.5t0.5 5t8.5 2.5h10q105 0 201 -41l98 96q7 7 11 0q3 -4 -1 -8zM172 485v-36q0 -208 89 -326.5t247 -118.5h4q157 0 244.5 118.5t87.5 326.5v36q0 211 -84 334t-240 123h-4q-166 0 -255 -123t-89 -334z" />
    <glyph glyph-name="ntilde" unicode="&#xf1;" 
d="M37 6q0 6 6 6h80q20 0 20 21v837q0 47 -41 50h-61q-6 0 -6 6t6 6h240q6 0 6 -6t-6 -6h-31v-211q50 109 137.5 177t196.5 68q146 0 226.5 -67.5t80.5 -163.5v-631q0 -29 16 -51.5t47 -22.5q27 0 43.5 18t16.5 46q0 6 6 6t6 -6q0 -90 -115 -90q-61 0 -94 40.5t-33 110.5
v568q0 64 -25 117.5t-81 86t-133 23.5q-94 -10 -172.5 -79.5t-122.5 -172.5v-653q0 -21 20 -21h76q6 0 6 -6t-6 -6h-303q-6 0 -6 6zM776 1325q0 -78 -35.5 -126t-101.5 -48q-49 0 -128 48t-122 48q-49 0 -77.5 -34t-28.5 -87q0 -4 -4 -4q-5 0 -5 4q0 84 41 132.5t109 48.5
q46 0 118.5 -44t119.5 -44q52 0 79 28t27 78q0 6 4 6t4 -6z" />
    <glyph glyph-name="ograve" unicode="&#xf2;" 
d="M516 956q92 0 171.5 -28.5t141.5 -84t98 -145t36 -202.5v-23q0 -135 -50 -242.5t-153.5 -173t-245.5 -65.5q-141 0 -243.5 65.5t-152.5 173t-50 242.5v23q0 55 20 113t57 104q0 69 54 125.5t138.5 87t178.5 30.5zM516 944q-130 0 -204 -73.5t-50 -165.5q11 -39 -6 -63.5
t-45 -23t-47 28.5q0 -1 7 -59t7 -92v-23q0 -103 19.5 -187.5t59.5 -148t105.5 -98.5t151.5 -35q115 0 192 62t110.5 164.5t33.5 242.5v23q0 119 -27.5 208t-75.5 140t-106 75.5t-125 24.5zM500 1315l55 -129h-6l-115 102q-26 23 -26 49t28 29q17 2 35 -11t29 -40z" />
    <glyph glyph-name="oacute" unicode="&#xf3;" 
d="M516 956q92 0 171.5 -28.5t141.5 -84t98 -145t36 -202.5v-23q0 -135 -50 -242.5t-153.5 -173t-245.5 -65.5q-141 0 -243.5 65.5t-152.5 173t-50 242.5v23q0 55 20 113t57 104q0 69 54 125.5t138.5 87t178.5 30.5zM516 944q-130 0 -204 -73.5t-50 -165.5q11 -39 -6 -63.5
t-45 -23t-47 28.5q0 -1 7 -59t7 -92v-23q0 -103 19.5 -187.5t59.5 -148t105.5 -98.5t151.5 -35q115 0 192 62t110.5 164.5t33.5 242.5v23q0 119 -27.5 208t-75.5 140t-106 75.5t-125 24.5zM459 1188l80 133q34 55 73 51q14 -1 22 -13t5 -22q-5 -24 -37 -49l-137 -100h-6z
" />
    <glyph glyph-name="ocircumflex" unicode="&#xf4;" 
d="M516 956q92 0 171.5 -28.5t141.5 -84t98 -145t36 -202.5v-23q0 -135 -50 -242.5t-153.5 -173t-245.5 -65.5q-141 0 -243.5 65.5t-152.5 173t-50 242.5v23q0 55 20 113t57 104q0 69 54 125.5t138.5 87t178.5 30.5zM516 944q-130 0 -204 -73.5t-50 -165.5q11 -39 -6 -63.5
t-45 -23t-47 28.5q0 -1 7 -59t7 -92v-23q0 -103 19.5 -187.5t59.5 -148t105.5 -98.5t151.5 -35q115 0 192 62t110.5 164.5t33.5 242.5v23q0 119 -27.5 208t-75.5 140t-106 75.5t-125 24.5zM752 1108l-248 145l-246 -145q-5 -3 -7 -2t-1.5 3.5t2.5 4.5q43 44 126.5 126
t123.5 126q3 3 6 0q40 -44 123.5 -126t126.5 -126q5 -5 -1 -7q-2 -1 -5 1z" />
    <glyph glyph-name="otilde" unicode="&#xf5;" 
d="M516 956q92 0 171.5 -28.5t141.5 -84t98 -145t36 -202.5v-23q0 -135 -50 -242.5t-153.5 -173t-245.5 -65.5q-141 0 -243.5 65.5t-152.5 173t-50 242.5v23q0 55 20 113t57 104q0 69 54 125.5t138.5 87t178.5 30.5zM516 944q-130 0 -204 -73.5t-50 -165.5q11 -39 -6 -63.5
t-45 -23t-47 28.5q0 -1 7 -59t7 -92v-23q0 -103 19.5 -187.5t59.5 -148t105.5 -98.5t151.5 -35q115 0 192 62t110.5 164.5t33.5 242.5v23q0 119 -27.5 208t-75.5 140t-106 75.5t-125 24.5zM766 1325q0 -78 -35.5 -126t-101.5 -48q-49 0 -128 48t-122 48q-49 0 -78 -34
t-29 -87q0 -4 -4 -4t-4 4q0 84 41 132.5t109 48.5q46 0 118 -44t119 -44q52 0 79.5 28t27.5 78q0 6 4 6t4 -6z" />
    <glyph glyph-name="odieresis" unicode="&#xf6;" 
d="M516 956q92 0 171.5 -28.5t141.5 -84t98 -145t36 -202.5v-23q0 -135 -50 -242.5t-153.5 -173t-245.5 -65.5q-141 0 -243.5 65.5t-152.5 173t-50 242.5v23q0 55 20 113t57 104q0 69 54 125.5t138.5 87t178.5 30.5zM516 944q-130 0 -204 -73.5t-50 -165.5q11 -39 -6 -63.5
t-45 -23t-47 28.5q0 -1 7 -59t7 -92v-23q0 -103 19.5 -187.5t59.5 -148t105.5 -98.5t151.5 -35q115 0 192 62t110.5 164.5t33.5 242.5v23q0 119 -27.5 208t-75.5 140t-106 75.5t-125 24.5zM338 1130q-29 0 -49.5 20.5t-20.5 49.5t20.5 49.5t49.5 20.5t49.5 -20.5t20.5 -49.5
t-20.5 -49.5t-49.5 -20.5zM670 1133q-29 0 -49.5 20t-20.5 49t20.5 49.5t49.5 20.5t49 -20.5t20 -49.5t-20 -49t-49 -20z" />
    <glyph glyph-name="divide" unicode="&#xf7;" horiz-adv-x="1474" 
d="M520 651l-293 -16q-15 0 -20.5 10.5t0.5 21.5t20 11l293 -16h434l293 16q15 0 20.5 -11t-0.5 -21.5t-20 -10.5l-293 16h-434zM651 1079q0 35 25.5 60.5t60.5 25.5t60.5 -25.5t25.5 -60.5t-25.5 -60.5t-60.5 -25.5t-60.5 25.5t-25.5 60.5zM651 236q0 35 25.5 60.5
t60.5 25.5t60.5 -25.5t25.5 -60.5t-25.5 -60.5t-60.5 -25.5t-60.5 25.5t-25.5 60.5z" />
    <glyph glyph-name="oslash" unicode="&#xf8;" horiz-adv-x="1017" 
d="M510 956q80 0 147 -20l29 102q6 18 18 14q13 -5 7 -22l-45 -98q132 -42 211 -153t79 -283v-23q0 -135 -50 -242.5t-153 -173t-245 -65.5q-91 0 -170 28l-31 -114q-3 -8 -10.5 -10t-12.5 4t-1 14l47 109q-130 52 -199.5 172t-69.5 278v23q0 54 20.5 112.5t57.5 104.5
q0 69 54 125.5t138.5 87t178.5 30.5zM844 496q0 312 -187 413l-311 -866q62 -39 162 -39q115 0 192 62t110.5 164.5t33.5 242.5v23zM510 944q-130 0 -204 -73.5t-50 -165.5q11 -39 -6 -63.5t-45 -23t-47 28.5q0 -1 7 -59t7 -92v-23q0 -320 168 -426l311 864q-65 33 -141 33z
" />
    <glyph glyph-name="ugrave" unicode="&#xf9;" horiz-adv-x="1048" 
d="M905 911v-819q0 -28 16.5 -51t47.5 -23q27 0 43 18t16 46q0 6 6 6t6 -6q0 -90 -114 -90q-61 0 -94 40.5t-33 110.5v301q-32 -128 -83.5 -227t-130.5 -163t-173 -64q-287 0 -287 303v577q0 47 -41 50h-61q-7 0 -7 6t7 6h270q6 0 6 -6t-6 -6h-62v-633q0 -75 11.5 -128.5
t28 -82.5t44 -45.5t51 -20.5t56.5 -4q70 0 132 39t108.5 107.5t81 153.5t55.5 183v422q0 21 20 21h66q20 0 20 -21zM526 1315l56 -129h-7l-114 102q-27 24 -27 49q0 10 7.5 19t21.5 10q40 4 63 -51z" />
    <glyph glyph-name="uacute" unicode="&#xfa;" horiz-adv-x="1048" 
d="M905 911v-819q0 -28 16.5 -51t47.5 -23q27 0 43 18t16 46q0 6 6 6t6 -6q0 -90 -114 -90q-61 0 -94 40.5t-33 110.5v301q-32 -128 -83.5 -227t-130.5 -163t-173 -64q-287 0 -287 303v577q0 47 -41 50h-61q-7 0 -7 6t7 6h270q6 0 6 -6t-6 -6h-62v-633q0 -75 11.5 -128.5
t28 -82.5t44 -45.5t51 -20.5t56.5 -4q70 0 132 39t108.5 107.5t81 153.5t55.5 183v422q0 21 20 21h66q20 0 20 -21zM467 1188l80 133q34 55 74 51q14 -1 21.5 -13t4.5 -22q-5 -24 -37 -49l-137 -100h-6z" />
    <glyph glyph-name="ucircumflex" unicode="&#xfb;" horiz-adv-x="1048" 
d="M905 911v-819q0 -28 16.5 -51t47.5 -23q27 0 43 18t16 46q0 6 6 6t6 -6q0 -90 -114 -90q-61 0 -94 40.5t-33 110.5v301q-32 -128 -83.5 -227t-130.5 -163t-173 -64q-287 0 -287 303v577q0 47 -41 50h-61q-7 0 -7 6t7 6h270q6 0 6 -6t-6 -6h-62v-633q0 -75 11.5 -128.5
t28 -82.5t44 -45.5t51 -20.5t56.5 -4q70 0 132 39t108.5 107.5t81 153.5t55.5 183v422q0 21 20 21h66q20 0 20 -21zM762 1108l-248 145l-246 -145q-5 -3 -7 -2t-1.5 3.5t2.5 4.5q43 44 126.5 126t123.5 126q3 3 6 0q40 -44 123.5 -126t126.5 -126q5 -5 -1 -7q-2 -1 -5 1z
" />
    <glyph glyph-name="udieresis" unicode="&#xfc;" horiz-adv-x="1048" 
d="M905 911v-819q0 -28 16.5 -51t47.5 -23q27 0 43 18t16 46q0 6 6 6t6 -6q0 -90 -114 -90q-61 0 -94 40.5t-33 110.5v301q-32 -128 -83.5 -227t-130.5 -163t-173 -64q-287 0 -287 303v577q0 47 -41 50h-61q-7 0 -7 6t7 6h270q6 0 6 -6t-6 -6h-62v-633q0 -75 11.5 -128.5
t28 -82.5t44 -45.5t51 -20.5t56.5 -4q70 0 132 39t108.5 107.5t81 153.5t55.5 183v422q0 21 20 21h66q20 0 20 -21zM352 1130q-29 0 -49 20.5t-20 49.5t20 49.5t49 20.5t49.5 -20.5t20.5 -49.5t-20.5 -49.5t-49.5 -20.5zM684 1133q-29 0 -49.5 20t-20.5 49t20.5 49.5
t49.5 20.5t49.5 -20.5t20.5 -49.5t-20.5 -49t-49.5 -20z" />
    <glyph glyph-name="yacute" unicode="&#xfd;" horiz-adv-x="999" 
d="M768 758l-262 -721l-14 -39l-23 -61q-95 -260 -245.5 -365t-325.5 -35q-69 28 -74 75q-4 33 25 48q24 12 53 -4q88 -50 165.5 -60.5t135.5 12.5t107.5 74.5t83 114.5t61.5 142l22 67q-19 -13 -57 17l-350 897h-115q-6 0 -6 6t6 6h348q6 0 6 -6t-6 -6h-119l324 -832
l246 666q21 56 13.5 93t-30.5 55t-55 18h-27q-6 0 -6 6t6 6h320q6 0 6 -6t-6 -6h-19q-71 0 -117.5 -49t-70.5 -113zM414 1188l80 133q34 55 73 51q14 -1 22 -13t5 -22q-5 -24 -37 -49l-137 -100h-6z" />
    <glyph glyph-name="thorn" unicode="&#xfe;" horiz-adv-x="1056" 
d="M-2 1475q0 6 6 6h213q10 0 10 -11v-706q51 93 137.5 142.5t184.5 49.5q92 0 171.5 -28.5t141.5 -84t97.5 -145t35.5 -202.5v-23q0 -208 -114.5 -344.5t-317.5 -136.5q-106 0 -194.5 46.5t-141.5 151.5v-669q0 -21 21 -21h59q6 0 6 -6t-6 -6h-268q-6 0 -6 6t6 6h61
q21 0 21 21v1898q0 46 -41 49h-76q-6 0 -6 7zM549 944q-107 0 -192.5 -55.5t-129.5 -155.5v-508q46 -103 131.5 -162t204.5 -59q160 0 240 128t80 341v23q0 119 -27.5 208t-75.5 140t-106 75.5t-125 24.5z" />
    <glyph glyph-name="ydieresis" unicode="&#xff;" horiz-adv-x="999" 
d="M768 758l-262 -721l-14 -39l-23 -61q-95 -260 -245.5 -365t-325.5 -35q-69 28 -74 75q-4 33 25 48q24 12 53 -4q88 -50 165.5 -60.5t135.5 12.5t107.5 74.5t83 114.5t61.5 142l22 67q-19 -13 -57 17l-350 897h-115q-6 0 -6 6t6 6h348q6 0 6 -6t-6 -6h-119l324 -832
l246 666q21 56 13.5 93t-30.5 55t-55 18h-27q-6 0 -6 6t6 6h320q6 0 6 -6t-6 -6h-19q-71 0 -117.5 -49t-70.5 -113zM334 1130q-29 0 -49.5 20.5t-20.5 49.5t20.5 49.5t49.5 20.5t49 -20.5t20 -49.5t-20 -49.5t-49 -20.5zM666 1133q-29 0 -49.5 20t-20.5 49t20.5 49.5
t49.5 20.5t49 -20.5t20 -49.5t-20 -49t-49 -20z" />
    <glyph glyph-name="Amacron" unicode="&#x100;" horiz-adv-x="1294" 
d="M528 1405q-8 0 -8 8t8 8h215l527 -1405h110q6 0 8.5 -4t0.5 -8t-9 -4h-342q-8 0 -8 8t8 8h115l-215 574h-596l-209 -574h109q7 0 9.5 -4t0 -8t-9.5 -4h-236q-9 0 -9 8t9 8h109l215 590l291 799h-93zM635 1397l-287 -791h584zM362 1608v16h570v-16h-570z" />
    <glyph glyph-name="amacron" unicode="&#x101;" horiz-adv-x="942" 
d="M692 463q-29 -208 -134.5 -340.5t-260.5 -132.5q-121 0 -183.5 55.5t-62.5 159.5q0 52 20.5 92.5t50.5 65t82.5 47.5t96 35.5t113.5 32t114 34.5q55 19 89.5 42.5t50.5 55.5t21 61t5 74q0 88 -50 143.5t-163 55.5q-69 0 -122.5 -25t-80 -64t-35.5 -86.5t11 -92.5
q17 -49 -17 -76q-30 -25 -63 -7q-35 21 -39 79q-8 118 88.5 201t257.5 83q160 0 239 -64.5t79 -168.5v-631q0 -29 16 -51.5t47 -22.5q27 0 43.5 18t16.5 46q0 6 6 6t6 -6q0 -90 -115 -90q-61 0 -94 40.5t-33 110.5v320zM315 14q83 0 152.5 46t114.5 122.5t73 167t37 187.5
v94q-12 -44 -44.5 -71t-108.5 -58q-26 -10 -76.5 -25.5t-85 -26.5t-77.5 -32.5t-69 -47t-44.5 -66.5t-18.5 -93v-18q0 -82 38.5 -130.5t108.5 -48.5zM207 1122v17h569v-17h-569z" />
    <glyph glyph-name="Abreve" unicode="&#x102;" horiz-adv-x="1331" 
d="M528 1405q-8 0 -8 8t8 8h215l527 -1405h110q6 0 8.5 -4t0.5 -8t-9 -4h-342q-8 0 -8 8t8 8h115l-215 574h-596l-209 -574h109q7 0 9.5 -4t0 -8t-9.5 -4h-236q-9 0 -9 8t9 8h109l215 590l291 799h-93zM635 1397l-287 -791h584zM641 1575q-70 0 -125 59t-55 156
q0 20 14.5 30t29.5 1.5t15 -31.5q0 -11 -13.5 -25.5t-22 -26t0.5 -20.5q41 -51 156 -51h8q117 0 158 51q9 11 -14 35.5t-23 36.5q0 25 15 33.5t29.5 -2t14.5 -31.5q0 -97 -55 -156t-125 -59h-8z" />
    <glyph glyph-name="abreve" unicode="&#x103;" horiz-adv-x="942" 
d="M692 463q-29 -208 -134.5 -340.5t-260.5 -132.5q-121 0 -183.5 55.5t-62.5 159.5q0 52 20.5 92.5t50.5 65t82.5 47.5t96 35.5t113.5 32t114 34.5q55 19 89.5 42.5t50.5 55.5t21 61t5 74q0 88 -50 143.5t-163 55.5q-69 0 -122.5 -25t-80 -64t-35.5 -86.5t11 -92.5
q17 -49 -17 -76q-30 -25 -63 -7q-35 21 -39 79q-8 118 88.5 201t257.5 83q160 0 239 -64.5t79 -168.5v-631q0 -29 16 -51.5t47 -22.5q27 0 43.5 18t16.5 46q0 6 6 6t6 -6q0 -90 -115 -90q-61 0 -94 40.5t-33 110.5v320zM315 14q83 0 152.5 46t114.5 122.5t73 167t37 187.5
v94q-12 -44 -44.5 -71t-108.5 -58q-26 -10 -76.5 -25.5t-85 -26.5t-77.5 -32.5t-69 -47t-44.5 -66.5t-18.5 -93v-18q0 -82 38.5 -130.5t108.5 -48.5zM465 1090q-70 0 -125 59t-55 156q0 20 14.5 30t29.5 1.5t15 -31.5q0 -11 -13.5 -25.5t-22 -26t0.5 -20.5q41 -51 156 -51h8
q117 0 158 51q9 11 -14 35.5t-23 36.5q0 25 15 33.5t29.5 -2t14.5 -31.5q0 -97 -55 -156t-125 -59h-8z" />
    <glyph glyph-name="Aogonek" unicode="&#x104;" horiz-adv-x="1294" 
d="M1278 -279l6 5l2 -2q0 -11 -36 -29.5t-66 -18.5q-26 0 -53 6t-56.5 19.5t-48 42t-18.5 68.5q0 126 161 188h-131q-8 0 -8 8t8 8h115l-215 574h-596l-209 -574h109q7 0 9.5 -4t0 -8t-9.5 -4h-236q-9 0 -9 8t9 8h109l215 590l291 799h-93q-8 0 -8 8t8 8h215l527 -1405h110
q6 0 8.5 -4t0.5 -8t-9 -4h-186q-45 -25 -66.5 -80t-21.5 -110q0 -57 22.5 -88t65.5 -31q46 0 84 30zM635 1397l-287 -791h584z" />
    <glyph glyph-name="aogonek" unicode="&#x105;" horiz-adv-x="942" 
d="M891 -287l6 4l2 -2q0 -11 -36 -29t-66 -18q-26 0 -53 5.5t-56.5 19t-48 42t-18.5 68.5q0 129 170 193q-47 7 -73 46t-26 101v320q-29 -208 -134.5 -340.5t-260.5 -132.5q-121 0 -183.5 55.5t-62.5 159.5q0 52 20.5 92.5t50.5 65t82.5 47.5t96 35.5t113.5 32t114 34.5
q55 19 89.5 42.5t50.5 55.5t21 61t5 74q0 88 -50 143.5t-163 55.5q-69 0 -122.5 -25t-80 -64t-35.5 -86.5t11 -92.5q17 -49 -17 -76q-30 -25 -63 -7q-35 21 -39 79q-8 118 88.5 201t257.5 83q160 0 239 -64.5t79 -168.5v-631q0 -29 16 -51.5t47 -22.5q27 0 43.5 18t16.5 46
q0 6 6 6t6 -6q0 -90 -115 -90h-12q-45 -25 -66.5 -80.5t-21.5 -110.5q0 -118 88 -118q46 0 84 30zM315 14q83 0 152.5 46t114.5 122.5t73 167t37 187.5v94q-12 -44 -44.5 -71t-108.5 -58q-26 -10 -76.5 -25.5t-85 -26.5t-77.5 -32.5t-69 -47t-44.5 -66.5t-18.5 -93v-18
q0 -82 38.5 -130.5t108.5 -48.5z" />
    <glyph glyph-name="Cacute" unicode="&#x106;" horiz-adv-x="1226" 
d="M694 -33h-2q-131 0 -242 46t-196.5 137t-133.5 238t-48 337q0 143 34.5 263t94.5 204t141.5 143t175 87t195.5 28q123 0 226 -40t161.5 -108t56.5 -147q-2 -68 -47 -87q-36 -15 -63 12.5t-17 78.5q10 52 -6 101t-54.5 87.5t-104.5 62t-148 24.5h-4q-110 1 -201.5 -39.5
t-163 -123t-111.5 -222t-40 -324.5q0 -161 25 -287.5t68.5 -211t107 -140t136 -79.5t158.5 -25h2q86 0 158 27t116 70.5t64.5 97.5t11.5 108q-9 57 30 81q34 21 66 -2t31 -75q-2 -122 -145 -222t-332 -100zM625 1673l80 133q34 56 73 52q14 -1 22 -13t5 -22q-5 -24 -37 -49
l-137 -101h-6z" />
    <glyph glyph-name="cacute" unicode="&#x107;" horiz-adv-x="925" 
d="M528 946h-14q-147 0 -242.5 -117.5t-95.5 -343.5v-22q0 -106 17 -187.5t54.5 -145t103 -97t157.5 -33.5q97 0 165 47t90.5 111.5t2.5 124.5q-14 42 17 63q28 19 56 0q24 -17 27 -57q9 -113 -101 -206t-257 -93q-112 1 -198.5 37t-140.5 100t-81 149t-27 187v22
q0 90 26.5 168t71 132.5t103 94t123 58t129.5 18.5h14q158 0 253 -69t83 -180q-6 -59 -49 -69q-32 -8 -52 17q-16 21 -5 50q36 91 -28 166t-202 75zM428 1188l80 133q34 55 74 51q14 -1 21.5 -13t4.5 -22q-5 -24 -37 -49l-137 -100h-6z" />
    <glyph glyph-name="Ccircumflex" unicode="&#x108;" horiz-adv-x="1226" 
d="M694 -33h-2q-131 0 -242 46t-196.5 137t-133.5 238t-48 337q0 143 34.5 263t94.5 204t141.5 143t175 87t195.5 28q123 0 226 -40t161.5 -108t56.5 -147q-2 -68 -47 -87q-36 -15 -63 12.5t-17 78.5q10 52 -6 101t-54.5 87.5t-104.5 62t-148 24.5h-4q-110 1 -201.5 -39.5
t-163 -123t-111.5 -222t-40 -324.5q0 -161 25 -287.5t68.5 -211t107 -140t136 -79.5t158.5 -25h2q86 0 158 27t116 70.5t64.5 97.5t11.5 108q-9 57 30 81q34 21 66 -2t31 -75q-2 -122 -145 -222t-332 -100zM954 1593l-247 146l-246 -146q-5 -3 -7 -2t-1.5 3.5t2.5 4.5
q43 44 126.5 126t123.5 126q3 3 6 0q40 -44 123.5 -126t126.5 -126q2 -2 1.5 -4.5t-3 -3t-5.5 1.5z" />
    <glyph glyph-name="Cdotaccent" unicode="&#x10a;" horiz-adv-x="1222" 
d="M690 -33h-2q-131 0 -242 46t-196.5 137t-133.5 238t-48 337q0 143 34.5 263t94.5 204t141.5 143t175 87t195.5 28q123 0 226 -40t161.5 -108t56.5 -147q-2 -68 -47 -87q-36 -15 -63 12.5t-17 78.5q10 52 -6 101t-54.5 87.5t-104.5 62t-148 24.5h-4q-110 1 -201.5 -39.5
t-163 -123t-111.5 -222t-40 -324.5q0 -161 25 -287.5t68.5 -211t107 -140t136 -79.5t158.5 -25h2q86 0 158 27t116 70.5t64.5 97.5t11.5 108q-9 57 30 81q34 21 66 -2t31 -75q-2 -122 -145 -222t-332 -100zM633 1808q0 31 19 50.5t50 19.5t50.5 -19.5t19.5 -50.5t-19.5 -50
t-50.5 -19t-50 19t-19 50z" />
    <glyph glyph-name="Ccaron" unicode="&#x10c;" horiz-adv-x="1226" 
d="M694 -33h-2q-131 0 -242 46t-196.5 137t-133.5 238t-48 337q0 143 34.5 263t94.5 204t141.5 143t175 87t195.5 28q123 0 226 -40t161.5 -108t56.5 -147q-2 -68 -47 -87q-36 -15 -63 12.5t-17 78.5q10 52 -6 101t-54.5 87.5t-104.5 62t-148 24.5h-4q-110 1 -201.5 -39.5
t-163 -123t-111.5 -222t-40 -324.5q0 -161 25 -287.5t68.5 -211t107 -140t136 -79.5t158.5 -25h2q86 0 158 27t116 70.5t64.5 97.5t11.5 108q-9 57 30 81q34 21 66 -2t31 -75q-2 -122 -145 -222t-332 -100zM713 1587q-2 0 -2 2q-40 44 -123.5 126t-126.5 126q-6 6 -1 8
q2 1 7 -2l246 -145l248 145q3 2 5 1t2.5 -3t-1.5 -4q-43 -44 -126.5 -126t-123.5 -126z" />
    <glyph glyph-name="ccaron" unicode="&#x10d;" horiz-adv-x="925" 
d="M528 946h-14q-147 0 -242.5 -117.5t-95.5 -343.5v-22q0 -106 17 -187.5t54.5 -145t103 -97t157.5 -33.5q97 0 165 47t90.5 111.5t2.5 124.5q-14 42 17 63q28 19 56 0q24 -17 27 -57q9 -113 -101 -206t-257 -93q-112 1 -198.5 37t-140.5 100t-81 149t-27 187v22
q0 90 26.5 168t71 132.5t103 94t123 58t129.5 18.5h14q158 0 253 -69t83 -180q-6 -59 -49 -69q-32 -8 -52 17q-16 21 -5 50q36 91 -28 166t-202 75zM516 1102q-2 0 -2 2q-40 44 -123.5 126t-126.5 126q-6 6 -1 8q2 1 7 -2l246 -145l248 145q3 2 5 1t2.5 -3t-1.5 -4
q-43 -44 -126.5 -126t-123.5 -126z" />
    <glyph glyph-name="Dcaron" unicode="&#x10e;" horiz-adv-x="1222" 
d="M70 1405q-6 0 -6 8t6 8h452q94 0 185.5 -24t177 -78.5t150.5 -133t104 -195.5t39 -259t-34 -262.5t-93 -205.5t-138.5 -145t-171 -88.5t-190.5 -29.5h-481q-6 0 -7.5 4t0.5 8t7 4h90q20 0 20 21v1347q0 21 -20 21h-90zM522 1405h-205q-20 0 -20 -21v-1347q0 -21 20 -21
h228q85 1 160 26.5t139.5 81.5t110.5 138t72 201.5t26 267.5q0 146 -30 263t-80.5 193t-120 126.5t-144 71.5t-156.5 20zM524 1587q-2 0 -2 2q-40 44 -123.5 126t-126.5 126q-2 2 -2 4.5t2 3.5t7 -2l245 -145l248 145q3 2 5 1t2.5 -3t-1.5 -4q-43 -44 -126.5 -126
t-123.5 -126z" />
    <glyph glyph-name="dcaron" unicode="&#x10f;" horiz-adv-x="1361" 
d="M760 442q-24 -88 -60 -165t-84 -142.5t-112 -104t-135 -38.5q-59 0 -110 19t-97.5 62t-73.5 125.5t-27 196.5v43q0 121 45 221t120 163.5t170.5 98t199.5 33.5l164 -2v467q0 46 -41 49h-107q-5 0 -7 3t0 6.5t7 3.5h285q5 0 7 -3.5t0.5 -6.5t-7.5 -3h-31v-1376
q0 -28 16.5 -51t47.5 -23q27 0 43 18t16 46q0 6 6 6t6 -6q0 -90 -114 -90q-61 0 -94 40.5t-33 110.5v299zM170 440v-41q0 -395 190 -395h9q75 0 141.5 44t114 117.5t81.5 158t54 176.5v442h-156q-198 0 -316 -137t-118 -365zM1153 1180q-6 -4 -7.5 -0.5t3.5 6.5
q25 20 34 36.5t5 47.5q-3 25 -24 55.5t-21 52.5q0 18 10.5 28.5t28.5 10.5q21 0 35 -17.5t14 -53.5q0 -107 -78 -166z" />
    <glyph glyph-name="Dcroat" unicode="&#x110;" horiz-adv-x="1206" 
d="M72 0q-6 0 -7.5 4t0.5 8t7 4h90q20 0 20 21v700h-84q-9 0 -9 8.5t9 8.5h84v630q0 21 -20 21h-90q-6 0 -6 8t6 8h452q94 0 185.5 -24t177 -78.5t150.5 -133t104 -195.5t39 -259q0 -177 -52.5 -319.5t-141.5 -230.5t-201.5 -134.5t-237.5 -46.5h-475zM502 737h-203v-700
q0 -21 20 -21h228q85 1 160 26.5t139.5 81.5t110.5 138t72 201.5t26 267.5q0 146 -30 263t-80.5 193t-120 126.5t-144 71.5t-156.5 20h-205q-20 0 -20 -21v-630h203q8 0 8 -8.5t-8 -8.5z" />
    <glyph glyph-name="dcroat" unicode="&#x111;" horiz-adv-x="999" 
d="M612 1468q-5 0 -7 3t0 6.5t7 3.5h285q5 0 7 -3.5t0.5 -6.5t-7.5 -3h-31v-352h58v-14h-58v-1010q0 -28 16.5 -51t47.5 -23q27 0 43 18t16 46q0 6 6 6t6 -6q0 -90 -114 -90q-61 0 -94 40.5t-33 110.5v299q-24 -88 -60 -165t-84 -142.5t-112 -104t-135 -38.5q-59 0 -110 19
t-97.5 62t-73.5 125.5t-27 196.5v43q0 121 45 221t120 163.5t170.5 98t199.5 33.5l164 -2v150h-252v14h252v303q0 43 -39 49h-109zM170 440v-41q0 -395 190 -395h9q75 0 141.5 44t114 117.5t81.5 158t54 176.5v442h-156q-198 0 -316 -137t-118 -365z" />
    <glyph glyph-name="Emacron" unicode="&#x112;" horiz-adv-x="1101" 
d="M625 811h-314q-14 0 -14 -14v-766q0 -15 14 -15h547q60 0 113 64.5t53 142.5v33h16v-256h-970q-6 0 -6 8t6 8h96q14 0 14 15v1360q0 14 -14 14h-96q-8 0 -8 8t8 8h886v-239h-16v32q0 81 -51 136t-148 55h-430q-14 0 -14 -14v-549q0 -15 14 -15h314q65 0 111 36t46 98v6
h17v-295h-17v14q0 60 -46 92.5t-111 32.5zM266 1608v16h570v-16h-570z" />
    <glyph glyph-name="emacron" unicode="&#x113;" horiz-adv-x="925" 
d="M487 2q93 0 164.5 45.5t100.5 110.5t10 125q-14 46 19 65q29 17 56 -3q25 -19 25 -58q0 -74 -52 -143t-139.5 -111.5t-183.5 -42.5q-109 1 -192.5 37t-134 100.5t-76 150t-25.5 189.5q0 132 58 243t169 179.5t251 68.5q142 0 231.5 -66t89.5 -179q0 -86 -70 -148
t-170 -90q-193 -50 -252 -73q-171 -64 -182 -161q-2 -15 0 -32q43 -106 109.5 -156.5t193.5 -50.5zM752 725q0 99 -55.5 159t-178.5 60q-89 0 -155.5 -34t-106.5 -95.5t-61 -138.5t-25 -172q-3 -124 6 -242q7 33 31 61t52 46.5t75.5 36.5t82.5 28t93 26t88 25
q154 47 154 240zM217 1122v17h569v-17h-569z" />
    <glyph glyph-name="Ebreve" unicode="&#x114;" horiz-adv-x="1101" 
d="M625 811h-314q-14 0 -14 -14v-766q0 -15 14 -15h547q60 0 113 64.5t53 142.5v33h16v-256h-970q-6 0 -6 8t6 8h96q14 0 14 15v1360q0 14 -14 14h-96q-8 0 -8 8t8 8h886v-239h-16v32q0 81 -51 136t-148 55h-430q-14 0 -14 -14v-549q0 -15 14 -15h314q65 0 111 36t46 98v6
h17v-295h-17v14q0 60 -46 92.5t-111 32.5zM545 1575q-70 0 -125 59t-55 156q0 20 14.5 30t29.5 1.5t15 -31.5q0 -11 -13.5 -25.5t-22 -26t0.5 -20.5q41 -51 156 -51h8q117 0 158 51q9 11 -14 35.5t-23 36.5q0 25 15 33.5t29.5 -2t14.5 -31.5q0 -97 -55 -156t-125 -59h-8z
" />
    <glyph glyph-name="ebreve" unicode="&#x115;" horiz-adv-x="925" 
d="M487 2q93 0 164.5 45.5t100.5 110.5t10 125q-14 46 19 65q29 17 56 -3q25 -19 25 -58q0 -74 -52 -143t-139.5 -111.5t-183.5 -42.5q-109 1 -192.5 37t-134 100.5t-76 150t-25.5 189.5q0 132 58 243t169 179.5t251 68.5q142 0 231.5 -66t89.5 -179q0 -86 -70 -148
t-170 -90q-193 -50 -252 -73q-171 -64 -182 -161q-2 -15 0 -32q43 -106 109.5 -156.5t193.5 -50.5zM752 725q0 99 -55.5 159t-178.5 60q-89 0 -155.5 -34t-106.5 -95.5t-61 -138.5t-25 -172q-3 -124 6 -242q7 33 31 61t52 46.5t75.5 36.5t82.5 28t93 26t88 25
q154 47 154 240zM477 1090q-70 0 -125 59t-55 156q0 20 14.5 30t29.5 1.5t15 -31.5q0 -11 -13.5 -26.5t-21 -24t0.5 -21.5q41 -51 155 -51h8q117 0 158 51q9 11 -14 35.5t-23 36.5q0 25 15 33.5t30 -2t15 -31.5q0 -97 -55.5 -156t-125.5 -59h-8z" />
    <glyph glyph-name="Edotaccent" unicode="&#x116;" horiz-adv-x="1101" 
d="M625 811h-314q-14 0 -14 -14v-766q0 -15 14 -15h547q60 0 113 64.5t53 142.5v33h16v-256h-970q-6 0 -6 8t6 8h96q14 0 14 15v1360q0 14 -14 14h-96q-8 0 -8 8t8 8h886v-239h-16v32q0 81 -51 136t-148 55h-430q-14 0 -14 -14v-549q0 -15 14 -15h314q65 0 111 36t46 98v6
h17v-295h-17v14q0 60 -46 92.5t-111 32.5zM506 1808q0 31 19 50.5t50 19.5t50.5 -19.5t19.5 -50.5t-19.5 -50t-50.5 -19t-50 19t-19 50z" />
    <glyph glyph-name="edotaccent" unicode="&#x117;" horiz-adv-x="925" 
d="M487 2q93 0 164.5 45.5t100.5 110.5t10 125q-14 46 19 65q29 17 56 -3q25 -19 25 -58q0 -74 -52 -143t-139.5 -111.5t-183.5 -42.5q-109 1 -192.5 37t-134 100.5t-76 150t-25.5 189.5q0 132 58 243t169 179.5t251 68.5q142 0 231.5 -66t89.5 -179q0 -86 -70 -148
t-170 -90q-193 -50 -252 -73q-171 -64 -182 -161q-2 -15 0 -32q43 -106 109.5 -156.5t193.5 -50.5zM752 725q0 99 -55.5 159t-178.5 60q-89 0 -155.5 -34t-106.5 -95.5t-61 -138.5t-25 -172q-3 -124 6 -242q7 33 31 61t52 46.5t75.5 36.5t82.5 28t93 26t88 25
q154 47 154 240zM426 1323q0 31 19.5 50.5t50.5 19.5t50 -19.5t19 -50.5t-19 -50.5t-50 -19.5t-50.5 19.5t-19.5 50.5z" />
    <glyph glyph-name="Eogonek" unicode="&#x118;" horiz-adv-x="1101" 
d="M688 -281l6 5l2 -3q0 -11 -36 -29t-66 -18q-26 0 -53 6t-56.5 19.5t-48 42t-18.5 68.5q0 126 168 190h-516q-6 0 -6 8t6 8h96q14 0 14 15v1360q0 14 -14 14h-96q-8 0 -8 8t8 8h886v-239h-16v32q0 81 -51 136t-148 55h-430q-14 0 -14 -14v-549q0 -15 14 -15h314
q65 0 111 36t46 98v6h17v-295h-17v14q0 60 -46 92.5t-111 32.5h-314q-14 0 -14 -14v-766q0 -15 14 -15h547q60 0 113 64.5t53 142.5v33h16v-256h-432q-48 -24 -70 -80t-22 -113q0 -118 88 -118q46 0 84 30z" />
    <glyph glyph-name="eogonek" unicode="&#x119;" horiz-adv-x="925" 
d="M596 -293l6 4l2 -2q0 -11 -36 -29t-66 -18q-26 0 -53 5.5t-56.5 19t-48 42t-18.5 68.5q0 129 174 193h-13q-109 1 -192.5 37t-134 100.5t-76 150t-25.5 189.5q0 132 58 243t169 179.5t251 68.5q142 0 231.5 -66t89.5 -179q0 -86 -70 -148t-170 -90q-193 -50 -252 -73
q-171 -64 -182 -161q-2 -15 0 -32q43 -106 109.5 -156.5t193.5 -50.5q93 0 164.5 45.5t100.5 110.5t10 125q-14 46 19 65q29 17 56 -3q25 -19 25 -58q0 -105 -101 -194t-235 -101q-53 -21 -77.5 -79t-24.5 -118q0 -57 22.5 -88t65.5 -31q44 0 84 31zM752 725q0 99 -55.5 159
t-178.5 60q-89 0 -155.5 -34t-106.5 -95.5t-61 -138.5t-25 -172q-3 -124 6 -242q7 33 31 61t52 46.5t75.5 36.5t82.5 28t93 26t88 25q154 47 154 240z" />
    <glyph glyph-name="Ecaron" unicode="&#x11a;" horiz-adv-x="1101" 
d="M625 811h-314q-14 0 -14 -14v-766q0 -15 14 -15h547q60 0 113 64.5t53 142.5v33h16v-256h-970q-6 0 -6 8t6 8h96q14 0 14 15v1360q0 14 -14 14h-96q-8 0 -8 8t8 8h886v-239h-16v32q0 81 -51 136t-148 55h-430q-14 0 -14 -14v-549q0 -15 14 -15h314q65 0 111 36t46 98v6
h17v-295h-17v14q0 60 -46 92.5t-111 32.5zM549 1587q-2 0 -2 2q-40 44 -123.5 126t-126.5 126q-6 6 -1 8q2 1 7 -2l246 -145l248 145q3 2 5 1t2.5 -3t-1.5 -4q-43 -44 -126.5 -126t-123.5 -126z" />
    <glyph glyph-name="ecaron" unicode="&#x11b;" horiz-adv-x="925" 
d="M487 2q93 0 164.5 45.5t100.5 110.5t10 125q-14 46 19 65q29 17 56 -3q25 -19 25 -58q0 -74 -52 -143t-139.5 -111.5t-183.5 -42.5q-109 1 -192.5 37t-134 100.5t-76 150t-25.5 189.5q0 132 58 243t169 179.5t251 68.5q142 0 231.5 -66t89.5 -179q0 -86 -70 -148
t-170 -90q-193 -50 -252 -73q-171 -64 -182 -161q-2 -15 0 -32q43 -106 109.5 -156.5t193.5 -50.5zM752 725q0 99 -55.5 159t-178.5 60q-89 0 -155.5 -34t-106.5 -95.5t-61 -138.5t-25 -172q-3 -124 6 -242q7 33 31 61t52 46.5t75.5 36.5t82.5 28t93 26t88 25
q154 47 154 240zM479 1102q-2 0 -2 2q-40 44 -123.5 126t-126.5 126q-6 6 -1 8q2 1 7 -2l246 -145l248 145q3 2 5 1t2.5 -3t-1.5 -4q-43 -44 -126.5 -126t-123.5 -126z" />
    <glyph glyph-name="Gcircumflex" unicode="&#x11c;" horiz-adv-x="1366" 
d="M672 1438q-101 1 -184 -39t-148.5 -123t-102 -223.5t-36.5 -327.5q0 -369 128 -556t337 -187q63 0 118.5 14t106.5 46t87.5 80.5t58.5 122.5t22 167v198h-113q-9 0 -9 8.5t9 8.5h326q7 0 9.5 -4.5t0 -8.5t-9.5 -4h-92v-610q0 -7 -4 -9.5t-8.5 0t-4.5 9.5v160q0 30 -16 35
t-35 -21q-143 -205 -446 -205q-124 0 -230 48t-187 140t-127 238t-46 330q0 182 49 324t133 228t189 129.5t225 43.5h2q96 0 177.5 -23t136.5 -60t94 -84t57 -95.5t18 -93.5q0 -55 -42 -74q-36 -16 -63 8q-26 24 -16 70q13 65 -0.5 124.5t-54 109t-120 78.5t-189.5 28z
M946 1593l-248 146l-245 -146q-5 -3 -7 -2t-2 3.5t2 4.5q43 44 126.5 126t123.5 126q3 3 6 0q40 -44 123.5 -126t126.5 -126q5 -5 -1 -7q-2 -1 -5 1z" />
    <glyph glyph-name="Gbreve" unicode="&#x11e;" horiz-adv-x="1366" 
d="M672 1438q-101 1 -184 -39t-148.5 -123t-102 -223.5t-36.5 -327.5q0 -369 128 -556t337 -187q63 0 118.5 14t106.5 46t87.5 80.5t58.5 122.5t22 167v198h-113q-9 0 -9 8.5t9 8.5h326q7 0 9.5 -4.5t0 -8.5t-9.5 -4h-92v-610q0 -7 -4 -9.5t-8.5 0t-4.5 9.5v160q0 30 -16 35
t-35 -21q-143 -205 -446 -205q-124 0 -230 48t-187 140t-127 238t-46 330q0 182 49 324t133 228t189 129.5t225 43.5h2q96 0 177.5 -23t136.5 -60t94 -84t57 -95.5t18 -93.5q0 -55 -42 -74q-36 -16 -63 8q-26 24 -16 70q13 65 -0.5 124.5t-54 109t-120 78.5t-189.5 28z
M678 1575q-70 0 -125 59t-55 156q0 20 15 30t29.5 1.5t14.5 -31.5q0 -11 -13.5 -25.5t-22 -26t0.5 -20.5q41 -51 156 -51h8q117 0 158 51q9 11 -14 35.5t-23 36.5q0 25 14.5 33.5t29.5 -2t15 -31.5q0 -97 -55 -156t-125 -59h-8z" />
    <glyph glyph-name="gbreve" unicode="&#x11f;" horiz-adv-x="1021" 
d="M541 956q151 0 258 -61q-22 52 -8.5 101t45.5 85.5t80 55.5t96 12q53 -9 58 -48q3 -32 -24 -51q-19 -13 -42 -6q-53 15 -98.5 5t-75.5 -38t-29 -61q0 -33 14 -65q154 -99 154 -289v-18q0 -164 -113.5 -270.5t-316.5 -106.5q-166 0 -275 73q-40 -8 -70 -32.5t-44 -56
t-12 -66.5t18.5 -64t53 -48t87.5 -19h465q126 0 196 -94q63 -84 45 -194q-19 -123 -131 -197q-110 -72 -282 -72h-101q-266 0 -378 126q-76 85 -56 191q18 93 96 145q16 10 33 17q-60 29 -85 88t-14 118t55 108t110 59q-141 105 -141 295v18q0 117 61 200.5t157 121.5
t214 38zM541 946q-64 0 -119 -19.5t-101 -59t-73 -109.5t-27 -162v-18q0 -167 79 -267t239 -100t238.5 100t78.5 267v18q0 92 -26 162t-71 109.5t-100 59t-118 19.5zM299 -115q-45 0 -86 13q-29 -19 -50 -53.5t-29 -76.5t-4.5 -87t28 -87.5t64.5 -76t109 -54t158 -20.5h101
q94 0 167.5 21.5t116.5 58t65 79.5t22 89q0 79 -55 136.5t-144 57.5h-463zM553 1090q-70 0 -125 59t-55 156q0 20 14.5 30t29.5 1.5t15 -31.5q0 -11 -13.5 -25.5t-22 -26t0.5 -20.5q41 -51 156 -51h8q117 0 158 51q9 11 -14 35.5t-23 36.5q0 25 15 33.5t29.5 -2t14.5 -31.5
q0 -97 -55 -156t-125 -59h-8z" />
    <glyph glyph-name="Gdotaccent" unicode="&#x120;" horiz-adv-x="1366" 
d="M672 1438q-101 1 -184 -39t-148.5 -123t-102 -223.5t-36.5 -327.5q0 -369 128 -556t337 -187q63 0 118.5 14t106.5 46t87.5 80.5t58.5 122.5t22 167v198h-113q-9 0 -9 8.5t9 8.5h326q7 0 9.5 -4.5t0 -8.5t-9.5 -4h-92v-610q0 -7 -4 -9.5t-8.5 0t-4.5 9.5v160q0 30 -16 35
t-35 -21q-143 -205 -446 -205q-124 0 -230 48t-187 140t-127 238t-46 330q0 182 49 324t133 228t189 129.5t225 43.5h2q96 0 177.5 -23t136.5 -60t94 -84t57 -95.5t18 -93.5q0 -55 -42 -74q-36 -16 -63 8q-26 24 -16 70q13 65 -0.5 124.5t-54 109t-120 78.5t-189.5 28z
M612 1808q0 31 19.5 50.5t50.5 19.5t50.5 -19.5t19.5 -50.5t-19.5 -50t-50.5 -19t-50.5 19t-19.5 50z" />
    <glyph glyph-name="Gcommaaccent" unicode="&#x122;" horiz-adv-x="1366" 
d="M672 1438q-101 1 -184 -39t-148.5 -123t-102 -223.5t-36.5 -327.5q0 -369 128 -556t337 -187q63 0 118.5 14t106.5 46t87.5 80.5t58.5 122.5t22 167v198h-113q-9 0 -9 8.5t9 8.5h326q7 0 9.5 -4.5t0 -8.5t-9.5 -4h-92v-610q0 -7 -4 -9.5t-8.5 0t-4.5 9.5v160q0 30 -16 35
t-35 -21q-143 -205 -446 -205q-124 0 -230 48t-187 140t-127 238t-46 330q0 182 49 324t133 228t189 129.5t225 43.5h2q96 0 177.5 -23t136.5 -60t94 -84t57 -95.5t18 -93.5q0 -55 -42 -74q-36 -16 -63 8q-26 24 -16 70q13 65 -0.5 124.5t-54 109t-120 78.5t-189.5 28z
M629 -489q-9 -9 -13 -5t5 13q29 42 45.5 82t18.5 75t-21 52q-23 8 -37.5 27t-14.5 44q0 32 22 54t54 22q33 0 54.5 -23t21.5 -59q0 -114 -135 -282z" />
    <glyph glyph-name="gcommaaccent" unicode="&#x123;" horiz-adv-x="1021" 
d="M541 956q151 0 258 -61q-22 52 -8.5 101t45.5 85.5t80 55.5t96 12q53 -9 58 -48q3 -32 -24 -51q-19 -13 -42 -6q-53 15 -98.5 5t-75.5 -38t-29 -61q0 -33 14 -65q154 -99 154 -289v-18q0 -164 -113.5 -270.5t-316.5 -106.5q-166 0 -275 73q-40 -8 -70 -32.5t-44 -56
t-12 -66.5t18.5 -64t53 -48t87.5 -19h465q126 0 196 -94q63 -84 45 -194q-19 -123 -131 -197q-110 -72 -282 -72h-101q-266 0 -378 126q-76 85 -56 191q18 93 96 145q16 10 33 17q-60 29 -85 88t-14 118t55 108t110 59q-141 105 -141 295v18q0 117 61 200.5t157 121.5
t214 38zM541 946q-64 0 -119 -19.5t-101 -59t-73 -109.5t-27 -162v-18q0 -167 79 -267t239 -100t238.5 100t78.5 267v18q0 92 -26 162t-71 109.5t-100 59t-118 19.5zM299 -115q-45 0 -86 13q-29 -19 -50 -53.5t-29 -76.5t-4.5 -87t28 -87.5t64.5 -76t109 -54t158 -20.5h101
q94 0 167.5 21.5t116.5 58t65 79.5t22 89q0 79 -55 136.5t-144 57.5h-463zM612 1483q6 4 7.5 0.5t-3.5 -6.5q-25 -19 -33.5 -36t-4.5 -48q3 -25 24 -56t21 -53q0 -18 -10.5 -28.5t-28.5 -10.5q-21 0 -35 18t-14 54q0 108 77 166z" />
    <glyph glyph-name="Hcircumflex" unicode="&#x124;" horiz-adv-x="1247" 
d="M68 0q-8 0 -8 8t8 8h92q14 0 14 15v1360q0 14 -14 14h-92q-8 0 -8 8t8 8h329q6 0 6 -8t-6 -8h-92q-14 0 -14 -14v-578q0 -14 14 -14h682q14 0 14 14v578q0 14 -14 14h-94q-7 0 -7 8t7 8h330q6 0 6 -8t-6 -8h-90q-15 0 -15 -14v-1360q0 -15 15 -15h90q6 0 6 -8t-6 -8h-330
q-7 0 -7 8t7 8h94q14 0 14 15v737q0 14 -14 14h-682q-14 0 -14 -14v-737q0 -15 14 -15h92q6 0 6 -8t-6 -8h-329zM899 1593l-248 146l-245 -146q-5 -3 -7 -2t-2 3.5t2 4.5q43 44 126.5 126t123.5 126q3 3 6 0q40 -44 123.5 -126t126.5 -126q5 -5 -1 -7q-2 -1 -5 1z" />
    <glyph glyph-name="Itilde" unicode="&#x128;" horiz-adv-x="456" 
d="M393 0h-334q-9 0 -9 8t9 8h97q14 0 14 15v1360q0 14 -14 14h-88q-8 0 -8 8t8 8h323q6 0 6 -8t-6 -8h-92q-14 0 -14 -14v-1360q0 -15 14 -15h94q7 0 7 -8t-7 -8zM479 1810q0 -78 -35.5 -126t-101.5 -48q-40 0 -84 24t-87 48.5t-79 24.5q-49 0 -77.5 -34t-28.5 -87
q0 -4 -4 -4q-5 0 -5 4q0 84 41 132t109 48q46 0 118.5 -44t119.5 -44q52 0 79 28t27 78q0 7 4 7t4 -7z" />
    <glyph glyph-name="itilde" unicode="&#x129;" horiz-adv-x="356" 
d="M121 866q0 48 -41 54h-62q-6 0 -6 6t6 6h240q6 0 6 -6t-6 -6h-31v-828q0 -28 16.5 -51t47.5 -23q27 0 43 18t16 46q0 6 6 6t6 -6q0 -90 -114 -90q-61 0 -94 40.5t-33 110.5v723zM430 1325q0 -78 -35.5 -126t-101.5 -48q-49 0 -128 48t-122 48q-49 0 -77.5 -34t-28.5 -87
q0 -4 -5 -4q-4 0 -4 4q0 84 41 132.5t109 48.5q46 0 118 -44t119 -44q52 0 79.5 28t27.5 78q0 6 4 6t4 -6z" />
    <glyph glyph-name="Imacron" unicode="&#x12a;" horiz-adv-x="423" 
d="M399 0h-333q-9 0 -9 8t9 8h96q14 0 14 15v1360q0 14 -14 14h-88q-8 0 -8 8t8 8h323q6 0 6 -8t-6 -8h-92q-14 0 -14 -14v-1360q0 -15 14 -15h94q7 0 7 -8t-7 -8zM-53 1608v16h569v-16h-569z" />
    <glyph glyph-name="imacron" unicode="&#x12b;" horiz-adv-x="356" 
d="M121 866q0 48 -41 54h-62q-6 0 -6 6t6 6h240q6 0 6 -6t-6 -6h-31v-828q0 -28 16.5 -51t47.5 -23q27 0 43 18t16 46q0 6 6 6t6 -6q0 -90 -114 -90q-61 0 -94 40.5t-33 110.5v723zM-106 1122v17h569v-17h-569z" />
    <glyph glyph-name="Ibreve" unicode="&#x12c;" horiz-adv-x="423" 
d="M399 0h-333q-9 0 -9 8t9 8h96q14 0 14 15v1360q0 14 -14 14h-88q-8 0 -8 8t8 8h323q6 0 6 -8t-6 -8h-92q-14 0 -14 -14v-1360q0 -15 14 -15h94q7 0 7 -8t-7 -8zM231 1575q-70 0 -125 59t-55 156q0 20 15 30t30 1.5t15 -31.5q0 -11 -13.5 -25.5t-22 -26t0.5 -20.5
q41 -51 155 -51h9q116 0 157 51q9 11 -14 35.5t-23 36.5q0 25 15 33.5t30 -2t15 -31.5q0 -97 -55 -156t-125 -59h-9z" />
    <glyph glyph-name="ibreve" unicode="&#x12d;" horiz-adv-x="356" 
d="M121 866q0 48 -41 54h-62q-6 0 -6 6t6 6h240q6 0 6 -6t-6 -6h-31v-828q0 -28 16.5 -51t47.5 -23q27 0 43 18t16 46q0 6 6 6t6 -6q0 -90 -114 -90q-61 0 -94 40.5t-33 110.5v723zM174 1090q-70 0 -125 59t-55 156q0 20 15 30t29.5 1.5t14.5 -31.5q0 -11 -13.5 -25.5
t-22 -26t0.5 -20.5q41 -51 156 -51h8q117 0 158 51q9 11 -14 35.5t-23 36.5q0 25 14.5 33.5t29.5 -2t15 -31.5q0 -97 -55 -156t-125 -59h-8z" />
    <glyph glyph-name="Iogonek" unicode="&#x12e;" horiz-adv-x="423" 
d="M330 -281l6 5l2 -3q0 -11 -36 -29t-66 -18q-26 0 -53 6t-57 19.5t-48.5 42t-18.5 68.5q0 126 168 190h-161q-9 0 -9 8t9 8h96q14 0 14 15v1360q0 14 -14 14h-88q-8 0 -8 8t8 8h323q6 0 6 -8t-6 -8h-92q-14 0 -14 -14v-1360q0 -15 14 -15h94q7 0 7 -8t-7 -8h-149
q-48 -24 -70 -80t-22 -113q0 -118 88 -118q46 0 84 30z" />
    <glyph glyph-name="iogonek" unicode="&#x12f;" horiz-adv-x="356" 
d="M299 -283l6 4l2 -2q0 -11 -36 -29t-66 -18q-26 0 -53 5.5t-56.5 19t-48 42t-18.5 68.5q0 130 172 193q-80 24 -80 143v723q0 48 -41 54h-62q-6 0 -6 6t6 6h240q6 0 6 -6t-6 -6h-31v-828q0 -28 16.5 -51t47.5 -23q27 0 43 18t16 46q0 6 6 6t6 -6q0 -90 -114 -90
q-13 0 -33 4q-45 -25 -66.5 -80.5t-21.5 -110.5q0 -118 88 -118q46 0 84 30zM102 1323q0 31 19.5 50.5t50.5 19.5t50.5 -19.5t19.5 -50.5t-19.5 -50.5t-50.5 -19.5t-50.5 19.5t-19.5 50.5z" />
    <glyph glyph-name="Idotaccent" unicode="&#x130;" horiz-adv-x="423" 
d="M399 0h-333q-9 0 -9 8t9 8h96q14 0 14 15v1360q0 14 -14 14h-88q-8 0 -8 8t8 8h323q6 0 6 -8t-6 -8h-92q-14 0 -14 -14v-1360q0 -15 14 -15h94q7 0 7 -8t-7 -8zM164 1808q0 31 19 50.5t50 19.5t50.5 -19.5t19.5 -50.5t-19.5 -50t-50.5 -19t-50 19t-19 50z" />
    <glyph glyph-name="dotlessi" unicode="&#x131;" horiz-adv-x="356" 
d="M121 866q0 48 -41 54h-62q-6 0 -6 6t6 6h240q6 0 6 -6t-6 -6h-31v-828q0 -28 16.5 -51t47.5 -23q27 0 43 18t16 46q0 6 6 6t6 -6q0 -90 -114 -90q-61 0 -94 40.5t-33 110.5v723z" />
    <glyph glyph-name="Jcircumflex" unicode="&#x134;" horiz-adv-x="950" 
d="M684 1405h-84q-8 0 -8 8t8 8h309q6 0 7.5 -4t-0.5 -8t-7 -4h-80q-14 0 -14 -14v-1029q0 -74 -30.5 -143t-84.5 -122t-134.5 -85t-174.5 -32q-178 0 -297 106.5t-104 249.5q6 61 52 77q39 12 66 -16q25 -25 17 -69q-7 -48 -4.5 -95.5t24 -90.5t53 -76t82 -52.5
t111.5 -19.5q66 0 119 21t87.5 56.5t57.5 84t33 101t10 110.5v1024q0 14 -14 14zM1008 1593l-248 146l-246 -146q-5 -3 -7 -2t-1.5 3.5t2.5 4.5q43 44 126.5 126t123.5 126q3 3 6 0q40 -44 123.5 -126t126.5 -126q5 -5 -1 -7q-2 -1 -5 1z" />
    <glyph glyph-name="Kcommaaccent" unicode="&#x136;" horiz-adv-x="1198" 
d="M1210 0h-338q-8 0 -8 8t8 8h99q6 0 8 3.5t-2 9.5l-547 766l-141 -156v-608q0 -15 14 -15h94q7 0 7 -8t-7 -8h-334q-7 0 -9.5 4t0 8t9.5 4h97q14 0 14 15v1360q0 14 -14 14h-101q-9 0 -9 8t9 8h347q6 0 7.5 -4t-0.5 -8t-7 -4h-103q-14 0 -14 -14v-721l676 725q5 6 4 8
t-8 2h-95q-9 0 -9 8t9 8h244q6 0 7.5 -4t-0.5 -8t-7 -4h-98q-18 0 -25 -10l-473 -512l621 -854q10 -13 22 -13h53q9 0 9 -8t-9 -8zM530 -489q-9 -9 -13 -5t5 13q29 42 45.5 82t18.5 75t-21 52q-23 7 -37 26.5t-14 44.5q0 32 22 54t54 22q33 0 54.5 -23t21.5 -59
q0 -113 -136 -282z" />
    <glyph glyph-name="kcommaaccent" unicode="&#x137;" horiz-adv-x="903" 
d="M-8 1475q0 6 6 6h262q6 0 6 -6q0 -7 -6 -7h-31v-1435q0 -21 21 -21h45q5 0 7 -3t0 -6t-7 -3h-242q-6 0 -6 6t6 6h49q21 0 21 21v1382q0 44 -39 53h-86q-6 0 -6 7zM649 12h82l-475 539l334 276q34 31 18.5 62t-53.5 31h-6q-5 0 -7 3t0 6t7 3h325q5 0 7 -3t0 -6t-7 -3h-20
q-60 0 -130 -26t-108 -58l-274 -232l526 -592h66q6 0 6 -6t-6 -6h-285q-5 0 -7 3t0 6t7 3zM383 -489q-9 -9 -13 -5t5 13q29 42 45.5 82t18.5 75t-21 52q-23 7 -37 26.5t-14 44.5q0 32 21.5 54t53.5 22q33 0 54.5 -23t21.5 -59q0 -114 -135 -282z" />
    <glyph glyph-name="kgreenlandic" unicode="&#x138;" horiz-adv-x="917" 
d="M125 20v893q0 11 -6 11h-70q-5 0 -6 6t6 6h258q6 0 6 -6t-6 -6h-67q-9 0 -9 -11v-893q1 -8 9 -8h63q6 0 6 -6t-6 -6h-250q-6 0 -6 6t6 6h62q10 0 10 8zM260 504v12h29l385 402q9 6 -2 6h-64q-4 0 -4 6t4 6h160q6 0 6 -6t-6 -6h-20q-18 0 -41.5 -7t-32.5 -16l-367 -385h4
q166 -5 322 -227q36 -52 70.5 -125.5t54.5 -115.5t33 -42q4 0 22 6q6 3 10 -2.5t-2 -9.5q-18 -6 -30 -6q-53 0 -103 52t-156 210q-19 28 -46 70t-40 61.5t-33 46t-34.5 38.5t-33.5 21.5t-40 10.5h-45z" />
    <glyph glyph-name="Lacute" unicode="&#x139;" horiz-adv-x="1062" 
d="M408 1405h-93q-20 0 -20 -21v-1347q0 -21 20 -21h420q114 3 182 79.5t68 209.5v98h16v-403h-933q-8 0 -8 8t8 8h90q20 0 20 21v1347q0 21 -20 21h-90q-8 0 -8 8t8 8h340q9 0 9 -8t-9 -8zM446 1673l80 133q34 56 74 52q14 -1 22 -13t5 -22q-5 -24 -37 -49l-137 -101h-7z
" />
    <glyph glyph-name="lacute" unicode="&#x13a;" horiz-adv-x="378" 
d="M123 1415q0 22 -10 37.5t-29 15.5h-86q-6 0 -6 7q0 6 6 6h262q6 0 6 -6q0 -7 -6 -7h-31v-1366q0 -34 18.5 -59t55.5 -25q30 0 50 16.5t20 47.5q0 6 6 6t6 -6q0 -44 -30 -67t-85 -23q-67 0 -107 40t-40 111v1272zM104 1649l80 133q34 55 74 51q14 -1 22 -13t5 -22
q-5 -24 -37 -49l-137 -100h-7z" />
    <glyph glyph-name="Lcommaaccent" unicode="&#x13b;" horiz-adv-x="1062" 
d="M408 1405h-93q-20 0 -20 -21v-1347q0 -21 20 -21h420q114 3 182 79.5t68 209.5v98h16v-403h-933q-8 0 -8 8t8 8h90q20 0 20 21v1347q0 21 -20 21h-90q-8 0 -8 8t8 8h340q9 0 9 -8t-9 -8zM463 -489q-9 -9 -13 -5t5 13q29 42 45.5 82t18.5 75t-21 52q-23 8 -37.5 27
t-14.5 44q0 32 22 54t54 22q33 0 54.5 -23t21.5 -59q0 -114 -135 -282z" />
    <glyph glyph-name="lcommaaccent" unicode="&#x13c;" horiz-adv-x="378" 
d="M123 1415q0 22 -10 37.5t-29 15.5h-86q-6 0 -6 7q0 6 6 6h262q6 0 6 -6q0 -7 -6 -7h-31v-1366q0 -34 18.5 -59t55.5 -25q30 0 50 16.5t20 47.5q0 6 6 6t6 -6q0 -44 -30 -67t-85 -23q-67 0 -107 40t-40 111v1272zM180 -489q-9 -9 -13 -5t5 13q29 42 45.5 82t18.5 75
t-21 52q-23 7 -37 26.5t-14 44.5q0 32 22 54t54 22q33 0 54 -23t21 -59q0 -114 -135 -282z" />
    <glyph glyph-name="Lcaron" unicode="&#x13d;" horiz-adv-x="1062" 
d="M408 1405h-93q-20 0 -20 -21v-1347q0 -21 20 -21h420q114 3 182 79.5t68 209.5v98h16v-403h-933q-8 0 -8 8t8 8h90q20 0 20 21v1347q0 21 -20 21h-90q-8 0 -8 8t8 8h340q9 0 9 -8t-9 -8zM510 1665q-6 -4 -7.5 -0.5t3.5 6.5q25 20 34 36.5t5 47.5q-3 25 -24 56t-21 53
q0 18 10.5 28.5t28.5 10.5q21 0 35 -18t14 -54q0 -107 -78 -166z" />
    <glyph glyph-name="lcaron" unicode="&#x13e;" horiz-adv-x="741" 
d="M123 1415q0 22 -10 37.5t-29 15.5h-86q-6 0 -6 7q0 6 6 6h262q6 0 6 -6q0 -7 -6 -7h-31v-1366q0 -34 18.5 -59t55.5 -25q30 0 50 16.5t20 47.5q0 6 6 6t6 -6q0 -44 -30 -67t-85 -23q-67 0 -107 40t-40 111v1272zM532 1180q-6 -4 -7.5 -0.5t3.5 6.5q25 20 34 36.5t5 47.5
q-3 25 -24 55.5t-21 52.5q0 18 10.5 28.5t28.5 10.5q21 0 35 -17.5t14 -53.5q0 -107 -78 -166z" />
    <glyph glyph-name="Lslash" unicode="&#x141;" horiz-adv-x="1191" 
d="M541 1405h-92q-21 0 -21 -21v-661l33 33l203 211q5 6 12 3t9 -9.5t-3 -12.5l-211 -203l-43 -45v-663q0 -21 21 -21h409q119 0 189.5 76.5t70.5 212.5v98h17v-403h-934q-7 0 -7 8t7 8h90q20 0 20 21v547l-32 -31l-201 -211q-5 -6 -12.5 -3t-10 9.5t1.5 11.5l211 203l43 43
v778q0 21 -20 21h-90q-7 0 -7 8t7 8h340q9 0 9 -8t-9 -8z" />
    <glyph glyph-name="lslash" unicode="&#x142;" horiz-adv-x="378" 
d="M123 1415q0 22 -10 37.5t-29 15.5h-86q-6 0 -6 7q0 6 6 6h262q6 0 6 -6q0 -7 -6 -7h-31v-757l11 10l129 135q4 5 10 2.5t8 -8t-2 -10.5l-135 -131l-21 -21v-586q0 -34 18.5 -59t55.5 -25q30 0 50 16.5t20 47.5q0 6 6 6t6 -6q0 -44 -30 -67t-85 -23q-67 0 -107 40t-40 111
v439l-125 -133q-9 -10 -19 -1.5t1 17.5l135 131l8 8v811z" />
    <glyph glyph-name="Nacute" unicode="&#x143;" horiz-adv-x="1226" 
d="M164 1405h-113q-9 0 -9 8t9 8h242l797 -1226v1189q0 21 -21 21h-90q-7 0 -9.5 4t0 8t9.5 4h235q9 0 9 -8t-9 -8h-88q-20 0 -20 -21v-1396h-16l-910 1415v-1366q0 -21 21 -21h90q7 0 7 -8t-7 -8h-236q-7 0 -7 8t7 8h88q21 0 21 21v1368zM575 1673l80 133q34 56 74 52
q14 -1 22 -13t5 -22q-5 -24 -37 -49l-137 -101h-7z" />
    <glyph glyph-name="nacute" unicode="&#x144;" horiz-adv-x="1003" 
d="M20 6q0 6 7 6h79q21 0 21 21v837q0 47 -41 50h-61q-7 0 -7 6t7 6h239q6 0 6 -6t-6 -6h-31v-211q50 109 137.5 177t196.5 68q146 0 226.5 -67.5t80.5 -163.5v-631q0 -28 16.5 -51t47.5 -23q27 0 43 18t16 46q0 6 6.5 6t6.5 -6q0 -90 -115 -90q-61 0 -94 40.5t-33 110.5
v568q0 64 -25.5 117.5t-81.5 86t-133 23.5q-94 -10 -172.5 -79.5t-122.5 -172.5v-653q0 -21 21 -21h76q6 0 6 -6t-6 -6h-303q-7 0 -7 6zM451 1188l79 133q34 55 74 51q14 -1 22 -13t5 -22q-5 -24 -37 -49l-137 -100h-6z" />
    <glyph glyph-name="Ncommaaccent" unicode="&#x145;" horiz-adv-x="1226" 
d="M164 1405h-113q-9 0 -9 8t9 8h242l797 -1226v1189q0 21 -21 21h-90q-7 0 -9.5 4t0 8t9.5 4h235q9 0 9 -8t-9 -8h-88q-20 0 -20 -21v-1396h-16l-910 1415v-1366q0 -21 21 -21h90q7 0 7 -8t-7 -8h-236q-7 0 -7 8t7 8h88q21 0 21 21v1368zM545 -489q-9 -9 -13 -5t5 13
q29 42 45.5 82t18.5 75t-21 52q-23 8 -37.5 27t-14.5 44q0 32 22 54t54 22q33 0 54.5 -23t21.5 -59q0 -114 -135 -282z" />
    <glyph glyph-name="ncommaaccent" unicode="&#x146;" horiz-adv-x="1003" 
d="M20 6q0 6 7 6h79q21 0 21 21v837q0 47 -41 50h-61q-7 0 -7 6t7 6h239q6 0 6 -6t-6 -6h-31v-211q50 109 137.5 177t196.5 68q146 0 226.5 -67.5t80.5 -163.5v-631q0 -28 16.5 -51t47.5 -23q27 0 43 18t16 46q0 6 6.5 6t6.5 -6q0 -90 -115 -90q-61 0 -94 40.5t-33 110.5
v568q0 64 -25.5 117.5t-81.5 86t-133 23.5q-94 -10 -172.5 -79.5t-122.5 -172.5v-653q0 -21 21 -21h76q6 0 6 -6t-6 -6h-303q-7 0 -7 6zM469 -489q-9 -9 -13 -5t5 13q29 42 45.5 82t18.5 75t-21 52q-23 7 -37 26.5t-14 44.5q0 32 21.5 54t53.5 22q33 0 54.5 -23t21.5 -59
q0 -114 -135 -282z" />
    <glyph glyph-name="Ncaron" unicode="&#x147;" horiz-adv-x="1226" 
d="M164 1405h-113q-9 0 -9 8t9 8h242l797 -1226v1189q0 21 -21 21h-90q-7 0 -9.5 4t0 8t9.5 4h235q9 0 9 -8t-9 -8h-88q-20 0 -20 -21v-1396h-16l-910 1415v-1366q0 -21 21 -21h90q7 0 7 -8t-7 -8h-236q-7 0 -7 8t7 8h88q21 0 21 21v1368zM643 1587q-2 0 -2 2
q-40 44 -123.5 126t-126.5 126q-6 6 -1 8q2 1 7 -2l246 -145l248 145q3 2 5 1t2.5 -3t-1.5 -4q-43 -44 -126.5 -126t-123.5 -126z" />
    <glyph glyph-name="ncaron" unicode="&#x148;" horiz-adv-x="1003" 
d="M20 6q0 6 7 6h79q21 0 21 21v837q0 47 -41 50h-61q-7 0 -7 6t7 6h239q6 0 6 -6t-6 -6h-31v-211q50 109 137.5 177t196.5 68q146 0 226.5 -67.5t80.5 -163.5v-631q0 -28 16.5 -51t47.5 -23q27 0 43 18t16 46q0 6 6.5 6t6.5 -6q0 -90 -115 -90q-61 0 -94 40.5t-33 110.5
v568q0 64 -25.5 117.5t-81.5 86t-133 23.5q-94 -10 -172.5 -79.5t-122.5 -172.5v-653q0 -21 21 -21h76q6 0 6 -6t-6 -6h-303q-7 0 -7 6zM524 1102q-2 0 -2 2q-40 44 -123.5 126t-126.5 126q-2 2 -2 4.5t2 3.5t7 -2l245 -145l248 145q3 2 5 1t2.5 -3t-1.5 -4
q-43 -44 -126.5 -126t-123.5 -126z" />
    <glyph glyph-name="Eng" unicode="&#x14a;" horiz-adv-x="1265" 
d="M1106 145q43 -83 48.5 -169.5t-22 -161t-64.5 -133t-85 -109.5q-70 -62 -173 -99.5t-204 -17.5q-46 8 -56 48q-8 34 14 52q19 14 46 3q76 -33 152 -35.5t129 16.5t90 51q83 72 101.5 217.5t-56.5 278.5l-10 16l-836 1301v-1366q0 -21 21 -21h90q7 0 7 -8t-7 -8h-236
q-7 0 -7 8t7 8h88q21 0 21 21v1368h-113q-9 0 -9 8t9 8h242l797 -1226v1189q0 21 -21 21h-90q-7 0 -9.5 4t0 8t9.5 4h235q9 0 9 -8t-9 -8h-88q-20 0 -20 -21v-1239z" />
    <glyph glyph-name="eng" unicode="&#x14b;" horiz-adv-x="1013" 
d="M41 926q0 6 6 6h240q6 0 6 -6t-6 -6h-31v-236q46 120 132 195t200 75q146 0 224.5 -67.5t78.5 -163.5v-459q0 -152 -57 -274.5t-164 -202.5q-71 -62 -177 -108.5t-200 -36.5q-55 6 -60 43q-4 30 20 48q15 11 32 7q86 -22 159.5 -17.5t126 24t91.5 52.5q70 60 96 176
t26 289v447q0 65 -24 118t-79 85.5t-132 23.5q-102 -10 -179 -90t-114 -199v-616q0 -21 20 -21h76q6 0 6 -6t-6 -6h-303q-6 0 -6 6t6 6h80q21 0 21 21v837q0 47 -41 50h-62q-6 0 -6 6z" />
    <glyph glyph-name="Omacron" unicode="&#x14c;" horiz-adv-x="1388" 
d="M692 -33q-131 0 -242.5 47t-196.5 138.5t-133 238t-48 334.5q0 145 34 265.5t93 204.5t139 142t171.5 85.5t192.5 27.5h3q98 -2 187.5 -31t167 -88t134.5 -143t90 -202.5t33 -260.5q0 -188 -48.5 -334.5t-133.5 -238t-196.5 -138.5t-242.5 -47h-4zM696 -18q86 1 159 26
t136 81t107 141t69 210.5t25 284.5q0 147 -25 265.5t-68.5 199.5t-105 136.5t-133 81.5t-153.5 28h-25q-104 -3 -190 -44.5t-153 -124.5t-104.5 -221t-37.5 -321q0 -159 25 -284.5t69 -210.5t106.5 -141t135.5 -81t159 -26h4zM410 1608v16h569v-16h-569z" />
    <glyph glyph-name="omacron" unicode="&#x14d;" horiz-adv-x="1017" 
d="M510 956q92 0 171.5 -28.5t141.5 -84t97.5 -145t35.5 -202.5v-23q0 -135 -50 -242.5t-153 -173t-245 -65.5q-141 0 -244 65.5t-153 173t-50 242.5v23q0 54 20.5 112.5t57.5 104.5q0 69 54 125.5t138.5 87t178.5 30.5zM510 944q-130 0 -204 -73.5t-50 -165.5
q11 -39 -6 -63.5t-45 -23t-47 28.5q0 -1 7 -59t7 -92v-23q0 -103 19.5 -187.5t59.5 -148t105.5 -98.5t151.5 -35q115 0 192 62t110.5 164.5t33.5 242.5v23q0 119 -27.5 208t-75.5 140t-106 75.5t-125 24.5zM223 1122v17h570v-17h-570z" />
    <glyph glyph-name="Ohungarumlaut" unicode="&#x150;" horiz-adv-x="1388" 
d="M692 -33q-131 0 -242.5 47t-196.5 138.5t-133 238t-48 334.5q0 145 34 265.5t93 204.5t139 142t171.5 85.5t192.5 27.5h3q98 -2 187.5 -31t167 -88t134.5 -143t90 -202.5t33 -260.5q0 -188 -48.5 -334.5t-133.5 -238t-196.5 -138.5t-242.5 -47h-4zM696 -18q86 1 159 26
t136 81t107 141t69 210.5t25 284.5q0 147 -25 265.5t-68.5 199.5t-105 136.5t-133 81.5t-153.5 28h-25q-104 -3 -190 -44.5t-153 -124.5t-104.5 -221t-37.5 -321q0 -159 25 -284.5t69 -210.5t106.5 -141t135.5 -81t159 -26h4zM586 1671l55 129q11 27 29 40t35 11
q28 -3 28 -28q0 -26 -26 -49l-115 -103h-6zM774 1671l55 129q11 27 29 40t35 11q14 -1 21.5 -9.5t7.5 -18.5q0 -25 -27 -49l-115 -103h-6z" />
    <glyph glyph-name="ohungarumlaut" unicode="&#x151;" 
d="M516 956q92 0 171.5 -28.5t141.5 -84t98 -145t36 -202.5v-23q0 -135 -50 -242.5t-153.5 -173t-245.5 -65.5q-141 0 -243.5 65.5t-152.5 173t-50 242.5v23q0 55 20 113t57 104q0 69 54 125.5t138.5 87t178.5 30.5zM516 944q-130 0 -204 -73.5t-50 -165.5q11 -39 -6 -63.5
t-45 -23t-47 28.5q0 -1 7 -59t7 -92v-23q0 -103 19.5 -187.5t59.5 -148t105.5 -98.5t151.5 -35q115 0 192 62t110.5 164.5t33.5 242.5v23q0 119 -27.5 208t-75.5 140t-106 75.5t-125 24.5zM375 1186l55 129q11 27 29 40t35 11q28 -3 28 -29t-26 -49l-115 -102h-6zM563 1186
l55 129q11 27 29 40t35 11q14 -1 21.5 -10t7.5 -19q0 -25 -27 -49l-115 -102h-6z" />
    <glyph glyph-name="OE" unicode="&#x152;" horiz-adv-x="1759" 
d="M1251 813h-221q-14 0 -14 -14v-772q0 -15 14 -15h436q68 5 124.5 66t56.5 145v60h16v-283h-778l-232 -10q-127 0 -235 45.5t-190 134.5t-128.5 231.5t-46.5 325.5q0 171 48 308t131 222t188.5 130t224.5 45l238 -11h700v-278h-16v74q0 81 -55.5 136.5t-153.5 55.5h-328
q-14 0 -14 -14v-555q0 -15 14 -15h219q66 3 111 39t45 97v49h16v-387h-16v65q0 58 -45.5 91.5t-108.5 33.5zM885 12q14 0 14 15v1368q0 14 -14 14l-238 10q-80 0 -149.5 -24.5t-129.5 -78t-102 -133t-66 -196t-24 -260.5q0 -154 24 -276.5t66.5 -205.5t103 -138t130.5 -79.5
t153 -25.5z" />
    <glyph glyph-name="oe" unicode="&#x153;" horiz-adv-x="1710" 
d="M1274 2q47 0 90.5 12.5t75.5 34t58 49.5t38.5 59t17.5 63.5t-6 62.5q-14 47 20 66q30 16 57 -5q24 -19 24 -57q0 -74 -52 -143t-139.5 -111.5t-183.5 -42.5q-281 3 -381 227q-54 -105 -154 -165t-237 -60q-141 0 -244 65.5t-153 173t-50 242.5v23q0 54 20.5 112.5
t57.5 104.5q0 69 54 125.5t138.5 87t178.5 30.5q135 0 242 -61.5t161 -179.5q61 111 169.5 177t246.5 66q142 0 232 -66t90 -179q0 -86 -70 -148t-170 -90q-193 -50 -252 -73q-171 -64 -182 -161q-2 -15 0 -32q43 -106 109.5 -156.5t193.5 -50.5zM504 944q-130 0 -204 -73.5
t-50 -165.5q11 -39 -6 -63.5t-45 -23t-47 28.5q0 -1 7 -59t7 -92v-23q0 -103 19.5 -187.5t59.5 -148t105.5 -98.5t151.5 -35q115 0 192 62t110.5 164.5t33.5 242.5v23q0 119 -27.5 208t-75.5 140t-106 75.5t-125 24.5zM1538 725q0 99 -55 159t-178 60q-89 0 -155.5 -34
t-107 -95.5t-61.5 -138.5t-25 -172q-3 -114 7 -242q6 29 23 53t44.5 43t56 33.5t69.5 27.5t73 22.5t79 22t76 21.5q154 47 154 240z" />
    <glyph glyph-name="Racute" unicode="&#x154;" horiz-adv-x="1155" 
d="M55 0q-5 0 -7 4t-0.5 8t7.5 4h90q21 0 21 21v1370h-111q-9 0 -9 8t9 8h471q82 0 160 -19t146 -57t109.5 -102.5t41.5 -146.5q0 -78 -35 -142.5t-94 -106t-132.5 -66t-154.5 -29.5q187 -59 336 -332q15 -33 38.5 -86.5t38.5 -87t34.5 -76.5t33.5 -69.5t28.5 -52
t25.5 -37.5t20 -13q14 -2 37 10q7 3 7 -2.5t-9 -11.5q-17 -10 -37 -10q-70 0 -142.5 85t-184.5 314q-73 178 -144.5 267.5t-154.5 101.5h-211v-717q0 -21 20 -21h94q6 0 6 -8t-6 -8h-342zM526 1407h-243v-637h243q72 1 132 19.5t107.5 56.5t74 102t26.5 150q0 84 -28.5 146
t-78 96.5t-107.5 50.5t-126 16zM492 1673l79 133q34 56 74 52q14 -1 22 -13t5 -22q-5 -24 -37 -49l-137 -101h-6z" />
    <glyph glyph-name="racute" unicode="&#x155;" horiz-adv-x="702" 
d="M14 926q0 6 6 6h244q6 0 6 -6t-6 -6h-31v-293q64 145 182.5 241.5t239.5 87.5q55 -4 67 -42q10 -31 -17 -51q-22 -15 -56 -9q-134 28 -248.5 -47t-167.5 -213v-561q0 -21 21 -21h74q6 0 6 -6t-6 -6h-303q-7 0 -7 6t7 6h81q21 0 21 21v833q0 48 -41 54h-66q-6 0 -6 6z
M332 1188l80 133q34 55 73 51q14 -1 22 -13t5 -22q-5 -24 -37 -49l-137 -100h-6z" />
    <glyph glyph-name="Rcommaaccent" unicode="&#x156;" horiz-adv-x="1155" 
d="M55 0q-5 0 -7 4t-0.5 8t7.5 4h90q21 0 21 21v1370h-111q-9 0 -9 8t9 8h471q82 0 160 -19t146 -57t109.5 -102.5t41.5 -146.5q0 -78 -35 -142.5t-94 -106t-132.5 -66t-154.5 -29.5q187 -59 336 -332q15 -33 38.5 -86.5t38.5 -87t34.5 -76.5t33.5 -69.5t28.5 -52
t25.5 -37.5t20 -13q14 -2 37 10q7 3 7 -2.5t-9 -11.5q-17 -10 -37 -10q-70 0 -142.5 85t-184.5 314q-73 178 -144.5 267.5t-154.5 101.5h-211v-717q0 -21 20 -21h94q6 0 6 -8t-6 -8h-342zM526 1407h-243v-637h243q72 1 132 19.5t107.5 56.5t74 102t26.5 150q0 84 -28.5 146
t-78 96.5t-107.5 50.5t-126 16zM541 -489q-10 -10 -14 -4q-3 4 5 12q29 42 45.5 82t18.5 75t-21 52q-23 7 -37 26.5t-14 44.5q0 32 22 54t54 22q33 0 54.5 -23t21.5 -59q0 -114 -135 -282z" />
    <glyph glyph-name="rcommaaccent" unicode="&#x157;" horiz-adv-x="702" 
d="M14 926q0 6 6 6h244q6 0 6 -6t-6 -6h-31v-293q64 145 182.5 241.5t239.5 87.5q55 -4 67 -42q10 -31 -17 -51q-22 -15 -56 -9q-134 28 -248.5 -47t-167.5 -213v-561q0 -21 21 -21h74q6 0 6 -6t-6 -6h-303q-7 0 -7 6t7 6h81q21 0 21 21v833q0 48 -41 54h-66q-6 0 -6 6z
M113 -489q-10 -10 -14 -4q-3 4 5 12q29 42 45.5 82t18.5 75t-21 52q-23 7 -37 26.5t-14 44.5q0 32 22 54t54 22q33 0 54.5 -23t21.5 -59q0 -114 -135 -282z" />
    <glyph glyph-name="Rcaron" unicode="&#x158;" horiz-adv-x="1155" 
d="M55 0q-5 0 -7 4t-0.5 8t7.5 4h90q21 0 21 21v1370h-111q-9 0 -9 8t9 8h471q82 0 160 -19t146 -57t109.5 -102.5t41.5 -146.5q0 -78 -35 -142.5t-94 -106t-132.5 -66t-154.5 -29.5q187 -59 336 -332q15 -33 38.5 -86.5t38.5 -87t34.5 -76.5t33.5 -69.5t28.5 -52
t25.5 -37.5t20 -13q14 -2 37 10q7 3 7 -2.5t-9 -11.5q-17 -10 -37 -10q-70 0 -142.5 85t-184.5 314q-73 178 -144.5 267.5t-154.5 101.5h-211v-717q0 -21 20 -21h94q6 0 6 -8t-6 -8h-342zM526 1407h-243v-637h243q72 1 132 19.5t107.5 56.5t74 102t26.5 150q0 84 -28.5 146
t-78 96.5t-107.5 50.5t-126 16zM492 1587q-3 0 -3 2q-32 34 -67 69.5t-86.5 86.5t-95.5 96q-6 6 -1 8q2 1 7 -2l246 -145l247 145q3 2 5 1t2.5 -3t-1.5 -4q-38 -39 -123 -123t-126 -129z" />
    <glyph glyph-name="rcaron" unicode="&#x159;" horiz-adv-x="702" 
d="M14 926q0 6 6 6h244q6 0 6 -6t-6 -6h-31v-293q64 145 182.5 241.5t239.5 87.5q55 -4 67 -42q10 -31 -17 -51q-22 -15 -56 -9q-134 28 -248.5 -47t-167.5 -213v-561q0 -21 21 -21h74q6 0 6 -6t-6 -6h-303q-7 0 -7 6t7 6h81q21 0 21 21v833q0 48 -41 54h-66q-6 0 -6 6z
M350 1102q-2 0 -2 2q-40 44 -123.5 126t-126.5 126q-6 6 -1 8q2 1 7 -2l246 -145l248 145q3 2 5 1t2.5 -3t-1.5 -4q-43 -44 -126.5 -126t-123.5 -126z" />
    <glyph glyph-name="Sacute" unicode="&#x15a;" horiz-adv-x="1079" 
d="M551 1440q-166 0 -256 -82t-90 -195q0 -65 28.5 -117.5t77 -88t111 -65t131.5 -56t138.5 -54t132 -64.5t111 -83t77 -114t28.5 -152q0 -75 -36 -148.5t-98.5 -132t-158.5 -95t-206 -36.5q-98 0 -182.5 24.5t-145.5 67t-103 98.5t-60 121.5t-11 132.5q6 62 53 83
q38 17 64 -9q26 -27 10 -80q-16 -45 -13 -93.5t16.5 -95.5t47 -89.5t78 -75t109.5 -51.5t141 -19q168 0 287.5 95.5t119.5 228.5q0 80 -28.5 142.5t-76.5 104t-110 74.5t-130.5 58.5t-137.5 51.5t-131 58t-110 72.5t-76.5 101.5t-28.5 138q0 105 60 188t157 126.5t211 43.5
q105 0 191 -29.5t139.5 -77.5t81.5 -108.5t24 -124.5q-4 -63 -47 -81q-35 -15 -59 11q-24 27 -11 74q12 34 10 71.5t-11.5 73t-36 68t-62.5 56.5t-93 38.5t-126 14.5zM455 1673l80 133q34 56 73 52q14 -1 22 -13t5 -22q-5 -24 -37 -49l-137 -101h-6z" />
    <glyph glyph-name="sacute" unicode="&#x15b;" horiz-adv-x="825" 
d="M414 942q-58 0 -111 -17t-94 -61.5t-41 -109.5q0 -44 33 -77t85.5 -55t116.5 -42.5t128 -45.5t116.5 -57t85.5 -84.5t33 -120.5q0 -109 -95.5 -196.5t-252.5 -87.5q-174 0 -276 89t-97 208q2 52 41 67q34 12 56 -12q19 -21 10 -59q-7 -39 -6 -78.5t21.5 -76t51.5 -64.5
t83 -45t118 -17q114 0 197 59.5t83 141.5q0 52 -25 92.5t-66 64.5t-93.5 46t-107.5 37.5t-108 39.5t-94.5 51.5t-68 73.5t-28.5 105q-2 74 44 131t115.5 84.5t147.5 27.5q139 0 232 -68t89 -173q-2 -49 -41 -63q-34 -12 -57 12q-19 21 -10 57q24 93 -29.5 158t-185.5 65z
M373 1188l80 133q34 55 73 51q14 -1 22 -13t5 -22q-5 -24 -37 -49l-137 -100h-6z" />
    <glyph glyph-name="Scircumflex" unicode="&#x15c;" horiz-adv-x="1079" 
d="M551 1440q-166 0 -256 -82t-90 -195q0 -65 28.5 -117.5t77 -88t111 -65t131.5 -56t138.5 -54t132 -64.5t111 -83t77 -114t28.5 -152q0 -75 -36 -148.5t-98.5 -132t-158.5 -95t-206 -36.5q-98 0 -182.5 24.5t-145.5 67t-103 98.5t-60 121.5t-11 132.5q6 62 53 83
q38 17 64 -9q26 -27 10 -80q-16 -45 -13 -93.5t16.5 -95.5t47 -89.5t78 -75t109.5 -51.5t141 -19q168 0 287.5 95.5t119.5 228.5q0 80 -28.5 142.5t-76.5 104t-110 74.5t-130.5 58.5t-137.5 51.5t-131 58t-110 72.5t-76.5 101.5t-28.5 138q0 105 60 188t157 126.5t211 43.5
q105 0 191 -29.5t139.5 -77.5t81.5 -108.5t24 -124.5q-4 -63 -47 -81q-35 -15 -59 11q-24 27 -11 74q12 34 10 71.5t-11.5 73t-36 68t-62.5 56.5t-93 38.5t-126 14.5zM811 1593l-248 146l-246 -146q-5 -3 -7 -2t-1.5 3.5t2.5 4.5q43 44 126.5 126t123.5 126q3 3 6 0
q40 -44 123.5 -126t126.5 -126q5 -5 -1 -7q-2 -1 -5 1z" />
    <glyph glyph-name="scircumflex" unicode="&#x15d;" horiz-adv-x="825" 
d="M414 942q-58 0 -111 -17t-94 -61.5t-41 -109.5q0 -44 33 -77t85.5 -55t116.5 -42.5t128 -45.5t116.5 -57t85.5 -84.5t33 -120.5q0 -109 -95.5 -196.5t-252.5 -87.5q-174 0 -276 89t-97 208q2 52 41 67q34 12 56 -12q19 -21 10 -59q-7 -39 -6 -78.5t21.5 -76t51.5 -64.5
t83 -45t118 -17q114 0 197 59.5t83 141.5q0 52 -25 92.5t-66 64.5t-93.5 46t-107.5 37.5t-108 39.5t-94.5 51.5t-68 73.5t-28.5 105q-2 74 44 131t115.5 84.5t147.5 27.5q139 0 232 -68t89 -173q-2 -49 -41 -63q-34 -12 -57 12q-19 21 -10 57q24 93 -29.5 158t-185.5 65z
M659 1108l-247 145l-246 -145q-5 -3 -7 -2t-1.5 3.5t2.5 4.5q43 44 126.5 126t123.5 126q3 3 6 0q40 -44 123.5 -126t126.5 -126q2 -2 1.5 -4.5t-3 -3t-5.5 1.5z" />
    <glyph glyph-name="Scedilla" unicode="&#x15e;" horiz-adv-x="1079" 
d="M551 1440q-166 0 -256 -82t-90 -195q0 -65 28.5 -117.5t77 -88t111 -65t131.5 -56t138.5 -54t132 -64.5t111 -83t77 -114t28.5 -152q0 -75 -36 -148.5t-98.5 -132t-158.5 -95t-206 -36.5h-2q3 -21 20.5 -41.5t40.5 -38t46 -36.5t38.5 -43.5t15.5 -51.5q0 -62 -58 -101.5
t-128 -37.5q-64 0 -102 65q-2 3 0 5t4 -1q38 -57 92 -57q45 0 79 31t34 90q0 39 -43.5 109t-45.5 108q-120 1 -219 39.5t-160.5 100.5t-92 141t-21.5 163q6 62 53 83q38 17 64 -9q26 -27 10 -80q-16 -45 -13 -93.5t16.5 -95.5t47 -89.5t78 -75t109.5 -51.5t141 -19
q168 0 287.5 95.5t119.5 228.5q0 80 -28.5 142.5t-76.5 104t-110 74.5t-130.5 58.5t-137.5 51.5t-131 58t-110 72.5t-76.5 101.5t-28.5 138q0 105 60 188t157 126.5t211 43.5q105 0 191 -29.5t139.5 -77.5t81.5 -108.5t24 -124.5q-4 -63 -47 -81q-35 -15 -59 11
q-24 27 -11 74q12 34 10 71.5t-11.5 73t-36 68t-62.5 56.5t-93 38.5t-126 14.5z" />
    <glyph glyph-name="scedilla" unicode="&#x15f;" horiz-adv-x="825" 
d="M414 942q-58 0 -111 -17t-94 -61.5t-41 -109.5q0 -44 33 -77t85.5 -55t116.5 -42.5t128 -45.5t116.5 -57t85.5 -84.5t33 -120.5q0 -109 -95.5 -196.5t-252.5 -87.5h-6q3 -26 28.5 -52.5t55 -46.5t53.5 -50.5t24 -63.5q0 -62 -58 -102t-128 -38q-64 0 -102 66q-1 3 1 5
t3 -1q38 -57 92 -57q45 0 79 31t34 90q0 39 -43.5 109t-44.5 110q-169 4 -267.5 92t-93.5 205q2 52 41 67q34 12 56 -12q19 -21 10 -59q-7 -39 -6 -78.5t21.5 -76t51.5 -64.5t83 -45t118 -17q114 0 197 59.5t83 141.5q0 52 -25 92.5t-66 64.5t-93.5 46t-107.5 37.5
t-108 39.5t-94.5 51.5t-68 73.5t-28.5 105q-2 74 44 131t115.5 84.5t147.5 27.5q139 0 232 -68t89 -173q-2 -49 -41 -63q-34 -12 -57 12q-19 21 -10 57q24 93 -29.5 158t-185.5 65z" />
    <glyph glyph-name="Scaron" unicode="&#x160;" horiz-adv-x="1091" 
d="M551 1440q-166 0 -256 -82t-90 -195q0 -65 28.5 -117.5t77 -88t111 -65t131.5 -56t138.5 -54t132 -64.5t111 -83t77 -114t28.5 -152q0 -75 -36 -148.5t-98.5 -132t-158.5 -95t-206 -36.5q-98 0 -182.5 24.5t-145.5 67t-103 98.5t-60 121.5t-11 132.5q6 62 53 83
q38 17 64 -9q26 -27 10 -80q-16 -45 -13 -93.5t16.5 -95.5t47 -89.5t78 -75t109.5 -51.5t141 -19q168 0 287.5 95.5t119.5 228.5q0 80 -28.5 142.5t-76.5 104t-110 74.5t-130.5 58.5t-137.5 51.5t-131 58t-110 72.5t-76.5 101.5t-28.5 138q0 105 60 188t157 126.5t211 43.5
q105 0 191 -29.5t139.5 -77.5t81.5 -108.5t24 -124.5q-4 -63 -47 -81q-35 -15 -59 11q-24 27 -11 74q12 34 10 71.5t-11.5 73t-36 68t-62.5 56.5t-93 38.5t-126 14.5zM563 1587q-2 0 -2 2q-40 44 -123.5 126t-126.5 126q-6 6 -1 8q2 1 7 -2l246 -145l248 145q3 2 5 1t2.5 -3
t-1.5 -4q-43 -44 -126.5 -126t-123.5 -126z" />
    <glyph glyph-name="scaron" unicode="&#x161;" horiz-adv-x="825" 
d="M414 942q-58 0 -111 -17t-94 -61.5t-41 -109.5q0 -44 33 -77t85.5 -55t116.5 -42.5t128 -45.5t116.5 -57t85.5 -84.5t33 -120.5q0 -109 -95.5 -196.5t-252.5 -87.5q-174 0 -276 89t-97 208q2 52 41 67q34 12 56 -12q19 -21 10 -59q-7 -39 -6 -78.5t21.5 -76t51.5 -64.5
t83 -45t118 -17q114 0 197 59.5t83 141.5q0 52 -25 92.5t-66 64.5t-93.5 46t-107.5 37.5t-108 39.5t-94.5 51.5t-68 73.5t-28.5 105q-2 74 44 131t115.5 84.5t147.5 27.5q139 0 232 -68t89 -173q-2 -49 -41 -63q-34 -12 -57 12q-19 21 -10 57q24 93 -29.5 158t-185.5 65z
M412 1102q-2 0 -2 2q-40 44 -123.5 126t-126.5 126q-6 6 -1 8q2 1 7 -2l246 -145l247 145q3 2 5.5 1t3 -3t-1.5 -4q-43 -44 -126.5 -126t-123.5 -126z" />
    <glyph glyph-name="Tcommaaccent" unicode="&#x162;" horiz-adv-x="1230" 
d="M297 1405q-96 0 -146.5 -54t-50.5 -134v-39h-16v243h1083v-243h-16v41q0 79 -50 132.5t-145 53.5h-258q-20 0 -20 -21v-1347q0 -21 20 -21h64q7 0 9.5 -4t0 -8t-9.5 -4h-281q-9 0 -9 8t9 8h60q20 0 20 21v1347q0 21 -20 21h-244zM547 -489q-9 -9 -13 -5t5 13
q29 42 45.5 82t18.5 75t-21 52q-23 8 -37.5 27t-14.5 44q0 32 22 54t54 22q33 0 54.5 -23t21.5 -59q0 -114 -135 -282z" />
    <glyph glyph-name="tcommaaccent" unicode="&#x163;" horiz-adv-x="401" 
d="M53 926q0 6 6 6h43q35 2 60 23t37.5 53.5t18 64.5t5.5 64h13v-162q0 -35 -52 -43h234q5 0 7 -3t0 -6t-7 -3h-137q-45 0 -45 -50v-768q0 -35 18 -59.5t55 -24.5q30 0 50 16.5t20 47.5q0 6 6 6t6 -6q0 -44 -30 -67t-85 -23q-67 0 -107 40t-40 111v777h-70q-6 0 -6 6z
M156 -489q-10 -10 -14 -4q-3 4 5 12q29 42 45.5 82t18.5 75t-21 52q-23 7 -37 26.5t-14 44.5q0 32 22 54t54 22q33 0 54.5 -23t21.5 -59q0 -114 -135 -282z" />
    <glyph glyph-name="Tcaron" unicode="&#x164;" horiz-adv-x="1230" 
d="M297 1405q-96 0 -146.5 -54t-50.5 -134v-39h-16v243h1083v-243h-16v41q0 79 -50 132.5t-145 53.5h-258q-20 0 -20 -21v-1347q0 -21 20 -21h64q7 0 9.5 -4t0 -8t-9.5 -4h-281q-9 0 -9 8t9 8h60q20 0 20 21v1347q0 21 -20 21h-244zM614 1587q-2 0 -2 2q-40 44 -123.5 126
t-126.5 126q-2 2 -2 4.5t2 3.5t7 -2l245 -145l248 145q3 2 5 1t2.5 -3t-1.5 -4q-43 -44 -126.5 -126t-123.5 -126z" />
    <glyph glyph-name="tcaron" unicode="&#x165;" horiz-adv-x="702" 
d="M53 926q0 6 6 6h43q35 2 60 23t37.5 53.5t18 64.5t5.5 64h13v-162q0 -35 -52 -43h234q5 0 7 -3t0 -6t-7 -3h-137q-45 0 -45 -50v-768q0 -35 18 -59.5t55 -24.5q30 0 50 16.5t20 47.5q0 6 6 6t6 -6q0 -44 -30 -67t-85 -23q-67 0 -107 40t-40 111v777h-70q-6 0 -6 6z
M555 1180q-6 -4 -7.5 -0.5t3.5 6.5q25 20 34 36.5t5 47.5q-3 25 -24 55.5t-21 52.5q0 18 10.5 28.5t28.5 10.5q21 0 35 -17.5t14 -53.5q0 -107 -78 -166z" />
    <glyph glyph-name="Tbar" unicode="&#x166;" horiz-adv-x="1185" 
d="M301 770v16h227v598q0 21 -20 21h-244q-96 0 -146 -53.5t-50 -134.5v-39h-17v243h1084v-243h-17v41q0 79 -49.5 132.5t-144.5 53.5h-258q-21 0 -21 -21v-598h225v-16h-225v-733q0 -21 21 -21h63q7 0 9.5 -4t0 -8t-9.5 -4h-280q-9 0 -9 8t9 8h59q20 0 20 21v733h-227z" />
    <glyph glyph-name="tbar" unicode="&#x167;" horiz-adv-x="401" 
d="M53 926q0 6 6 6h43q35 2 60 23t37.5 53.5t18 64.5t5.5 64h13v-162q0 -35 -52 -43h234q5 0 7 -3t0 -6t-7 -3h-146q-36 -3 -36 -50v-229h161v-16h-161v-523q0 -35 18 -59.5t55 -24.5q30 0 50 16.5t20 47.5q0 6 6 6t6 -6q0 -44 -30 -67t-85 -23q-67 0 -107 40t-40 111v482
h-61v16h61v279h-70q-6 0 -6 6z" />
    <glyph glyph-name="Utilde" unicode="&#x168;" horiz-adv-x="1292" 
d="M1133 1384v-884q0 -527 -459 -527q-89 0 -164.5 17t-142 57t-113 100.5t-73.5 153t-27 209.5v874q0 21 -21 21h-51q-5 0 -7 4t-0.5 8t7.5 4h260q8 0 8 -8t-8 -8h-51q-21 0 -21 -21v-892q0 -124 22.5 -215.5t59 -145.5t91 -86.5t108.5 -43.5t123 -11q100 0 177 25.5
t137.5 83t93 158.5t32.5 243v884q0 21 -20 21h-72q-9 0 -9 8t9 8h209q7 0 9.5 -4t0 -8t-9.5 -4h-78q-20 0 -20 -21zM958 1810q0 -78 -35.5 -126t-101.5 -48q-40 0 -84 24t-87 48.5t-79 24.5q-49 0 -77.5 -34t-28.5 -87q0 -4 -4 -4t-4 4q0 84 40.5 132t108.5 48
q46 0 118.5 -44t119.5 -44q52 0 79 28t27 78q0 7 4 7t4 -7z" />
    <glyph glyph-name="utilde" unicode="&#x169;" horiz-adv-x="1048" 
d="M905 911v-819q0 -28 16.5 -51t47.5 -23q27 0 43 18t16 46q0 6 6 6t6 -6q0 -90 -114 -90q-61 0 -94 40.5t-33 110.5v301q-32 -128 -83.5 -227t-130.5 -163t-173 -64q-287 0 -287 303v577q0 47 -41 50h-61q-7 0 -7 6t7 6h270q6 0 6 -6t-6 -6h-62v-633q0 -75 11.5 -128.5
t28 -82.5t44 -45.5t51 -20.5t56.5 -4q70 0 132 39t108.5 107.5t81 153.5t55.5 183v422q0 21 20 21h66q20 0 20 -21zM770 1325q0 -78 -35.5 -126t-101.5 -48q-49 0 -128 48t-122 48q-49 0 -78 -34t-29 -87q0 -4 -4 -4t-4 4q0 84 41 132.5t109 48.5q46 0 118 -44t119 -44
q52 0 79.5 28t27.5 78q0 6 4 6t4 -6z" />
    <glyph glyph-name="Umacron" unicode="&#x16a;" horiz-adv-x="1339" 
d="M1155 1384v-884q0 -527 -459 -527q-89 0 -164.5 17t-142 57t-113 100.5t-73.5 153t-27 209.5v874q0 21 -20 21h-52q-5 0 -7 4t-0.5 8t7.5 4h261q7 0 7 -8t-7 -8h-52q-20 0 -20 -21v-892q0 -124 22.5 -215.5t58.5 -145.5t90.5 -86.5t108.5 -43.5t123 -11q100 0 177 25.5
t138 83t93.5 158.5t32.5 243v884q0 21 -21 21h-72q-9 0 -9 8t9 8h209q7 0 9.5 -4t0 -8t-9.5 -4h-77q-21 0 -21 -21zM416 1608v16h569v-16h-569z" />
    <glyph glyph-name="umacron" unicode="&#x16b;" 
d="M901 911v-819q0 -28 16.5 -51t47.5 -23q27 0 43 18t16 46q0 6 6 6t6 -6q0 -90 -114 -90q-61 0 -94 40.5t-33 110.5v301q-32 -128 -83.5 -227t-130.5 -163t-173 -64q-287 0 -287 303v577q0 47 -41 50h-62q-6 0 -6 6t6 6h271q6 0 6 -6t-6 -6h-62v-633q0 -75 11.5 -128.5
t28 -82.5t44 -45.5t51 -20.5t56.5 -4q70 0 132 39t108.5 107.5t81 153.5t55.5 183v422q0 21 20 21h66q20 0 20 -21zM229 1122v17h570v-17h-570z" />
    <glyph glyph-name="Ubreve" unicode="&#x16c;" horiz-adv-x="1292" 
d="M1133 1384v-884q0 -527 -459 -527q-89 0 -164.5 17t-142 57t-113 100.5t-73.5 153t-27 209.5v874q0 21 -21 21h-51q-5 0 -7 4t-0.5 8t7.5 4h260q8 0 8 -8t-8 -8h-51q-21 0 -21 -21v-892q0 -124 22.5 -215.5t59 -145.5t91 -86.5t108.5 -43.5t123 -11q100 0 177 25.5
t137.5 83t93 158.5t32.5 243v884q0 21 -20 21h-72q-9 0 -9 8t9 8h209q7 0 9.5 -4t0 -8t-9.5 -4h-78q-20 0 -20 -21zM684 1575q-70 0 -125 59t-55 156q0 20 15 30t29.5 1.5t14.5 -31.5q0 -11 -13.5 -25.5t-22 -26t0.5 -20.5q41 -51 156 -51h8q117 0 158 51q9 11 -14 35.5
t-23 36.5q0 25 14.5 33.5t29.5 -2t15 -31.5q0 -97 -55 -156t-125 -59h-8z" />
    <glyph glyph-name="ubreve" unicode="&#x16d;" horiz-adv-x="1048" 
d="M905 911v-819q0 -28 16.5 -51t47.5 -23q27 0 43 18t16 46q0 6 6 6t6 -6q0 -90 -114 -90q-61 0 -94 40.5t-33 110.5v301q-32 -128 -83.5 -227t-130.5 -163t-173 -64q-287 0 -287 303v577q0 47 -41 50h-61q-7 0 -7 6t7 6h270q6 0 6 -6t-6 -6h-62v-633q0 -75 11.5 -128.5
t28 -82.5t44 -45.5t51 -20.5t56.5 -4q70 0 132 39t108.5 107.5t81 153.5t55.5 183v422q0 21 20 21h66q20 0 20 -21zM514 1090q-70 0 -125 59t-55 156q0 20 15 30t29.5 1.5t14.5 -31.5q0 -11 -13.5 -25.5t-22 -26t0.5 -20.5q41 -51 156 -51h8q117 0 158 51q9 11 -14 35.5
t-23 36.5q0 25 14.5 33.5t29.5 -2t15 -31.5q0 -97 -55 -156t-125 -59h-8z" />
    <glyph glyph-name="Uring" unicode="&#x16e;" horiz-adv-x="1339" 
d="M1155 1384v-884q0 -527 -459 -527q-89 0 -164.5 17t-142 57t-113 100.5t-73.5 153t-27 209.5v874q0 21 -20 21h-52q-5 0 -7 4t-0.5 8t7.5 4h261q7 0 7 -8t-7 -8h-52q-20 0 -20 -21v-892q0 -124 22.5 -215.5t58.5 -145.5t90.5 -86.5t108.5 -43.5t123 -11q100 0 177 25.5
t138 83t93.5 158.5t32.5 243v884q0 21 -21 21h-72q-9 0 -9 8t9 8h209q7 0 9.5 -4t0 -8t-9.5 -4h-77q-21 0 -21 -21zM580 1708q0 57 39 96t96 39t96 -39t39 -96t-39 -96t-96 -39t-96 39t-39 96zM594 1708q0 -51 35 -86t86 -35t86 35t35 86t-35 86t-86 35t-86 -35t-35 -86z
" />
    <glyph glyph-name="uring" unicode="&#x16f;" 
d="M901 911v-819q0 -28 16.5 -51t47.5 -23q27 0 43 18t16 46q0 6 6 6t6 -6q0 -90 -114 -90q-61 0 -94 40.5t-33 110.5v301q-32 -128 -83.5 -227t-130.5 -163t-173 -64q-287 0 -287 303v577q0 47 -41 50h-62q-6 0 -6 6t6 6h271q6 0 6 -6t-6 -6h-62v-633q0 -75 11.5 -128.5
t28 -82.5t44 -45.5t51 -20.5t56.5 -4q70 0 132 39t108.5 107.5t81 153.5t55.5 183v422q0 21 20 21h66q20 0 20 -21zM379 1223q0 57 39 96t96 39t96 -39t39 -96t-39 -96.5t-96 -39.5t-96 39.5t-39 96.5zM393 1223q0 -51 35 -86t86 -35t86 35t35 86t-35 85.5t-86 34.5
t-86 -34.5t-35 -85.5z" />
    <glyph glyph-name="Uhungarumlaut" unicode="&#x170;" horiz-adv-x="1339" 
d="M1155 1384v-884q0 -527 -459 -527q-89 0 -164.5 17t-142 57t-113 100.5t-73.5 153t-27 209.5v874q0 21 -20 21h-52q-5 0 -7 4t-0.5 8t7.5 4h261q7 0 7 -8t-7 -8h-52q-20 0 -20 -21v-892q0 -124 22.5 -215.5t58.5 -145.5t90.5 -86.5t108.5 -43.5t123 -11q100 0 177 25.5
t138 83t93.5 158.5t32.5 243v884q0 21 -21 21h-72q-9 0 -9 8t9 8h209q7 0 9.5 -4t0 -8t-9.5 -4h-77q-21 0 -21 -21zM563 1671l55 129q11 27 29 40t35 11q14 -1 21.5 -9.5t7.5 -18.5q0 -25 -27 -49l-115 -103h-6zM752 1671l55 129q23 55 63 51q14 -1 21.5 -9.5t7.5 -18.5
q0 -25 -27 -49l-114 -103h-6z" />
    <glyph glyph-name="uhungarumlaut" unicode="&#x171;" 
d="M901 911v-819q0 -28 16.5 -51t47.5 -23q27 0 43 18t16 46q0 6 6 6t6 -6q0 -90 -114 -90q-61 0 -94 40.5t-33 110.5v301q-32 -128 -83.5 -227t-130.5 -163t-173 -64q-287 0 -287 303v577q0 47 -41 50h-62q-6 0 -6 6t6 6h271q6 0 6 -6t-6 -6h-62v-633q0 -75 11.5 -128.5
t28 -82.5t44 -45.5t51 -20.5t56.5 -4q70 0 132 39t108.5 107.5t81 153.5t55.5 183v422q0 21 20 21h66q20 0 20 -21zM383 1186l55 129q11 27 29 40t35 11q28 -3 28 -29t-26 -49l-115 -102h-6zM571 1186l56 129q23 55 63 51q14 -1 21.5 -10t7.5 -19q0 -25 -27 -49l-114 -102
h-7z" />
    <glyph glyph-name="Uogonek" unicode="&#x172;" horiz-adv-x="1339" 
d="M805 -309l6 4l2 -2q0 -11 -36 -29t-66 -18q-26 0 -53 5.5t-56.5 19t-48 42t-18.5 68.5q0 128 174 192h-13q-89 0 -164.5 17t-142 57t-113 100.5t-73.5 153t-27 209.5v874q0 21 -20 21h-52q-5 0 -7 4t-0.5 8t7.5 4h261q7 0 7 -8t-7 -8h-52q-20 0 -20 -21v-892
q0 -124 22.5 -215.5t58.5 -145.5t90.5 -86.5t108.5 -43.5t123 -11q100 0 177 25.5t138 83t93.5 158.5t32.5 243v884q0 21 -21 21h-72q-9 0 -9 8t9 8h209q7 0 9.5 -4t0 -8t-9.5 -4h-77q-21 0 -21 -21v-884q0 -505 -424 -525q-50 -23 -74 -80t-24 -116q0 -57 22.5 -88
t65.5 -31q44 0 84 31z" />
    <glyph glyph-name="uogonek" unicode="&#x173;" 
d="M991 -287l6 4l2 -2q0 -11 -36 -29t-66 -18q-26 0 -53 5.5t-56.5 19t-48 42t-18.5 68.5q0 129 170 193q-96 18 -96 147v301q-32 -128 -83.5 -227t-130.5 -163t-173 -64q-287 0 -287 303v577q0 47 -41 50h-62q-6 0 -6 6t6 6h271q6 0 6 -6t-6 -6h-62v-633q0 -75 11.5 -128.5
t28 -82.5t44 -45.5t51 -20.5t56.5 -4q70 0 132 39t108.5 107.5t81 153.5t55.5 183v443h106v-840q0 -28 16.5 -51t47.5 -23q27 0 43 18t16 46q0 6 6 6t6 -6q0 -90 -114 -90h-15q-45 -25 -66.5 -80.5t-21.5 -110.5q0 -118 88 -118q46 0 84 30z" />
    <glyph glyph-name="Wcircumflex" unicode="&#x174;" horiz-adv-x="1935" 
d="M1417 -12h-45l-381 1054l-332 -1054h-45l-510 1417h-98q-9 0 -9 8t9 8h287q7 0 9.5 -4t0 -8t-9.5 -4h-68l459 -1270l297 936l-119 334h-80q-8 0 -8 8t8 8h277q7 0 7 -8t-7 -8h-76l459 -1270l403 1270h-104q-6 0 -8.5 4t-0.5 8t9 4h231q9 0 9 -8t-9 -8h-108zM1227 1593
l-248 146l-246 -146q-5 -3 -7 -2t-1.5 3.5t2.5 4.5q43 44 126.5 126t123.5 126q3 3 6 0q40 -44 123.5 -126t126.5 -126q5 -5 -1 -7q-2 -1 -5 1z" />
    <glyph glyph-name="Ycircumflex" unicode="&#x176;" horiz-adv-x="1103" 
d="M553 37v612l-434 756h-109q-6 0 -6 8t6 8h326q8 0 8 -8t-8 -8h-96l417 -715l410 715h-113q-5 0 -7 4t-0.5 8t7.5 4h263q6 0 6 -8t-6 -8h-130l-419 -731v-637q0 -21 20 -21h64q8 0 8 -8t-8 -8h-285q-7 0 -7 8t7 8h65q21 0 21 21zM866 1593l-248 146l-245 -146q-5 -3 -7 -2
t-1.5 3.5t2.5 4.5q38 39 123 123t126 129q4 3 7 0q32 -34 67 -69.5t86.5 -86.5t95.5 -96q5 -5 -1 -7q-2 -1 -5 1z" />
    <glyph glyph-name="Ydieresis" unicode="&#x178;" horiz-adv-x="1103" 
d="M553 37v612l-434 756h-109q-6 0 -6 8t6 8h326q8 0 8 -8t-8 -8h-96l417 -715l410 715h-113q-5 0 -7 4t-0.5 8t7.5 4h263q6 0 6 -8t-6 -8h-130l-419 -731v-637q0 -21 20 -21h64q8 0 8 -8t-8 -8h-285q-7 0 -7 8t7 8h65q21 0 21 21zM449 1616q-29 0 -49.5 20.5t-20.5 49.5
t20.5 49t49.5 20t49 -20t20 -49t-20 -49.5t-49 -20.5zM780 1618q-29 0 -49 20.5t-20 49.5t20 49t49 20t49.5 -20t20.5 -49t-20.5 -49.5t-49.5 -20.5z" />
    <glyph glyph-name="Zacute" unicode="&#x179;" horiz-adv-x="1171" 
d="M57 0l912 1403h-615q-196 0 -196 -207v-90h-17v313h963l-914 -1403h641q111 0 169.5 74.5t58.5 202.5v39h16v-332h-1018zM567 1673l80 133q34 56 74 52q14 -1 22 -13t5 -22q-5 -24 -37 -49l-138 -101h-6z" />
    <glyph glyph-name="zacute" unicode="&#x17a;" horiz-adv-x="817" 
d="M49 0l602 920h-325q-86 0 -142.5 -52t-56.5 -127v-30h-12v221h661l-604 -920h377q78 0 132 61t54 148v29h13v-250h-699zM362 1188l80 133q34 55 74 51q14 -1 22 -13t5 -22q-5 -24 -37 -49l-137 -100h-7z" />
    <glyph glyph-name="Zdotaccent" unicode="&#x17b;" horiz-adv-x="1171" 
d="M57 0l912 1403h-615q-196 0 -196 -207v-90h-17v313h963l-914 -1403h641q111 0 169.5 74.5t58.5 202.5v39h16v-332h-1018zM516 1808q0 31 19.5 50.5t50.5 19.5t50 -19.5t19 -50.5t-19 -50t-50 -19t-50.5 19t-19.5 50z" />
    <glyph glyph-name="zdotaccent" unicode="&#x17c;" horiz-adv-x="817" 
d="M49 0l602 920h-325q-86 0 -142.5 -52t-56.5 -127v-30h-12v221h661l-604 -920h377q78 0 132 61t54 148v29h13v-250h-699zM369 1323q0 31 19 50.5t50 19.5t50.5 -19.5t19.5 -50.5t-19.5 -50.5t-50.5 -19.5t-50 19.5t-19 50.5z" />
    <glyph glyph-name="Zcaron" unicode="&#x17d;" horiz-adv-x="1171" 
d="M57 0l912 1403h-615q-196 0 -196 -207v-90h-17v313h963l-914 -1403h641q111 0 169.5 74.5t58.5 202.5v39h16v-332h-1018zM610 1587q-2 0 -2 2q-40 44 -123.5 126t-126.5 126q-2 2 -2 4.5t2 3.5t7 -2l245 -145l248 145q3 2 5 1t2.5 -3t-1.5 -4q-43 -44 -126.5 -126
t-123.5 -126z" />
    <glyph glyph-name="zcaron" unicode="&#x17e;" horiz-adv-x="817" 
d="M49 0l602 920h-325q-86 0 -142.5 -52t-56.5 -127v-30h-12v221h661l-604 -920h377q78 0 132 61t54 148v29h13v-250h-699zM436 1102q-2 0 -2 2q-40 44 -123.5 126t-126.5 126q-6 6 -1 8q2 1 7 -2l246 -145l248 145q3 2 5 1t2.5 -3t-1.5 -4q-43 -44 -126.5 -126t-123.5 -126
z" />
    <glyph glyph-name="florin" unicode="&#x192;" horiz-adv-x="458" 
d="M141 905q0 15 -14 15h-102q-7 0 -7 6t7 6h102q14 0 14 14v66q0 238 119 368.5t332 106.5q81 -9 86 -53q3 -29 -26 -49q-20 -14 -40 -7q-115 40 -184.5 48.5t-110.5 -18.5t-55 -82.5t-14 -156.5v-223q0 -14 14 -14h144q6 0 6 -6t-6 -6h-144q-14 0 -14 -15v-745
q0 -151 -57.5 -274t-163.5 -203q-71 -62 -182 -92t-228 -21q-80 6 -99 56q-13 33 10 57q23 23 58 8q146 -60 257 -59t175 59q123 113 123 469v745z" />
    <glyph glyph-name="Ohorn" unicode="&#x1a0;" horiz-adv-x="1388" 
d="M692 -33q-131 0 -242.5 47t-196.5 138.5t-133 238t-48 334.5q0 145 34 265.5t93 204.5t139 142t171.5 85.5t192.5 27.5h3q98 -2 187.5 -31t167 -88t134.5 -143t90 -202.5t33 -260.5q0 -188 -48.5 -334.5t-133.5 -238t-196.5 -138.5t-242.5 -47h-4zM696 -18q86 1 159 26
t136 81t107 141t69 210.5t25 284.5q0 147 -25 265.5t-68.5 199.5t-105 136.5t-133 81.5t-153.5 28h-25q-104 -3 -190 -44.5t-153 -124.5t-104.5 -221t-37.5 -321q0 -159 25 -284.5t69 -210.5t106.5 -141t135.5 -81t159 -26h4z" />
    <glyph glyph-name="ohorn" unicode="&#x1a1;" horiz-adv-x="1017" 
d="M510 956q92 0 171.5 -28.5t141.5 -84t97.5 -145t35.5 -202.5v-23q0 -135 -50 -242.5t-153 -173t-245 -65.5q-141 0 -244 65.5t-153 173t-50 242.5v23q0 54 20.5 112.5t57.5 104.5q0 69 54 125.5t138.5 87t178.5 30.5zM510 944q-130 0 -204 -73.5t-50 -165.5
q11 -39 -6 -63.5t-45 -23t-47 28.5q0 -1 7 -59t7 -92v-23q0 -103 19.5 -187.5t59.5 -148t105.5 -98.5t151.5 -35q115 0 192 62t110.5 164.5t33.5 242.5v23q0 119 -27.5 208t-75.5 140t-106 75.5t-125 24.5z" />
    <glyph glyph-name="Uhorn" unicode="&#x1af;" horiz-adv-x="1339" 
d="M1155 1384v-884q0 -527 -459 -527q-89 0 -164.5 17t-142 57t-113 100.5t-73.5 153t-27 209.5v874q0 21 -20 21h-52q-5 0 -7 4t-0.5 8t7.5 4h261q7 0 7 -8t-7 -8h-52q-20 0 -20 -21v-892q0 -124 22.5 -215.5t58.5 -145.5t90.5 -86.5t108.5 -43.5t123 -11q100 0 177 25.5
t138 83t93.5 158.5t32.5 243v884q0 21 -21 21h-72q-9 0 -9 8t9 8h209q7 0 9.5 -4t0 -8t-9.5 -4h-77q-21 0 -21 -21z" />
    <glyph glyph-name="uhorn" unicode="&#x1b0;" 
d="M901 911v-819q0 -28 16.5 -51t47.5 -23q27 0 43 18t16 46q0 6 6 6t6 -6q0 -90 -114 -90q-61 0 -94 40.5t-33 110.5v301q-32 -128 -83.5 -227t-130.5 -163t-173 -64q-287 0 -287 303v577q0 47 -41 50h-62q-6 0 -6 6t6 6h271q6 0 6 -6t-6 -6h-62v-633q0 -75 11.5 -128.5
t28 -82.5t44 -45.5t51 -20.5t56.5 -4q70 0 132 39t108.5 107.5t81 153.5t55.5 183v422q0 21 20 21h66q20 0 20 -21z" />
    <glyph glyph-name="AEacute" unicode="&#x1fc;" horiz-adv-x="1935" 
d="M291 12q6 0 6 -6t-6 -6h-236q-5 0 -7 3t0 6t7 3h47q23 2 53 17t46 39l827 1333q-2 4 -10 8h-135q-5 0 -7 3t0 6t7 3h870v-239h-12v26q0 84 -57.5 142.5t-159.5 58.5h-363q-14 0 -14 -14v-615q0 -14 14 -14h269q64 3 106.5 35t42.5 90v14h12v-295h-12v21q0 57 -43.5 88
t-105.5 31h-269q-14 0 -14 -15v-708q0 -15 14 -15h449q79 6 145 78t66 170v43h12v-303h-946q-6 0 -6 6t6 6h129q14 0 14 15v669h-426l-389 -624q-8 -11 1.5 -34t27.5 -26h47zM610 709h420v671zM1137 1673l80 133q34 56 73 52q14 -1 22 -13t5 -22q-5 -24 -37 -49l-137 -101
h-6z" />
    <glyph glyph-name="aeacute" unicode="&#x1fd;" horiz-adv-x="1550" 
d="M1122 -10q-109 1 -192 36.5t-134 99.5t-76.5 149t-25.5 188h-2q-29 -208 -134.5 -340.5t-260.5 -132.5q-121 0 -183.5 55.5t-62.5 159.5q0 52 20.5 92.5t50.5 65t82.5 47.5t96 35.5t113.5 32t114 34.5q55 19 89.5 42.5t50.5 55.5t21 61t5 74q0 88 -50 143.5t-163 55.5
q-69 0 -122.5 -25t-80 -64t-35.5 -86.5t11 -92.5q17 -49 -17 -76q-30 -25 -63 -7q-35 21 -39 79q-8 118 88.5 201t257.5 83q139 0 216.5 -49.5t95.5 -132.5q65 86 162 135t216 49q142 0 232 -66t90 -179q0 -86 -70 -148t-170 -90q-193 -50 -252 -73q-171 -64 -182 -161
q-2 -15 0 -32q43 -106 109.5 -156.5t193.5 -50.5q93 0 164.5 45.5t100.5 110.5t10 125q-14 46 19 65q29 17 56 -3q25 -20 25 -58q0 -74 -52 -143t-139.5 -111.5t-183.5 -42.5zM1386 725q0 99 -55 159t-178 60q-89 0 -155.5 -34t-106.5 -95.5t-61 -138.5t-25 -172
q-3 -124 6 -242q7 33 31 61t52 46.5t75.5 36.5t82.5 28t93 26t88 25q153 46 153 240zM315 14q83 0 152.5 46t114.5 122.5t73 167t37 187.5v94q-12 -44 -44.5 -71t-108.5 -58q-26 -10 -76.5 -25.5t-85 -26.5t-77.5 -32.5t-69 -47t-44.5 -66.5t-18.5 -93v-18
q0 -82 38.5 -130.5t108.5 -48.5zM764 1188l80 133q34 55 74 51q14 -1 21.5 -13t4.5 -22q-5 -24 -37 -49l-137 -100h-6z" />
    <glyph glyph-name="Scommaaccent" unicode="&#x218;" horiz-adv-x="1079" 
d="M551 1440q-166 0 -256 -82t-90 -195q0 -65 28.5 -117.5t77 -88t111 -65t131.5 -56t138.5 -54t132 -64.5t111 -83t77 -114t28.5 -152q0 -75 -36 -148.5t-98.5 -132t-158.5 -95t-206 -36.5q-98 0 -182.5 24.5t-145.5 67t-103 98.5t-60 121.5t-11 132.5q6 62 53 83
q38 17 64 -9q26 -27 10 -80q-16 -45 -13 -93.5t16.5 -95.5t47 -89.5t78 -75t109.5 -51.5t141 -19q168 0 287.5 95.5t119.5 228.5q0 80 -28.5 142.5t-76.5 104t-110 74.5t-130.5 58.5t-137.5 51.5t-131 58t-110 72.5t-76.5 101.5t-28.5 138q0 105 60 188t157 126.5t211 43.5
q105 0 191 -29.5t139.5 -77.5t81.5 -108.5t24 -124.5q-4 -63 -47 -81q-35 -15 -59 11q-24 27 -11 74q12 34 10 71.5t-11.5 73t-36 68t-62.5 56.5t-93 38.5t-126 14.5z" />
    <glyph glyph-name="scommaaccent" unicode="&#x219;" horiz-adv-x="825" 
d="M414 942q-58 0 -111 -17t-94 -61.5t-41 -109.5q0 -44 33 -77t85.5 -55t116.5 -42.5t128 -45.5t116.5 -57t85.5 -84.5t33 -120.5q0 -109 -95.5 -196.5t-252.5 -87.5q-174 0 -276 89t-97 208q2 52 41 67q34 12 56 -12q19 -21 10 -59q-7 -39 -6 -78.5t21.5 -76t51.5 -64.5
t83 -45t118 -17q114 0 197 59.5t83 141.5q0 52 -25 92.5t-66 64.5t-93.5 46t-107.5 37.5t-108 39.5t-94.5 51.5t-68 73.5t-28.5 105q-2 74 44 131t115.5 84.5t147.5 27.5q139 0 232 -68t89 -173q-2 -49 -41 -63q-34 -12 -57 12q-19 21 -10 57q24 93 -29.5 158t-185.5 65z
M344 -489q-9 -9 -13 -5t5 13q29 42 45.5 82t18.5 75t-21 52q-23 7 -37 26.5t-14 44.5q0 32 21.5 54t53.5 22q33 0 54.5 -23t21.5 -59q0 -114 -135 -282z" />
    <glyph glyph-name="circumflex" unicode="&#x2c6;" horiz-adv-x="835" 
d="M668 1108l-248 145l-246 -145q-5 -3 -7 -2t-1.5 3.5t2.5 4.5q43 44 126.5 126t123.5 126q3 3 6 0q40 -44 123.5 -126t126.5 -126q5 -5 -1 -7q-2 -1 -5 1z" />
    <glyph glyph-name="caron" unicode="&#x2c7;" horiz-adv-x="858" 
d="M420 1102q-2 0 -2 2q-40 44 -123.5 126t-126.5 126q-6 6 -1 8q2 1 7 -2l246 -145l248 145q3 2 5 1t2.5 -3t-1.5 -4q-43 -44 -126.5 -126t-123.5 -126z" />
    <glyph glyph-name="breve" unicode="&#x2d8;" horiz-adv-x="614" 
d="M311 1090q-70 0 -125 59t-55 156q0 20 14.5 30t29.5 1.5t15 -31.5q0 -11 -13.5 -26.5t-21 -24t0.5 -21.5q41 -51 155 -51h8q117 0 158 51q9 11 -14 35.5t-23 36.5q0 25 15 33.5t30 -2t15 -31.5q0 -97 -55.5 -156t-125.5 -59h-8z" />
    <glyph glyph-name="dotaccent" unicode="&#x2d9;" horiz-adv-x="348" 
d="M102 1323q0 31 19.5 50.5t50.5 19.5t50.5 -19.5t19.5 -50.5t-19.5 -50.5t-50.5 -19.5t-50.5 19.5t-19.5 50.5z" />
    <glyph glyph-name="ring" unicode="&#x2da;" horiz-adv-x="952" 
d="M362 1223q0 57 39.5 96t96.5 39t96 -39t39 -96t-39 -96.5t-96 -39.5t-96.5 39.5t-39.5 96.5zM377 1223q0 -51 35 -86t86 -35t85.5 35t34.5 86t-34.5 85.5t-85.5 34.5t-86 -34.5t-35 -85.5z" />
    <glyph glyph-name="ogonek" unicode="&#x2db;" horiz-adv-x="559" 
d="M403 -293l7 4l2 -2q0 -11 -36.5 -29t-66.5 -18q-26 0 -53 5.5t-56.5 19t-48 42t-18.5 68.5q0 137 199 201l8 -4q-56 -20 -82.5 -78.5t-26.5 -120.5q0 -57 22.5 -88t65.5 -31q44 0 84 31z" />
    <glyph glyph-name="tilde" unicode="&#x2dc;" horiz-adv-x="956" 
d="M700 1325q0 -78 -35.5 -126t-101.5 -48q-49 0 -128 48t-122 48q-49 0 -77.5 -34t-28.5 -87q0 -4 -4 -4t-4 4q0 84 40.5 132.5t108.5 48.5q46 0 118.5 -44t119.5 -44q52 0 79 28t27 78q0 6 4 6t4 -6z" />
    <glyph glyph-name="hungarumlaut" unicode="&#x2dd;" horiz-adv-x="673" 
d="M205 1186l55 129q11 27 29 40t35 11q28 -3 28 -29t-26 -49l-115 -102h-6zM393 1186l56 129q23 55 63 51q14 -1 21.5 -10t7.5 -19q0 -25 -27 -49l-115 -102h-6z" />
    <glyph glyph-name="gravecomb" unicode="&#x300;" horiz-adv-x="520" 
d="M274 1315l56 -129h-6l-115 102q-27 24 -27 49q0 10 7.5 19t21.5 10q40 4 63 -51z" />
    <glyph glyph-name="acutecomb" unicode="&#x301;" horiz-adv-x="323" 
d="M182 1188l80 133q34 55 74 51q14 -1 21.5 -13t4.5 -22q-5 -25 -36 -49l-138 -100h-6z" />
    <glyph glyph-name="tildecomb" unicode="&#x303;" horiz-adv-x="956" 
d="M700 1325q0 -78 -35.5 -126t-101.5 -48q-49 0 -128 48t-122 48q-49 0 -77.5 -34t-28.5 -87q0 -4 -4 -4t-4 4q0 84 40.5 132.5t108.5 48.5q46 0 118.5 -44t119.5 -44q52 0 79 28t27 78q0 6 4 6t4 -6z" />
    <glyph glyph-name="hookabovecomb" unicode="&#x309;" horiz-adv-x="1705" 
 />
    <glyph glyph-name="dotbelowcomb" unicode="&#x323;" horiz-adv-x="323" 
d="M66 -201q0 34 23.5 58t57.5 24t58 -24t24 -58t-24 -58t-58 -24t-57.5 24t-23.5 58z" />
    <glyph glyph-name="afii10023" unicode="&#x401;" horiz-adv-x="1122" 
d="M635 811h-313q-15 0 -15 -14v-766q0 -15 15 -15h546q60 0 113 64.5t53 142.5v33h17v-256h-971q-6 0 -6 8t6 8h96q14 0 14 15v1360q0 14 -14 14h-96q-8 0 -8 8t8 8h887v-239h-17v32q0 81 -50.5 136t-147.5 55h-430q-15 0 -15 -14v-549q0 -15 15 -15h313q65 0 111.5 36
t46.5 98v6h16v-295h-16v14q0 60 -46.5 92.5t-111.5 32.5zM426 1616q-29 0 -49.5 20.5t-20.5 49.5t20.5 49t49.5 20t49.5 -20t20.5 -49t-20.5 -49.5t-49.5 -20.5zM758 1618q-29 0 -49.5 20.5t-20.5 49.5t20.5 49t49.5 20t49 -20t20 -49t-20 -49.5t-49 -20.5z" />
    <glyph glyph-name="afii10051" unicode="&#x402;" horiz-adv-x="1540" 
d="M61 1178v243h1084v-243h-17v41q0 77 -47.5 130t-136.5 56h-268q-21 0 -21 -21v-821q58 151 170 249.5t258 98.5q187 0 286 -92t99 -244v-311q0 -292 -227 -477q-77 -62 -181 -108t-196 -37q-55 6 -60 43q-4 30 20 48q15 11 32 7q86 -22 159.5 -17.5t126 24t91.5 52.5
q70 60 96.5 176.5t26.5 288.5v330q0 141 -70.5 221t-204.5 80q-142 0 -257.5 -103t-168.5 -260v-495q0 -21 21 -21h63q9 0 9 -8t-9 -8h-280q-9 0 -9 8t9 8h59q21 0 21 21v1347q0 21 -21 21h-254q-92 -3 -139 -56t-47 -132v-39h-17z" />
    <glyph glyph-name="afii10052" unicode="&#x403;" horiz-adv-x="1075" 
d="M328 1405q-13 -3 -13 -14v-1360q0 -15 15 -15h108q9 0 9 -8t-9 -8h-350q-9 0 -9 8t9 8h96q5 0 10 4t5 11v1360q0 14 -15 14h-96q-8 0 -8 8t8 8h905v-297h-16v64q0 95 -64.5 156t-181.5 61h-403zM461 1673l80 133q34 56 73 52q14 -1 22 -13t5 -22q-5 -24 -37 -49
l-137 -101h-6z" />
    <glyph glyph-name="afii10053" unicode="&#x404;" horiz-adv-x="1200" 
d="M709 1434q-109 1 -200 -38.5t-162 -120.5t-112 -218t-42 -318h323q101 0 160 51t59 138v12h15v-418h-15v13q0 88 -59 138t-160 50h-323q0 -160 25 -286.5t68.5 -210.5t107 -139.5t136 -79.5t158.5 -25h2q86 0 158 27t116 70.5t64.5 97.5t11.5 108q-9 57 30 81
q34 21 66 -2t31 -75q-2 -122 -145 -222t-332 -100h-2q-131 0 -242 46t-196.5 137t-133.5 238t-48 337q0 143 34.5 263t94.5 204t141.5 143t175 87t195.5 28h2q186 -1 315.5 -88t126.5 -207q-2 -68 -47 -87q-36 -15 -63 12.5t-17 78.5q21 111 -65 193t-252 82z" />
    <glyph glyph-name="afii10054" unicode="&#x405;" horiz-adv-x="1091" 
d="M551 1440q-166 0 -256 -82t-90 -195q0 -65 28.5 -117.5t77 -88t111 -65t131.5 -56t138.5 -54t132 -64.5t111 -83t77 -114t28.5 -152q0 -75 -36 -148.5t-98.5 -132t-158.5 -95t-206 -36.5q-98 0 -182.5 24.5t-145.5 67t-103 98.5t-60 121.5t-11 132.5q6 62 53 83
q38 17 64 -9q26 -27 10 -80q-16 -45 -13 -93.5t16.5 -95.5t47 -89.5t78 -75t109.5 -51.5t141 -19q168 0 287.5 95.5t119.5 228.5q0 80 -28.5 142.5t-76.5 104t-110 74.5t-130.5 58.5t-137.5 51.5t-131 58t-110 72.5t-76.5 101.5t-28.5 138q0 105 60 188t157 126.5t211 43.5
q105 0 191 -29.5t139.5 -77.5t81.5 -108.5t24 -124.5q-4 -63 -47 -81q-35 -15 -59 11q-24 27 -11 74q12 34 10 71.5t-11.5 73t-36 68t-62.5 56.5t-93 38.5t-126 14.5z" />
    <glyph glyph-name="afii10055" unicode="&#x406;" horiz-adv-x="495" 
d="M416 0h-334q-9 0 -9 8t9 8h96q15 0 15 15v1360q0 14 -15 14h-88q-8 0 -8 8t8 8h324q6 0 6 -8t-6 -8h-92q-15 0 -15 -14v-1360q0 -15 15 -15h94q8 0 8 -8t-8 -8z" />
    <glyph glyph-name="afii10056" unicode="&#x407;" horiz-adv-x="491" 
d="M414 0h-334q-9 0 -9 8t9 8h96q14 0 14 15v1360q0 14 -14 14h-88q-8 0 -8 8t8 8h324q6 0 6 -8t-6 -8h-93q-14 0 -14 -14v-1360q0 -15 14 -15h95q8 0 8 -8t-8 -8zM80 1616q-29 0 -49.5 20.5t-20.5 49.5t20.5 49t49.5 20t49.5 -20t20.5 -49t-20.5 -49.5t-49.5 -20.5z
M412 1618q-29 0 -49.5 20.5t-20.5 49.5t20.5 49t49.5 20t49 -20t20 -49t-20 -49.5t-49 -20.5z" />
    <glyph glyph-name="afii10057" unicode="&#x408;" horiz-adv-x="983" 
d="M702 1405h-84q-8 0 -8 8t8 8h310q6 0 7.5 -4t-0.5 -8t-7 -4h-80q-14 0 -14 -14v-1029q0 -74 -30.5 -143t-84.5 -122t-134.5 -85t-174.5 -32q-178 0 -297.5 106.5t-104.5 249.5q6 61 52 77q39 12 66 -16q25 -25 17 -69q-7 -48 -4 -95.5t24 -90.5t53 -76t82.5 -52.5
t111.5 -19.5q66 0 119 21t87.5 56.5t57.5 84t33 101t10 110.5v1024q0 14 -15 14z" />
    <glyph glyph-name="afii10058" unicode="&#x409;" horiz-adv-x="1964" 
d="M1085 1421v-592q0 -10 15 -10h278q535 0 535 -383q0 -104 -44 -189t-117 -138t-163.5 -81t-187.5 -28h-543q-8 0 -8 8t8 8h100q11 0 11 9v1339q0 39 -41 39h-279q-114 0 -129 -170l-61 -610q-17 -168 -54.5 -294.5t-88 -198.5t-105.5 -107t-115 -35q-54 0 -72 36.5
t6.5 71t73.5 29.5q137 -12 225 116t113 380l62 614q8 84 -17 126t-88 42h-39q-8 0 -8 9t8 9h725zM1374 803h-274q-15 0 -15 -15v-763q0 -9 9 -9h307q83 0 151 23.5t122 71.5t84 131t30 194q0 108 -26 180t-80.5 113t-128 57.5t-179.5 16.5z" />
    <glyph glyph-name="afii10059" unicode="&#x40a;" horiz-adv-x="1980" 
d="M82 0q-9 0 -9 8t9 8h92q14 0 14 15v1360q0 14 -14 14h-92q-8 0 -8 8t8 8h330q8 0 8 -8t-8 -8h-93q-14 0 -14 -14v-578q0 -14 14 -14h682q15 0 15 14v559q-6 33 -41 33h-68q-7 0 -7 8t7 8h330q6 0 7.5 -4t-0.5 -8t-7 -4h-90q-14 0 -14 -10v-586q0 -10 14 -10h248
q534 0 534 -383q0 -100 -44 -181t-117 -131t-163.5 -77t-187.5 -27h-512q-7 0 -7 8t7 8h96q15 0 15 13v739q0 14 -15 14h-682q-14 0 -14 -14v-737q0 -15 14 -15h93q9 0 9 -8t-9 -8h-330zM1391 782h-244q-14 0 -14 -12v-745q0 -9 8 -9h276q83 0 151 22.5t122 68.5t84 125
t30 184q0 108 -25.5 180t-80.5 112.5t-128 57t-179 16.5z" />
    <glyph glyph-name="afii10060" unicode="&#x40b;" horiz-adv-x="1605" 
d="M1350 606q0 120 -70.5 206.5t-200.5 86.5q-146 0 -263.5 -98.5t-176.5 -247.5v-516q0 -21 20 -21h64q9 0 9 -8t-9 -8h-281q-9 0 -9 8t9 8h60q20 0 20 21v1347q0 21 -20 21h-244q-96 0 -146.5 -54t-50.5 -134v-39h-16v243h1083v-243h-16v41q0 79 -49.5 132.5t-144.5 53.5
h-259q-20 0 -20 -21v-800q59 143 174.5 235t265.5 92q176 0 281.5 -95.5t105.5 -221.5v-569q0 -9 15 -9h73q6 0 6 -8t-6 -8h-297q-6 0 -6 8t6 8h78q15 0 15 15v575z" />
    <glyph glyph-name="afii10061" unicode="&#x40c;" horiz-adv-x="1216" 
d="M928 1370l-604 -588q70 -11 117 -22t109.5 -36t110 -60.5t100 -96.5t97.5 -143q26 -48 63.5 -119.5t62 -117t51 -92t46.5 -69t33 -22.5q10 0 35 10q11 4 15 -3q3 -4 -5 -9q-23 -10 -45 -10q-83 0 -167 84t-210 313q-58 104 -116 176.5t-114 111.5t-99.5 57.5t-98.5 31.5
v-735q0 -15 8 -15h103q9 0 9 -8t-9 -8h-332q-9 0 -9 8t9 8h96q15 0 15 15v1364q0 10 -11 10h-110q-6 0 -6 8t6 8h348q8 0 8 -8t-8 -8h-109q-8 0 -8 -10v-607l621 607q13 10 -4 10h-97q-7 0 -7 8t7 8h244q7 0 7 -8t-7 -8h-33q-28 0 -63 -10.5t-49 -24.5zM559 1673l80 133
q34 56 74 52q14 -1 21.5 -13t4.5 -22q-5 -24 -37 -49l-137 -101h-6z" />
    <glyph glyph-name="afii10062" unicode="&#x40e;" horiz-adv-x="1120" 
d="M322 -6q-42 0 -60.5 26.5t-2.5 53t58 26.5q52 0 102.5 27.5t91 74t70 91.5t54.5 94h-47l-469 1022h-88q-5 0 -7 3t0 6t7 3h305q6 0 6 -6t-6 -6h-96l432 -938l377 938h-119q-5 0 -7 3t-0.5 6t7.5 3h239q6 0 6 -6t-6 -6h-106l-393 -979q-26 -65 -60.5 -131t-81 -139.5
t-101.5 -119.5t-105 -46zM647 1575q-70 0 -125 59t-55 156q0 20 14.5 30t29.5 1.5t15 -31.5q0 -11 -13.5 -26.5t-21 -24t0.5 -21.5q41 -51 155 -51h8q117 0 158 51q9 11 -14 35.5t-23 36.5q0 25 15 33.5t30 -2t15 -31.5q0 -97 -55.5 -156t-125.5 -59h-8z" />
    <glyph glyph-name="afii10145" unicode="&#x40f;" horiz-adv-x="1349" 
d="M305 1391v-1358q0 -15 14 -15h717q5 0 10 4t5 11v1358q0 14 -15 14h-94q-9 0 -9 8t9 8h330q6 0 6 -8t-6 -8h-90q-15 0 -15 -14v-1358q0 -15 15 -15h90q6 0 6 -9t-6 -9h-424q-78 -3 -122 -58.5t-44 -148.5v-108h-20v108q0 94 -47 150.5t-128 56.5h-405q-7 0 -9 4.5t0.5 9
t8.5 4.5h92q14 0 14 15v1358q0 14 -14 14h-92q-5 0 -7 4t-0.5 8t7.5 4h330q8 0 8 -8t-8 -8h-93q-14 0 -14 -14z" />
    <glyph glyph-name="afii10017" unicode="&#x410;" horiz-adv-x="1329" 
d="M528 1405q-8 0 -8 8t8 8h215l527 -1405h110q6 0 8.5 -4t0.5 -8t-9 -4h-342q-8 0 -8 8t8 8h115l-215 574h-596l-209 -574h109q7 0 9.5 -4t0 -8t-9.5 -4h-236q-9 0 -9 8t9 8h109l215 590l291 799h-93zM635 1397l-287 -791h584z" />
    <glyph glyph-name="afii10018" unicode="&#x411;" horiz-adv-x="1157" 
d="M324 1405q-15 0 -15 -14v-557q0 -15 15 -15h247q81 0 150.5 -8.5t142.5 -34t124.5 -66.5t84.5 -111t33 -163q0 -104 -44 -189t-117.5 -138t-164 -81t-186.5 -28h-512q-6 0 -7.5 4t0.5 8t7 4h96q5 0 10 4t5 11v1360q0 14 -15 14h-96q-8 0 -8 8t8 8h801v-297h-17v64
q0 95 -64 156t-181 61h-297zM567 803h-243q-6 0 -10.5 -5t-4.5 -10v-757q0 -15 15 -15h270q82 0 150 23.5t122 71.5t84.5 131t30.5 194q0 108 -25.5 180t-80 113t-128 57.5t-180.5 16.5z" />
    <glyph glyph-name="afii10019" unicode="&#x412;" horiz-adv-x="1169" 
d="M70 0q-7 0 -9.5 4t0 8t9.5 4h96q14 0 14 15v1360q0 14 -14 14h-96q-5 0 -7 4t-0.5 8t7.5 4h508q81 -1 158 -20t144 -56.5t107.5 -101.5t40.5 -145q0 -83 -56.5 -154t-141 -113t-179.5 -55l-8 -6q90 2 176.5 -22.5t157.5 -70t114.5 -119.5t43.5 -163q0 -77 -29 -142.5
t-78.5 -111t-115.5 -78t-139 -48t-150 -15.5h-553zM571 764h-260q-14 0 -14 -14v-719q0 -15 14 -15h312q82 0 150 21.5t122 65.5t84.5 118.5t30.5 173.5q0 85 -21.5 150t-59.5 106t-94.5 66.5t-120 36t-143.5 10.5zM911 1098q0 84 -28.5 145.5t-78 95.5t-107.5 50t-126 16
h-260q-14 0 -14 -14v-596q0 -15 14 -15h240q360 0 360 318z" />
    <glyph glyph-name="afii10020" unicode="&#x413;" horiz-adv-x="1073" 
d="M319 1405q-12 -3 -12 -14v-1360q0 -15 15 -15h108q9 0 9 -8t-9 -8h-350q-9 0 -9 8t9 8h96q14 0 14 15v1360q0 14 -14 14h-96q-8 0 -8 8t8 8h905v-297h-16v64q0 95 -64.5 156t-181.5 61h-404z" />
    <glyph glyph-name="afii10021" unicode="&#x414;" horiz-adv-x="1337" 
d="M188 0q-94 -3 -148 -70t-46 -166l4 -57h-12l-27 311h143q58 21 116 215.5t69 493.5l20 578q2 52 -19 77t-71 25h-22q-9 0 -6 8q2 6 8 6h1022q9 0 9 -7t-9 -7h-45q-46 0 -46 -45v-1329q0 -15 15 -15h133l-27 -311h-12l4 57q8 101 -49.5 168.5t-155.5 67.5h-848zM303 727
q-11 -313 -61.5 -484t-106.5 -225h862q5 0 10 4t5 11v1333q0 18 -10 28.5t-25 12.5h-553q-47 0 -72.5 -26t-27.5 -76z" />
    <glyph glyph-name="afii10022" unicode="&#x415;" horiz-adv-x="1122" 
d="M635 811h-313q-15 0 -15 -14v-766q0 -15 15 -15h546q60 0 113 64.5t53 142.5v33h17v-256h-971q-6 0 -6 8t6 8h96q14 0 14 15v1360q0 14 -14 14h-96q-8 0 -8 8t8 8h887v-239h-17v32q0 81 -50.5 136t-147.5 55h-430q-15 0 -15 -14v-549q0 -15 15 -15h313q65 0 111.5 36
t46.5 98v6h16v-295h-16v14q0 60 -46.5 92.5t-111.5 32.5z" />
    <glyph glyph-name="afii10024" unicode="&#x416;" horiz-adv-x="1820" 
d="M1526 1317l-551 -537q305 -88 467 -356q24 -43 65 -119.5t64.5 -118.5t53 -90t49.5 -70t34 -22q10 0 35 10q11 4 15 -3q3 -4 -5 -9q-23 -10 -45 -10q-41 0 -78.5 17t-83 60.5t-98.5 122t-117 197.5q-85 156 -181 246.5t-187 130.5v-735q0 -15 8 -15h102q9 0 9 -8t-9 -8
h-332q-9 0 -9 8t9 8h97q14 0 14 15v735q-215 -95 -369 -377q-64 -119 -117 -197.5t-98.5 -122t-83 -60.5t-78.5 -17q-22 0 -45 10q-12 7 -2 12q7 3 13 0q25 -10 34 -10q14 0 34 21.5t50 70.5t53 90t65 119t65 119q162 268 467 356l-564 549q-42 42 -90 59t-84 17h-12
q-8 0 -8 8t8 8h244q8 0 8 -8t-8 -8h-96q-18 0 -5 -10l619 -604v604q0 10 -10 10h-111q-6 0 -6 8t6 8h348q7 0 7 -8t-7 -8h-108q-8 0 -8 -10v-607l620 607q13 10 -4 10h-96q-7 0 -7 8t7 8h243q8 0 8 -8t-8 -8h-10q-35 0 -89 -21.5t-101 -66.5z" />
    <glyph glyph-name="afii10025" unicode="&#x417;" horiz-adv-x="1112" 
d="M514 842q-39 0 -54.5 23t1.5 46t57 23q91 0 195 -33q68 36 95.5 102.5t27.5 163.5q0 39 -8.5 75.5t-30.5 73t-55 63.5t-85.5 44t-119.5 17q-60 0 -109.5 -15.5t-82 -42t-56.5 -60.5t-33 -70.5t-12.5 -74t6.5 -69.5q12 -49 -24 -70q-31 -18 -60 4q-27 21 -27 66
q0 61 22.5 119.5t67.5 110.5t125 84t183 32q96 0 175.5 -28t128 -72t75 -92.5t26.5 -94.5q0 -78 -54 -153.5t-147 -120.5q146 -56 238 -171t92 -273q0 -61 -22.5 -127.5t-69 -131t-109.5 -116t-153.5 -83.5t-192.5 -32q-123 0 -223.5 40.5t-160.5 105.5t-88 145.5t-17 161.5
q7 58 48 72q33 12 53 -14q18 -22 7 -60q-14 -40 -10.5 -88.5t15.5 -97t44.5 -94t75.5 -80.5t109.5 -56t146.5 -21q92 0 166.5 29.5t122.5 76.5t80 110t45.5 127t13.5 130q0 133 -62.5 256t-176.5 177q-92 -37 -199 -37z" />
    <glyph glyph-name="afii10026" unicode="&#x418;" horiz-adv-x="1482" 
d="M428 1421q8 0 8 -8t-8 -8h-90q-21 0 -21 -21v-1355l844 1392h240q9 0 9 -8t-9 -8h-94q-21 0 -21 -21v-1347q0 -21 21 -21h94q9 0 9 -8t-9 -8h-342q-7 0 -7 8t7 8h90q20 0 20 21v1368l-852 -1405h-231q-8 0 -8 8t8 8h94q21 0 21 21v1347q0 21 -21 21h-102q-6 0 -6 8t6 8
h350z" />
    <glyph glyph-name="afii10027" unicode="&#x419;" horiz-adv-x="1482" 
d="M760 1573q-70 0 -125 59t-55 156q0 20 15 30t29.5 1.5t14.5 -31.5q0 -11 -13.5 -25.5t-22 -26t0.5 -20.5q41 -51 156 -51h8q117 0 158 51q9 11 -14 35.5t-23 36.5q0 25 14.5 33.5t29.5 -2t15 -31.5q0 -97 -55 -156t-125 -59h-8zM428 1421q8 0 8 -8t-8 -8h-90
q-21 0 -21 -21v-1355l844 1392h240q9 0 9 -8t-9 -8h-94q-21 0 -21 -21v-1347q0 -21 21 -21h94q9 0 9 -8t-9 -8h-342q-7 0 -7 8t7 8h90q20 0 20 21v1368l-852 -1405h-231q-8 0 -8 8t8 8h94q21 0 21 21v1347q0 21 -21 21h-102q-6 0 -6 8t6 8h350z" />
    <glyph glyph-name="afii10028" unicode="&#x41a;" horiz-adv-x="1206" 
d="M199 1395q0 10 -11 10h-110q-6 0 -6 8t6 8h348q8 0 8 -8t-8 -8h-109q-8 0 -8 -10v-607l621 607q13 10 -4 10h-97q-7 0 -7 8t7 8h244q7 0 7 -8t-7 -8h-12q-40 0 -91 -21t-85 -55l-563 -549q303 -87 466 -356q23 -41 65 -119t65 -119t53 -90t50 -70.5t34 -21.5q10 0 35 10
q11 4 15 -3q3 -4 -5 -9q-22 -10 -45 -10q-41 0 -78.5 17t-83 60.5t-98.5 122t-117 197.5q-154 282 -369 377v-735q0 -15 8 -15h103q9 0 9 -8t-9 -8h-332q-9 0 -9 8t9 8h96q15 0 15 15v1364z" />
    <glyph glyph-name="afii10029" unicode="&#x41b;" horiz-adv-x="1257" 
d="M1188 0h-287q-7 0 -9 4.5t0.5 9t8.5 4.5h66q14 0 14 15v1333q0 18 -10 28.5t-25 12.5h-502q-27 0 -39 -12t-12 -39l-57 -930q-27 -436 -240 -436q-40 0 -73 17.5t-29 53.5q8 62 86 50q110 -18 168.5 53t70.5 260l58 932q0 51 -51 51h-23q-5 0 -7 3.5t0 7t7 3.5h885
q6 0 6 -7t-6 -7h-45q-24 0 -34.5 -10.5t-10.5 -34.5v-1329q0 -15 14 -15h76q9 0 9 -9t-9 -9z" />
    <glyph glyph-name="afii10030" unicode="&#x41c;" horiz-adv-x="1638" 
d="M68 1405q-9 0 -9 8t9 8h239l518 -1282l516 1282h218q7 0 7 -8t-7 -8h-74q-21 0 -21 -21v-1347q0 -21 21 -21h71q8 0 8 -8t-8 -8h-303q-7 0 -7 8t7 8h74q21 0 21 21v1358l-566 -1403h-16l-569 1413h-2v-1368q0 -21 20 -21h92q9 0 9 -8t-9 -8h-235q-9 0 -9 8t9 8h86
q20 0 20 21v1368h-110z" />
    <glyph glyph-name="afii10031" unicode="&#x41d;" horiz-adv-x="1312" 
d="M80 0q-8 0 -8 8t8 8h92q14 0 14 15v1360q0 14 -14 14h-92q-8 0 -8 8t8 8h330q6 0 6 -8t-6 -8h-93q-14 0 -14 -14v-578q0 -14 14 -14h682q15 0 15 14v578q0 14 -15 14h-94q-7 0 -7 8t7 8h330q6 0 6 -8t-6 -8h-90q-15 0 -15 -14v-1360q0 -15 15 -15h90q6 0 6 -8t-6 -8h-330
q-7 0 -7 8t7 8h94q15 0 15 15v737q0 14 -15 14h-682q-14 0 -14 -14v-737q0 -15 14 -15h93q6 0 6 -8t-6 -8h-330z" />
    <glyph glyph-name="afii10032" unicode="&#x41e;" horiz-adv-x="1380" 
d="M688 -33q-131 0 -242.5 47t-196.5 138.5t-133 238t-48 334.5q0 145 34 265.5t93 204.5t139 142t171.5 85.5t192.5 27.5h2q98 -2 187.5 -31t167.5 -88t135 -143t90 -202.5t33 -260.5q0 -188 -48.5 -334.5t-133.5 -238t-196.5 -138.5t-242.5 -47h-4zM692 -18q86 1 159 26
t136 81t107 141t69 210.5t25 284.5q0 147 -25 265.5t-68.5 199.5t-105.5 136.5t-133.5 81.5t-153.5 28h-24q-104 -3 -190 -44.5t-153 -124.5t-104.5 -221t-37.5 -321q0 -159 25 -284.5t69 -210.5t106.5 -141t135.5 -81t159 -26h4z" />
    <glyph glyph-name="afii10033" unicode="&#x41f;" horiz-adv-x="1341" 
d="M303 1391v-1360q0 -15 14 -15h93q8 0 8 -8t-8 -8h-330q-8 0 -8 8t8 8h92q14 0 14 15v1360q0 14 -14 14h-92q-8 0 -8 8t8 8h1182q6 0 6 -8t-6 -8h-91q-14 0 -14 -14v-1360q0 -15 14 -15h91q8 0 8 -8t-8 -8h-330q-8 0 -8 8t8 8h94q14 0 14 15v1360q0 14 -14 14h-709
q-14 0 -14 -14z" />
    <glyph glyph-name="afii10034" unicode="&#x420;" horiz-adv-x="1062" 
d="M82 0q-5 0 -7 4t-0.5 8t7.5 4h90q21 0 21 21v1347q0 21 -21 21h-90q-9 0 -9 8t9 8h493q71 0 140 -13.5t134 -43.5t114.5 -73t79.5 -108t30 -143q0 -79 -28 -146t-76 -114.5t-111.5 -81t-134.5 -49.5t-145 -16h-269v-596q0 -21 21 -21h94q6 0 6 -8t-6 -8h-342zM952 1040
q0 99 -31.5 172.5t-86.5 114t-119.5 59.5t-139.5 19h-245q-21 0 -21 -21v-735h269q79 1 145 23.5t118.5 67.5t81.5 122t29 178z" />
    <glyph glyph-name="afii10035" unicode="&#x421;" horiz-adv-x="1226" 
d="M694 -33h-2q-131 0 -242 46t-196.5 137t-133.5 238t-48 337q0 143 34.5 263t94.5 204t141.5 143t175 87t195.5 28q123 0 226 -40t161.5 -108t56.5 -147q-2 -68 -47 -87q-36 -15 -63 12.5t-17 78.5q10 52 -6 101t-54.5 87.5t-104.5 62t-148 24.5h-4q-110 1 -201.5 -39.5
t-163 -123t-111.5 -222t-40 -324.5q0 -161 25 -287.5t68.5 -211t107 -140t136 -79.5t158.5 -25h2q86 0 158 27t116 70.5t64.5 97.5t11.5 108q-9 57 30 81q34 21 66 -2t31 -75q-2 -122 -145 -222t-332 -100z" />
    <glyph glyph-name="afii10036" unicode="&#x422;" horiz-adv-x="1198" 
d="M270 1405q-96 0 -146 -53.5t-50 -134.5v-39h-17v243h1084v-243h-17v41q0 79 -49.5 132.5t-144.5 53.5h-258q-21 0 -21 -21v-1347q0 -21 21 -21h63q7 0 9.5 -4t0 -8t-9.5 -4h-280q-9 0 -9 8t9 8h59q21 0 21 21v1347q0 21 -21 21h-244z" />
    <glyph glyph-name="afii10037" unicode="&#x423;" horiz-adv-x="1120" 
d="M322 -6q-42 0 -60.5 26.5t-2.5 53t58 26.5q52 0 102.5 27.5t91 74t70 91.5t54.5 94h-47l-469 1022h-88q-5 0 -7 3t0 6t7 3h305q6 0 6 -6t-6 -6h-96l432 -938l377 938h-119q-5 0 -7 3t-0.5 6t7.5 3h239q6 0 6 -6t-6 -6h-106l-393 -979q-26 -65 -60.5 -131t-81 -139.5
t-101.5 -119.5t-105 -46z" />
    <glyph glyph-name="afii10038" unicode="&#x424;" horiz-adv-x="1368" 
d="M848 0h-334q-9 0 -9 8t9 8h96q15 0 15 15v127h-11q-132 0 -229.5 29.5t-170 95t-109.5 176.5t-37 268q0 150 40 256.5t115 167.5t171 88t220 27h11v125q0 14 -15 14h-88q-8 0 -8 8t8 8h324q6 0 6 -8t-6 -8h-92q-15 0 -15 -14v-125h17q124 0 219.5 -27t170.5 -88
t114.5 -167.5t39.5 -256.5q0 -157 -37 -268t-109.5 -176.5t-170 -95t-229.5 -29.5h-15v-127q0 -15 15 -15h94q8 0 8 -8t-8 -8zM754 174q77 0 139 15.5t117.5 54t92 100t58 158.5t21.5 225q0 151 -31.5 255.5t-91 161.5t-133 81t-170.5 24h-17v-1075h15zM186 727
q0 -128 21.5 -225t58 -158.5t92 -100t117.5 -54t139 -15.5h11v1075h-11q-77 0 -138.5 -14.5t-117 -50.5t-92.5 -94t-58.5 -150t-21.5 -213z" />
    <glyph glyph-name="afii10039" unicode="&#x425;" horiz-adv-x="1187" 
d="M150 16l405 668l-422 721h-104q-7 0 -7 8t7 8h305q8 0 8 -8t-8 -8h-58l355 -598l362 598h-116q-5 0 -7 4t-0.5 8t7.5 4h262q6 0 6 -8t-6 -8h-125l-373 -617l459 -772h80q8 0 8 -8t-8 -8h-306q-6 0 -6 8t6 8h74l-381 650l-393 -650h115q7 0 7 -8t-7 -8h-258q-7 0 -7 8t7 8
h119z" />
    <glyph glyph-name="afii10040" unicode="&#x426;" horiz-adv-x="1351" 
d="M1075 0h-993q-7 0 -9 4.5t0.5 9t8.5 4.5h92q14 0 14 15v1358q0 14 -14 14h-92q-5 0 -7 4t-0.5 8t7.5 4h330q8 0 8 -8t-8 -8h-93q-14 0 -14 -14v-1358q0 -15 14 -15h685q14 0 14 15v1358q0 14 -14 14h-95q-9 0 -9 8t9 8h330q6 0 6 -8t-6 -8h-90q-14 0 -14 -14v-1358
q0 -15 14 -15h166l-27 -311h-12l4 57q8 101 -49.5 168.5t-155.5 67.5z" />
    <glyph glyph-name="afii10041" unicode="&#x427;" horiz-adv-x="1189" 
d="M434 510q-186 0 -285.5 92t-99.5 244v545q0 14 -14 14h-88q-7 0 -7 8t7 8h321q6 0 6 -8t-6 -8h-92q-14 0 -14 -10v-568q0 -137 69.5 -216t204.5 -79q153 0 278 105.5t181 265.5v488q0 14 -14 14h-88q-7 0 -7 8t7 8h319q6 0 6 -8t-6 -8h-92q-14 0 -14 -14v-1354
q0 -21 20 -21h74q8 0 8 -8t-8 -8h-299q-7 0 -7 8t7 8h73q21 0 21 21v831q-59 -155 -181 -256.5t-280 -101.5z" />
    <glyph glyph-name="afii10042" unicode="&#x428;" horiz-adv-x="1751" 
d="M305 1391v-1358q0 -15 14 -15h490q10 0 10 9v1364q0 14 -10 14h-98q-7 0 -7 8t7 8h331q9 0 9 -8t-9 -8h-92q-14 0 -14 -14v-1364q0 -9 14 -9h486q14 0 14 15v1358q0 14 -14 14h-95q-7 0 -7 8t7 8h330q7 0 7 -8t-7 -8h-90q-14 0 -14 -14v-1358q0 -15 14 -15h90q7 0 7 -9
t-7 -9h-1589q-7 0 -9 4.5t0.5 9t8.5 4.5h92q14 0 14 15v1358q0 14 -14 14h-92q-9 0 -9 8t9 8h330q9 0 9 -8t-9 -8h-93q-14 0 -14 -14z" />
    <glyph glyph-name="afii10043" unicode="&#x429;" horiz-adv-x="1742" 
d="M1513 0h-1431q-7 0 -9 4.5t0.5 9t8.5 4.5h92q14 0 14 15v1358q0 14 -14 14h-92q-8 0 -8 8t8 8h330q9 0 9 -8t-9 -8h-93q-14 0 -14 -14v-1358q0 -15 14 -15h490q10 0 10 9v1364q0 14 -10 14h-98q-7 0 -7 8t7 8h331q9 0 9 -8t-9 -8h-92q-14 0 -14 -14v-1364q0 -9 14 -9h486
q14 0 14 15v1358q0 14 -14 14h-95q-7 0 -7 8t7 8h330q7 0 7 -8t-7 -8h-90q-14 0 -14 -14v-1358q0 -15 14 -15h172l-27 -311h-12l4 57q8 101 -49.5 168.5t-155.5 67.5z" />
    <glyph glyph-name="afii10044" unicode="&#x42a;" horiz-adv-x="1492" 
d="M539 1405h-285q-96 0 -146.5 -54t-50.5 -134v-39h-16v243h678q9 0 9 -8t-9 -8h-39q-14 0 -14 -14v-557q0 -15 14 -15h248q534 0 534 -383q0 -104 -44 -189t-117.5 -138t-164 -81t-186.5 -28h-512q-6 0 -7.5 4t0.5 8t7 4h97q14 0 14 15v1360q0 11 -10 14zM924 803h-244
q-6 0 -10 -5t-4 -10v-757q0 -15 14 -15h270q82 0 150 23.5t122 71.5t84.5 131t30.5 194q0 108 -25.5 180t-80 113t-127.5 57.5t-180 16.5z" />
    <glyph glyph-name="afii10045" unicode="&#x42b;" horiz-adv-x="1486" 
d="M104 1421h293q9 0 9 -10q0 -6 -9 -6h-75q-15 0 -15 -14v-557q0 -6 4.5 -10.5t10.5 -4.5h247q525 0 525 -383q0 -104 -43 -189t-115 -138t-160.5 -81t-183.5 -28h-512q-8 0 -8 8t8 8h96q14 0 14 15v1360q0 14 -14 14h-72q-8 0 -8 8t8 8zM565 803h-243q-6 0 -10.5 -5
t-4.5 -10v-757q0 -15 15 -15h270q80 0 146 23.5t119 71.5t82.5 131t29.5 194q0 108 -25 180t-78 113t-124.5 57.5t-176.5 16.5zM1190 1391q0 14 -14 14h-89q-7 0 -7 8t7 8h320q7 0 7 -8t-7 -8h-86q-14 0 -14 -14v-1354q0 -21 20 -21h80q7 0 7 -8t-7 -8h-320q-7 0 -7 8t7 8
h82q21 0 21 21v1354z" />
    <glyph glyph-name="afii10046" unicode="&#x42c;" horiz-adv-x="1155" 
d="M565 803h-243q-6 0 -10.5 -5t-4.5 -10v-757q0 -15 15 -15h270q80 0 146 23.5t119 71.5t82.5 131t29.5 194q0 108 -25 180t-78 113t-124.5 57.5t-176.5 16.5zM104 1421h293q9 0 9 -10q0 -6 -9 -6h-75q-15 0 -15 -14v-557q0 -6 4.5 -10.5t10.5 -4.5h247q525 0 525 -383
q0 -104 -43 -189t-115 -138t-160.5 -81t-183.5 -28h-512q-8 0 -8 8t8 8h96q14 0 14 15v1360q0 14 -14 14h-72q-8 0 -8 8t8 8z" />
    <glyph glyph-name="afii10047" unicode="&#x42d;" horiz-adv-x="1220" 
d="M530 -18h2q85 1 157.5 25t135.5 78.5t107 138t69.5 209t26.5 284.5h-317q-72 0 -136.5 -52t-64.5 -126v-17h-12v389h12v-16q0 -69 64.5 -117.5t136.5 -48.5h317q-1 183 -41.5 322t-112 221.5t-162.5 122.5t-200 39h-4q-83 -1 -149 -24.5t-104 -62t-54 -87.5t-6 -101
q12 -61 -27 -87q-33 -21 -65.5 3t-34.5 80q-2 79 56.5 147t161.5 108t226 40q102 0 195.5 -28t175 -87t141.5 -143t94.5 -204t34.5 -263q0 -152 -31.5 -278t-88 -214t-134.5 -148.5t-170 -89t-197 -28.5h-2q-189 0 -332 100t-145 222q-1 64 43 82q36 14 64 -13
q28 -26 20 -73q-9 -54 11.5 -108t64.5 -97.5t116 -70.5t158 -27z" />
    <glyph glyph-name="afii10048" unicode="&#x42e;" horiz-adv-x="1777" 
d="M1085 -33q-131 0 -242.5 47t-196.5 138.5t-133 238t-48 334.5h-154v-694q0 -15 15 -15h94q9 0 9 -8t-9 -8h-336q-7 0 -9.5 4t0 8t9.5 4h96q5 0 10 4t5 11v1360q0 14 -15 14h-88q-8 0 -8 8t8 8h326q9 0 9 -8t-9 -8h-92q-15 0 -15 -14v-650h154q2 172 53 309.5t136 223.5
t193.5 131t231.5 45h17q124 0 233 -46t195 -133.5t136 -228.5t50 -317q0 -188 -48.5 -334.5t-134 -238t-197.5 -138.5t-245 -47zM1085 -18h5q108 0 195.5 41t156 126.5t106 232t37.5 343.5q0 148 -25 267t-69 200.5t-105.5 136.5t-134 80t-155.5 25h-17q-105 -2 -191.5 -43
t-154.5 -123t-105.5 -220.5t-37.5 -322.5q0 -159 25 -284.5t69 -210.5t106.5 -141t135.5 -81t159 -26z" />
    <glyph glyph-name="afii10049" unicode="&#x42f;" horiz-adv-x="1214" 
d="M1133 16q6 0 7.5 -4t-0.5 -8t-7 -4h-342q-6 0 -6 8t6 8h94q20 0 20 21v717h-213q-82 -12 -154 -102t-143 -267q-112 -229 -184.5 -314t-142.5 -85q-20 0 -37 10q-12 8 -8 14q2 2 6 0q23 -12 37 -10q9 1 20 13t25.5 37.5t28.5 52t33.5 69.5t34.5 76.5t38.5 87t38.5 86.5
q150 274 336 332q-82 5 -155 29.5t-132.5 66t-94 105.5t-34.5 143q0 82 41.5 146.5t109.5 102.5t146 57t160 19h471q9 0 9 -8t-9 -8h-91q-20 0 -20 -21v-1349q0 -21 20 -21h91zM662 770h243v616q0 21 -20 21h-223q-68 0 -126 -16t-107.5 -50.5t-78 -96.5t-28.5 -146
q0 -86 26.5 -150t74 -102t107.5 -56.5t132 -19.5z" />
    <glyph glyph-name="afii10065" unicode="&#x430;" horiz-adv-x="952" 
d="M702 463q-29 -208 -134.5 -340.5t-260.5 -132.5q-121 0 -183.5 55.5t-62.5 159.5q0 52 20.5 92.5t50.5 65t82.5 47.5t96.5 35.5t114 32t114 34.5q55 19 89.5 42.5t50.5 55.5t21 61t5 74q0 88 -50 143.5t-163 55.5q-69 0 -122.5 -25t-80.5 -64t-36 -86.5t11 -92.5
q17 -49 -17 -76q-30 -25 -63 -7q-35 21 -39 79q-8 118 89 201t258 83q160 0 238.5 -64.5t78.5 -168.5v-631q0 -29 16 -51.5t47 -22.5q27 0 43.5 18t16.5 46q0 6 6 6t6 -6q0 -90 -115 -90q-61 0 -94 40.5t-33 110.5v320zM326 14q83 0 152.5 46t114.5 122.5t72.5 167
t36.5 187.5v94q-12 -44 -44.5 -71t-108.5 -58q-26 -10 -76.5 -25.5t-85 -26.5t-77.5 -32.5t-69 -47t-44.5 -66.5t-18.5 -93v-18q0 -81 38.5 -130t109.5 -49z" />
    <glyph glyph-name="afii10066" unicode="&#x431;" horiz-adv-x="1028" 
d="M514 956q92 0 171.5 -28.5t141.5 -84t98 -145t36 -202.5v-23q0 -135 -50 -242.5t-153.5 -173t-245.5 -65.5q-106 1 -191.5 38.5t-140 103t-83.5 152t-29 187.5v47q0 170 27.5 301.5t73 211.5t105 134.5t125 78.5t131 36t124.5 13.5t104.5 5t72.5 17t27 42.5q0 3 2 3
q4 -1 4 -13v-21q-11 -60 -42.5 -94t-76 -45t-99 -12.5t-113 -2.5t-117 -8.5t-112.5 -36.5t-97 -80t-73.5 -146.5t-39.5 -229.5v-2q46 140 159 212t261 72zM514 944q-67 0 -125 -24.5t-106 -75.5t-75.5 -140t-27.5 -208v-23q0 -104 19 -187.5t58 -147t104 -98.5t151 -36
q115 0 192 62t110.5 164.5t33.5 242.5v23q0 119 -27.5 208t-75.5 140t-106 75.5t-125 24.5z" />
    <glyph glyph-name="afii10067" unicode="&#x432;" horiz-adv-x="866" 
d="M49 0q-6 0 -6 6t6 6h53q11 0 11 8v895q0 9 -11 9h-53q-5 0 -7 3t0 6t7 3h391q78 0 147.5 -21.5t119 -71.5t49.5 -120q0 -83 -76.5 -141.5t-177.5 -69.5l-6 -4q84 1 159 -26.5t125.5 -86t50.5 -135.5q0 -82 -52.5 -143t-130 -89t-165.5 -28h-434zM391 504h-162
q-7 0 -8.5 -1.5t-1.5 -6.5v-476q0 -8 10 -8h230q108 0 184 62t76 186q0 244 -328 244zM647 723q0 107 -59.5 154t-151.5 47h-207q-7 0 -8.5 -2t-1.5 -7v-391q0 -8 10 -8h174q114 0 179 50.5t65 156.5z" />
    <glyph glyph-name="afii10068" unicode="&#x433;" horiz-adv-x="698" 
d="M129 924h-59q-6 0 -6 6t6 6h592v-219h-13v35q0 75 -51.5 123.5t-144.5 48.5h-191q-12 0 -12 -13v-886q0 -13 12 -13h80q6 0 6 -6t-6 -6h-293q-5 0 -7 3t0 6t7 3h80q14 0 14 13v886q0 13 -14 13z" />
    <glyph glyph-name="afii10069" unicode="&#x434;" horiz-adv-x="935" 
d="M713 0h-580q-62 -9 -97 -58t-30 -118l2 -45h-8l-20 237h98q25 11 56 77t64 214.5t48 341.5l18 228q0 47 -33 47h-14q-6 0 -6 6t6 6h662q6 0 6 -6t-6 -6h-54q-30 0 -30 -31v-866q0 -11 10 -11h90l-21 -241h-8l2 45q6 76 -37.5 128t-117.5 52zM256 649q-22 -277 -68 -429.5
t-90 -203.5h580q7 0 8.5 2t1.5 9v870q0 12 -6.5 19.5t-15.5 7.5h-355q-37 0 -37 -47z" />
    <glyph glyph-name="afii10070" unicode="&#x435;" horiz-adv-x="950" 
d="M500 -18q-106 1 -189 40t-135.5 106t-80 154.5t-27.5 190.5v16q0 113 34.5 202.5t94.5 146.5t139 87t170 31h2q151 0 253.5 -89.5t112.5 -237.5q2 -22 -7 -31.5t-33 -9.5h-650q-4 -62 -4 -99v-16q0 -106 18 -190.5t55 -149t99.5 -101t147.5 -38.5h8q128 3 209 89.5
t61 209.5q-9 55 43 55q56 0 56 -69q0 -84 -59.5 -154t-145 -106.5t-170.5 -36.5h-2zM764 633q0 90 -25 157.5t-84 110.5t-147 43q-79 0 -144 -33.5t-113.5 -113t-64.5 -197.5h545q16 0 24.5 7t8.5 26z" />
    <glyph glyph-name="afii10072" unicode="&#x436;" horiz-adv-x="1148" 
d="M1014 901l-369 -387q106 -29 182.5 -78.5t145.5 -146.5q36 -52 70.5 -125.5t54 -115.5t32.5 -42q5 0 23 6q6 3 10 -2.5t-2 -9.5q-18 -6 -31 -6q-53 0 -102.5 51.5t-155.5 210.5q-86 126 -132 176.5t-103 71.5l-8 -8v-476q0 -8 8 -8h63q4 0 4 -6t-4 -6h-249q-5 0 -5 6t5 6
h61q10 0 10 8v474l-10 10q-59 -21 -106 -72t-130 -176q-106 -159 -155.5 -210.5t-102.5 -51.5q-12 0 -30 6q-6 4 -2 9.5t10 2.5q18 -6 22 -6q13 0 33 42t54.5 115.5t70.5 125.5q69 97 145.5 146.5t180.5 78.5l-367 387q-9 9 -32.5 16t-41.5 7h-20q-6 0 -6 6t6 6h160
q5 0 5 -6t-5 -6h-64q-11 0 -2 -6l387 -404v399q0 11 -6 11h-70q-3 0 -3 6t3 6h259q5 0 5.5 -6t-5.5 -6h-68q-8 0 -8 -11v-397l385 402q9 6 -2 6h-64q-4 0 -4 6t4 6h160q6 0 6 -6t-6 -6h-21q-18 0 -41 -7t-32 -16z" />
    <glyph glyph-name="afii10073" unicode="&#x437;" horiz-adv-x="804" 
d="M393 952q136 0 218.5 -69.5t80.5 -145.5q-1 -55 -41 -105.5t-108 -82.5q95 -34 154 -102.5t59 -157.5q0 -49 -25 -101.5t-71.5 -98.5t-123.5 -75.5t-171 -29.5q-114 0 -198.5 40.5t-111.5 120.5q-22 65 10 89q22 17 45 -2q14 -12 17 -33q42 -205 240 -205
q80 0 137.5 26.5t87 71.5t42.5 93.5t13 103.5q2 83 -28.5 151t-100.5 99q-67 -25 -141 -25q-39 0 -45 24q-5 21 21 34q13 5 30 6q55 0 121 -17q88 52 88 187q0 33 -9 64t-30 61.5t-62 49.5t-98 19q-111 0 -189.5 -72.5t-78.5 -167.5v-22q0 -5 -3.5 -7t-7 0t-3.5 7v260
q0 9 7 9t7 -9t10.5 -19t24.5 -10q36 0 105.5 20.5t127.5 20.5z" />
    <glyph glyph-name="afii10074" unicode="&#x438;" horiz-adv-x="1021" 
d="M248 25q0 -13 12 -13h80q6 0 6 -6t-6 -6h-293q-6 0 -6 6t6 6h80q14 0 14 13v886q0 13 -14 13h-80q-6 0 -6 6t6 6h293q6 0 6 -6t-6 -6h-80q-8 0 -10 -2.5t-2 -10.5v-790l528 717v73q0 13 -14 13h-80q-6 0 -6 6t6 6h293q6 0 6 -6t-6 -6h-80q-8 0 -10 -2.5t-2 -10.5v-886
q0 -13 12 -13h80q6 0 6 -6t-6 -6h-293q-6 0 -6 6t6 6h80q14 0 14 13v790l-528 -717v-73z" />
    <glyph glyph-name="afii10075" unicode="&#x439;" horiz-adv-x="1021" 
d="M516 1090q-70 0 -125 59t-55 156q0 20 15 30t29.5 1.5t14.5 -31.5q0 -11 -13.5 -25.5t-22 -26t0.5 -20.5q41 -51 156 -51h8q117 0 158 51q9 11 -14 35.5t-23 36.5q0 25 15 33.5t30 -2t15 -31.5q0 -97 -55.5 -156t-125.5 -59h-8zM248 25q0 -13 12 -13h80q6 0 6 -6t-6 -6
h-293q-6 0 -6 6t6 6h80q14 0 14 13v886q0 13 -14 13h-80q-6 0 -6 6t6 6h293q6 0 6 -6t-6 -6h-80q-8 0 -10 -2.5t-2 -10.5v-790l528 717v73q0 13 -14 13h-80q-6 0 -6 6t6 6h293q6 0 6 -6t-6 -6h-80q-8 0 -10 -2.5t-2 -10.5v-886q0 -13 12 -13h80q6 0 6 -6t-6 -6h-293
q-6 0 -6 6t6 6h80q14 0 14 13v790l-528 -717v-73z" />
    <glyph glyph-name="afii10076" unicode="&#x43a;" horiz-adv-x="890" 
d="M125 20v893q0 11 -6 11h-70q-5 0 -6 6t6 6h258q6 0 6 -6t-6 -6h-67q-9 0 -9 -11v-893q1 -8 9 -8h63q6 0 6 -6t-6 -6h-250q-6 0 -6 6t6 6h62q10 0 10 8zM260 504v12h29l385 402q9 6 -2 6h-64q-4 0 -4 6t4 6h160q6 0 6 -6t-6 -6h-20q-18 0 -41.5 -7t-32.5 -16l-367 -385h4
q166 -5 322 -227q36 -52 70.5 -125.5t54.5 -115.5t33 -42q4 0 22 6q6 3 10 -2.5t-2 -9.5q-18 -6 -30 -6q-53 0 -103 52t-156 210q-19 28 -46 70t-40 61.5t-33 46t-34.5 38.5t-33.5 21.5t-40 10.5h-45z" />
    <glyph glyph-name="afii10077" unicode="&#x43b;" horiz-adv-x="978" 
d="M287 518l20 328q3 38 -15.5 58t-43.5 20h-12q-6 0 -6 6t6 6h663q6 0 6 -6t-6 -6h-29q-11 0 -17.5 -1.5t-9 -7t-3 -9t-0.5 -13.5v-868q0 -13 12 -13h80q6 0 6 -6t-6 -6h-293q-6 0 -6 6t6 6h80q14 0 14 13v872q0 12 -6.5 19.5t-15.5 7.5h-318q-41 0 -57.5 -19.5
t-18.5 -58.5l-20 -328q-9 -134 -30 -234.5t-45 -154.5t-54 -87.5t-52.5 -42.5t-45.5 -9q-53 0 -66 40q-10 32 13 53q15 12 36 11q107 -6 164 96.5t70 327.5z" />
    <glyph glyph-name="afii10078" unicode="&#x43c;" horiz-adv-x="1269" 
d="M270 0h-174q-6 0 -6 6t6 6h58q20 0 20 21v891h-82q-6 0 -6 6t6 6h207l352 -807l361 807h211q6 0 6 -6t-6 -6h-80q-13 0 -13 -13v-886q0 -13 13 -13h80q6 0 6 -6t-6 -6h-293q-6 0 -6 6t6 6h80q14 0 14 13v901l-414 -932h-8l-414 936v-897q0 -21 21 -21h61q6 0 6 -6t-6 -6z
" />
    <glyph glyph-name="afii10079" unicode="&#x43d;" horiz-adv-x="1001" 
d="M248 25q0 -13 12 -13h80q6 0 6 -6t-6 -6h-293q-6 0 -6 6t6 6h80q14 0 14 13v886q0 13 -14 13h-80q-6 0 -6 6t6 6h293q6 0 6 -6t-6 -6h-80q-8 0 -10 -2.5t-2 -10.5v-397h508v397q0 13 -15 13h-79q-6 0 -6 6t6 6h292q6 0 6 -6t-6 -6h-80q-8 0 -10 -2.5t-2 -10.5v-886
q0 -13 12 -13h80q6 0 6 -6t-6 -6h-292q-6 0 -6 6t6 6h79q15 0 15 13v475h-508v-475z" />
    <glyph glyph-name="afii10080" unicode="&#x43e;" 
d="M516 956q92 0 171.5 -28.5t141.5 -84t98 -145t36 -202.5v-23q0 -135 -50 -242.5t-153.5 -173t-245.5 -65.5q-141 0 -243.5 65.5t-152.5 173t-50 242.5v23q0 55 20 113t57 104q0 69 54 125.5t138.5 87t178.5 30.5zM516 944q-130 0 -204 -73.5t-50 -165.5q11 -39 -6 -63.5
t-45 -23t-47 28.5q0 -1 7 -59t7 -92v-23q0 -103 19.5 -187.5t59.5 -148t105.5 -98.5t151.5 -35q115 0 192 62t110.5 164.5t33.5 242.5v23q0 119 -27.5 208t-75.5 140t-106 75.5t-125 24.5z" />
    <glyph glyph-name="afii10081" unicode="&#x43f;" horiz-adv-x="997" 
d="M858 893v-868q0 -13 12 -13h80q6 0 6 -6t-6 -6h-293q-6 0 -6 6t6 6h80q15 0 15 13v872q0 11 -7.5 19t-15.5 8h-463q-7 0 -12.5 -7t-5.5 -16v-876q0 -13 12 -13h80q6 0 6 -6t-6 -6h-293q-6 0 -6 6t6 6h80q14 0 14 13v874q0 25 -24 25h-70q-5 0 -5 6t5 6h903q6 0 6 -6
t-6 -6h-61q-31 0 -31 -31z" />
    <glyph glyph-name="afii10082" unicode="&#x440;" horiz-adv-x="1077" 
d="M31 926q0 6 6 6h194q11 0 11 -10v-158q51 94 137 143t184 49q92 0 171.5 -28.5t141.5 -84t98 -145t36 -202.5v-23q0 -208 -114.5 -344.5t-317.5 -136.5q-242 0 -336 196v-667q0 -21 20 -21h60q6 0 6 -6t-6 -6h-269q-6 0 -6 6t6 6h62q20 0 20 21v1349q0 47 -41 50h-57
q-6 0 -6 6zM563 944q-107 0 -192 -55.5t-129 -155.5v-510q87 -219 336 -219q160 0 239.5 127.5t79.5 341.5v23q0 119 -27.5 208t-75.5 140t-106 75.5t-125 24.5z" />
    <glyph glyph-name="afii10083" unicode="&#x441;" horiz-adv-x="925" 
d="M535 946h-15q-147 0 -242.5 -117.5t-95.5 -343.5v-22q0 -106 17 -187.5t54.5 -145t103 -97t157.5 -33.5q97 0 165 47t90.5 111.5t2.5 124.5q-14 42 17 63q28 19 56 0q24 -17 27 -57q9 -113 -101 -206t-257 -93q-112 1 -198.5 37t-140 100t-80.5 149t-27 187v22
q0 112 40 204t105.5 149t145 87.5t161.5 30.5h15q158 0 252.5 -69t82.5 -180q-6 -59 -49 -69q-32 -8 -52 17q-16 21 -5 50q36 91 -27.5 166t-201.5 75z" />
    <glyph glyph-name="afii10084" unicode="&#x442;" horiz-adv-x="897" 
d="M375 922h-101q-87 -3 -139.5 -57.5t-52.5 -125.5v-47h-16v240h765v-240h-16v47q0 71 -52.5 125.5t-139.5 57.5h-101q-20 0 -20 -21v-878q0 -11 12 -11h82q6 0 6 -6t-6 -6h-295q-5 0 -7 3t0 6t7 3h84q10 0 10 11v878q0 21 -20 21z" />
    <glyph glyph-name="afii10085" unicode="&#x443;" horiz-adv-x="964" 
d="M780 762l-262 -725l-14 -39l-23 -61q-95 -260 -245.5 -365t-325.5 -35q-69 28 -74 75q-4 33 25 48q24 12 53 -4q88 -50 165.5 -60.5t135.5 12.5t107.5 74.5t83 114.5t61.5 142l22 67q-19 -13 -57 17l-350 901h-115q-6 0 -6 6t6 6h348q6 0 6 -6t-6 -6h-118l323 -836
l246 670q21 56 13.5 93t-30.5 55t-55 18h-26q-6 0 -6 6t6 6h319q6 0 6 -6t-6 -6h-18q-71 0 -118 -49t-71 -113z" />
    </font>
</defs>
</svg>
